<?xml version="1.0" standalone="no"?>
<!DOCTYPE svg PUBLIC "-//W3C//DTD SVG 1.1//EN" "http://www.w3.org/Graphics/SVG/1.1/DTD/svg11.dtd" >
<svg>
<metadata>
Created by FontForge 20090622 at Fri Dec 18 08:48:19 2015
 By deploy user
Copyright (c) 2011 JM Sole (info@jmsole.cl), with Reserved Font Name "Noticia Text".
</metadata>
<defs>
<font id="NoticiaText-Regular" horiz-adv-x="550" >
  <font-face 
    font-family="Noticia Text"
    font-weight="400"
    font-stretch="normal"
    units-per-em="2048"
    panose-1="2 0 5 3 6 0 0 2 0 4"
    ascent="1638"
    descent="-410"
    x-height="1085"
    cap-height="1353"
    bbox="-1015 -593 2495 2167"
    underline-thickness="51"
    underline-position="-52"
    unicode-range="U+0020-U+FB02"
  />
<missing-glyph horiz-adv-x="1601" 
d="M180 1540h1241v-1975h-1241v1975zM877 552l398 -838v1677zM723 552l-397 839v-1677zM800 390l-329 -696h659zM800 715l330 696h-659z" />
    <glyph glyph-name=".notdef" horiz-adv-x="1601" 
d="M180 1540h1241v-1975h-1241v1975zM877 552l398 -838v1677zM723 552l-397 839v-1677zM800 390l-329 -696h659zM800 715l330 696h-659z" />
    <glyph glyph-name="NULL" horiz-adv-x="0" 
 />
    <glyph glyph-name="nonmarkingreturn" horiz-adv-x="0" 
 />
    <glyph glyph-name="space" unicode=" " 
 />
    <glyph glyph-name="n" unicode="n" horiz-adv-x="1346" 
d="M106 98l153 34v821l-153 34l20 98l235 22l58 -178q74 84 167 131t196 47q179 0 264 -93.5t85 -287.5v-594l153 -34l-20 -98h-446l-20 98l153 34v550q0 153 -49.5 229t-178.5 76q-67 0 -140.5 -33t-143.5 -96v-726l153 -34l-20 -98h-446z" />
    <glyph glyph-name="m" unicode="m" horiz-adv-x="2034" 
d="M104 98l153 34v821l-153 34l20 98l235 22l58 -178q72 86 167.5 132t195.5 46q131 0 208.5 -46.5t109.5 -131.5q92 96 185 137t189 41q178 0 263.5 -94.5t85.5 -286.5v-594l153 -34l-20 -98h-446l-20 98l153 34v550q0 155 -55.5 230t-186.5 75q-58 0 -128.5 -33
t-141.5 -96v-726l153 -34l-20 -98h-446l-20 98l153 34v550q0 156 -53.5 230.5t-188.5 74.5q-60 0 -132 -35.5t-138 -93.5v-726l153 -34l-20 -98h-446z" />
    <glyph glyph-name="e" unicode="e" horiz-adv-x="1034" 
d="M276 523v-76q0 -168 92.5 -258.5t220.5 -90.5q83 0 163 18t149 47v-96q-87 -46 -182.5 -67.5t-189.5 -21.5q-206 0 -319.5 112t-113.5 324v83q0 287 127.5 448.5t347.5 161.5q203 0 293 -103.5t90 -360.5v-120h-678zM336 927q-22 -56 -37.5 -136t-19.5 -148h485
q0 182 -52.5 263t-168.5 81q-59 0 -116 -18t-91 -42z" />
    <glyph glyph-name="h" unicode="h" horiz-adv-x="1324" 
d="M83 98l153 34v1276l-153 34l20 98l313 22v-615l14 -6q62 79 146 122.5t185 43.5q178 0 262.5 -94t84.5 -287v-594l153 -34l-20 -98h-446l-20 98l153 34v560q0 159 -53.5 227t-172.5 68q-76 0 -153.5 -43t-132.5 -106v-706l153 -34l-20 -98h-446z" />
    <glyph glyph-name="i" unicode="i" horiz-adv-x="660" 
d="M259 953l-153 34l20 98l313 22v-975l153 -34l-20 -98h-446l-20 98l153 34v821zM212 1401q0 56 29.5 97.5t68.5 41.5q57 0 97.5 -29t40.5 -70q0 -56 -29.5 -97t-68.5 -41q-56 0 -97 29t-41 69z" />
    <glyph glyph-name="o" unicode="o" horiz-adv-x="1114" 
d="M547 -22q-218 0 -334.5 116.5t-116.5 324.5v93q0 276 126.5 435.5t334.5 159.5q218 0 339.5 -116.5t121.5 -334.5v-94q0 -265 -126 -424.5t-345 -159.5zM838 622q0 171 -78.5 266.5t-222.5 98.5q-55 0 -110 -17.5t-91 -42.5q-26 -59 -43 -153t-17 -202v-119
q0 -168 86.5 -261.5t214.5 -93.5q50 0 103 16t98 44q31 65 45.5 155t14.5 190v119z" />
    <glyph glyph-name="l" unicode="l" horiz-adv-x="642" 
d="M246 1408l-153 34l20 98l313 22v-1430l153 -34l-20 -98h-446l-20 98l153 34v1276z" />
    <glyph glyph-name="g" unicode="g" horiz-adv-x="1075" 
d="M824 978l-4 -10q43 -29 75 -87t32 -121v-25q0 -168 -109.5 -267.5t-290.5 -99.5q-65 0 -119 12q-54 -50 -87.5 -94.5t-33.5 -71.5q0 -26 18.5 -40t52.5 -14h224q238 0 356.5 -69t118.5 -217q0 -162 -138.5 -246.5t-393.5 -84.5q-222 0 -327.5 47t-105.5 151
q0 67 54.5 135t154.5 133q-72 14 -113 52t-41 100q0 59 47.5 124t125.5 124q-86 41 -129.5 111t-43.5 150v26q0 196 109 303.5t291 107.5q29 0 73.5 -6.5t79.5 -15.5h314l18 -107h-208zM411 0q-70 -52 -114.5 -109t-44.5 -106q0 -71 73.5 -96.5t259.5 -25.5q77 0 155.5 12.5
t139.5 38.5q17 24 27 57.5t10 67.5q0 91 -72.5 126t-250.5 35h-183zM747 764q0 105 -66 164t-158 59q-46 0 -87 -8.5t-69 -21.5q-21 -54 -30.5 -110t-9.5 -103v-38q0 -97 71 -157.5t153 -60.5q48 0 86.5 7.5t69.5 22.5q17 32 28.5 87.5t11.5 120.5v38z" />
    <glyph glyph-name="p" unicode="p" horiz-adv-x="1160" 
d="M183 953l-153 34l20 98l235 22l58 -178q75 90 162 134t186 44q183 0 278 -114.5t95 -336.5v-94q0 -271 -123 -427.5t-335 -156.5q-61 0 -120.5 6.5t-122.5 18.5v-305l153 -34l-20 -99h-446l-20 99l153 34v1255zM884 622q0 180 -65.5 272.5t-191.5 92.5q-63 0 -133 -35.5
t-131 -93.5v-733q40 -9 108.5 -18t124.5 -9q61 0 120 14.5t111 45.5q21 55 39 151t18 194v119z" />
    <glyph glyph-name="q" unicode="q" horiz-adv-x="1085" 
d="M791 116l-10 4q-64 -72 -141 -107t-168 -35q-184 0 -278 110.5t-94 320.5v83q0 279 125 447t330 168q87 0 202 -19.5t214 -44.5v-1500l-313 22l-20 98l153 34v419zM280 453q0 -178 68 -266.5t180 -88.5q72 0 144 38.5t119 88.5v734q-55 12 -117 20t-121 8
q-64 0 -123.5 -20t-95.5 -48q-25 -71 -39.5 -160.5t-14.5 -186.5v-119z" />
    <glyph glyph-name="r" unicode="r" horiz-adv-x="885" 
d="M259 953l-153 34l20 98l235 22l58 -178q48 90 112.5 134t150.5 44q41 0 80.5 -11t68.5 -31l-25 -283h-112l-26 185q-19 8 -45 8q-51 0 -102 -36.5t-82 -80.5v-726l186 -34l-20 -98h-479l-20 98l153 34v821z" />
    <glyph glyph-name="s" unicode="s" horiz-adv-x="970" 
d="M571 621q208 -106 263.5 -181.5t55.5 -168.5q0 -130 -114.5 -211.5t-303.5 -81.5q-102 0 -191 21t-145 49l-10 240l109 20l58 -187q39 -12 86 -17.5t95 -5.5q54 0 107.5 6.5t108.5 21.5q10 21 15 47.5t5 51.5q0 71 -64 127.5t-248 153.5q-166 87 -223 156t-57 158
q0 125 105 206t298 81q90 0 175 -18.5t146 -49.5l9 -241l-109 -20l-59 189q-40 11 -85 15.5t-83 4.5q-53 0 -103 -7.5t-92 -20.5q-9 -16 -15.5 -41.5t-6.5 -52.5q0 -54 45.5 -101.5t227.5 -142.5z" />
    <glyph glyph-name="f" unicode="f" horiz-adv-x="747" 
d="M259 1193q0 185 77 277t222 92q46 0 94.5 -11t82.5 -26l-43 -131q-57 19 -115.5 30t-107.5 11q-12 -30 -21 -88.5t-9 -137.5v-124h214l20 -98l-234 -34v-821l213 -34l-20 -98h-506l-20 98l153 34v821l-163 34l20 98h143v108z" />
    <glyph glyph-name="d" unicode="d" horiz-adv-x="1186" 
d="M979 132l153 -34l-20 -98l-235 -22l-58 177q-73 -95 -159.5 -137t-179.5 -40q-179 0 -280.5 112.5t-101.5 322.5v93q0 281 126.5 441t351.5 160q42 0 96.5 -5.5t126.5 -18.5v325l-153 34l20 98l313 22v-1430zM278 434q0 -163 70 -249.5t187 -86.5q73 0 145.5 39.5
t118.5 87.5v735q-58 12 -122 19.5t-121 7.5q-65 0 -125 -18.5t-103 -48.5q-24 -78 -37 -171.5t-13 -195.5v-119z" />
    <glyph glyph-name="j" unicode="j" horiz-adv-x="569" 
d="M412 -47q0 -208 -71 -309t-236 -101q-54 0 -109 10t-100 27l36 131q60 -16 132.5 -28.5t127.5 -12.5q18 38 29 101.5t11 142.5v1039l-183 34l20 98l343 22v-1154zM185 1401q0 56 29.5 97.5t68.5 41.5q57 0 97.5 -29t40.5 -70q0 -56 -29.5 -97t-68.5 -41q-56 0 -97 29
t-41 69z" />
    <glyph glyph-name="t" unicode="t" horiz-adv-x="742" 
d="M659 1085l20 -99l-310 -32v-645q0 -106 31.5 -158.5t127.5 -52.5q32 0 71 10t81 29v-94q-46 -30 -105.5 -47.5t-119.5 -17.5q-140 0 -203 72t-63 220v684l-161 32l20 99h141l73 293l107 -20v-273h290z" />
    <glyph glyph-name="k" unicode="k" horiz-adv-x="1185" 
d="M84 98l153 34v1276l-153 34l20 98l313 22v-989l14 -6l429 401l-92 19l20 98h322l20 -98l-87 -19l-359 -325l343 -511l134 -34l-20 -98h-223l-357 532l-144 -130v-270l153 -34l-20 -98h-446z" />
    <glyph glyph-name="v" unicode="v" horiz-adv-x="1062" 
d="M1076 987l-95 -19l-339 -968h-217l-342 968l-95 19l20 98h370l20 -98l-129 -20l278 -835h16l278 835l-129 20l20 98h324z" />
    <glyph glyph-name="w" unicode="w" horiz-adv-x="1733" 
d="M1747 987l-94 -18l-295 -969h-212l-258 828h-16l-251 -828h-212l-323 968l-96 19l20 98h371l20 -98l-131 -20l256 -808h16l268 926h183l273 -926h16l233 808l-134 20l20 98h326z" />
    <glyph glyph-name="y" unicode="y" horiz-adv-x="1106" 
d="M777 1085h325l20 -98l-97 -19l-357 -966q-90 -249 -177.5 -354t-225.5 -105q-59 0 -119 15t-98 32l36 131q55 -20 129 -35.5t141 -15.5q38 26 74.5 75.5t65.5 129.5l-407 1093l-97 19l20 98h370l20 -98l-125 -19l295 -836h16l296 836l-125 19z" />
    <glyph glyph-name="x" unicode="x" horiz-adv-x="1086" 
d="M24 98l92 16l333 429l-325 428l-86 16l20 98h350l20 -98l-93 -15l234 -306h16l228 305l-94 16l20 98h303l20 -98l-88 -16l-325 -412l339 -445l92 -16l-20 -98h-357l-20 98l93 15l-246 324h-16l-239 -324l96 -15l-20 -98h-307z" />
    <glyph glyph-name="z" unicode="z" horiz-adv-x="967" 
d="M741 110l52 190l104 -11v-289h-805v95l593 868l-6 12h-400l-52 -190l-104 11v289h782v-83l-601 -880l6 -12h431z" />
    <glyph glyph-name="I" unicode="I" horiz-adv-x="643" 
d="M225 1221l-153 34l20 98h455l20 -98l-152 -34v-1089l152 -34l-20 -98h-455l-20 98l153 34v1089z" />
    <glyph glyph-name="L" unicode="L" horiz-adv-x="1018" 
d="M227 1221l-153 34l20 98h455l20 -98l-152 -34v-1092h336l83 193l104 -22l-25 -300h-821l-20 98l153 34v1089z" />
    <glyph glyph-name="T" unicode="T" horiz-adv-x="1139" 
d="M475 1224h-300l-62 -170l-99 9l15 290h1082l14 -290l-98 -9l-63 170h-299v-1092l153 -34l-20 -98h-456l-20 98l153 34v1092z" />
    <glyph glyph-name="H" unicode="H" horiz-adv-x="1459" 
d="M225 1221l-153 34l20 98h455l20 -98l-152 -34v-443h624v443l-152 34l20 98h456l20 -98l-154 -34v-1089l154 -34l-20 -98h-456l-20 98l152 34v517h-624v-517l152 -34l-20 -98h-455l-20 98l153 34v1089z" />
    <glyph glyph-name="E" unicode="E" horiz-adv-x="1191" 
d="M419 643v-514h481l83 193l104 -23l-24 -299h-967l-20 98l153 34v1089l-153 34l20 98h937l24 -300l-103 -22l-83 193h-452v-452h357l34 122l99 -20v-334l-99 -20l-34 123h-357z" />
    <glyph glyph-name="U" unicode="U" horiz-adv-x="1358" 
d="M360 546q0 -223 94 -331t259 -108q79 0 148 23t110 53q34 62 56 150t22 188v700l-153 34l20 98h406l20 -98l-152 -34v-677q0 -291 -127 -428.5t-390 -137.5q-249 0 -376 124.5t-127 388.5v730l-154 34l20 98h456l20 -98l-152 -34v-675z" />
    <glyph glyph-name="F" unicode="F" horiz-adv-x="1043" 
d="M415 643v-511l202 -34l-20 -98h-505l-20 98l153 34v1089l-153 34l20 98h877l24 -300l-103 -22l-83 193h-392v-452h320l34 122l98 -20v-334l-98 -20l-34 123h-320z" />
    <glyph glyph-name="N" unicode="N" horiz-adv-x="1532" 
d="M225 1221l-153 34l20 98h420l655 -1217h16v1085l-154 34l20 98h407l20 -98l-152 -34v-1221h-287l-656 1218h-16v-1086l152 -34l-20 -98h-405l-20 98l153 34v1089z" />
    <glyph glyph-name="C" unicode="C" horiz-adv-x="1176" 
d="M100 604q0 381 154 576t451 195q95 0 192 -15t171 -44l21 -270l-105 -22l-83 195q-38 12 -97 19.5t-126 7.5q-86 0 -163.5 -23t-135.5 -65q-40 -92 -64.5 -220t-24.5 -255v-133q0 -214 117.5 -328.5t315.5 -114.5q94 0 192.5 29.5t176.5 74.5v-106q-93 -60 -206 -93.5
t-223 -33.5q-278 0 -420.5 134t-142.5 403v89z" />
    <glyph glyph-name="O" unicode="O" horiz-adv-x="1345" 
d="M663 -22q-279 0 -420 137.5t-141 409.5v79q0 389 148 580t433 191q278 0 419 -136.5t141 -411.5v-78q0 -377 -144 -574t-436 -197zM1053 783q0 236 -104.5 349.5t-295.5 113.5q-89 0 -168 -27.5t-124 -60.5q-30 -92 -49.5 -206.5t-19.5 -248.5v-133q0 -221 112.5 -342
t288.5 -121q88 0 165.5 26.5t126.5 62.5q32 100 50 220t18 234v133z" />
    <glyph glyph-name="Q" unicode="Q" horiz-adv-x="1360" 
d="M661 -22q-279 0 -420 137.5t-141 409.5v79q0 376 145.5 573.5t435.5 197.5q278 0 419 -136.5t141 -411.5v-78q0 -449 -206 -640q37 -79 74.5 -126.5t94.5 -47.5q35 0 69 6.5t65 18.5v-100q-34 -23 -79.5 -38.5t-96.5 -15.5q-94 0 -157 43.5t-109 139.5l-13 26
q-51 -18 -105 -27.5t-117 -9.5zM1051 783q0 233 -103.5 348t-296.5 115q-88 0 -169 -26t-133 -62q-11 -38 -21.5 -84t-19 -101.5t-13.5 -122.5t-5 -147v-133q0 -30 2 -59t7 -54q32 65 97.5 101.5t153.5 36.5q125 0 215 -62.5t166 -209.5l62 -127q18 55 38 189t20 265v133z
M782 223q-65 128 -140 185.5t-163 57.5q-138 0 -138 -110q0 -86 102.5 -167.5t247.5 -81.5q40 0 74 4.5t65 12.5z" />
    <glyph glyph-name="G" unicode="G" horiz-adv-x="1300" 
d="M1092 105q-96 -59 -211 -93t-228 -34q-262 0 -406.5 135t-144.5 392v89q0 378 157.5 579.5t454.5 201.5q98 0 195 -15t168 -42l21 -270l-105 -22l-82 193q-38 11 -98 19t-122 8q-87 0 -165.5 -23.5t-134.5 -64.5q-46 -93 -72.5 -216.5t-26.5 -258.5v-133q0 -211 121 -327
t290 -116q52 0 103 10t96 26v361l-153 34l20 108h455l20 -108l-152 -34v-399z" />
    <glyph glyph-name="D" unicode="D" horiz-adv-x="1362" 
d="M231 1221l-153 34l20 98h540q302 0 455 -151.5t153 -436.5v-78q0 -318 -155 -502.5t-430 -184.5h-563l-20 98l153 34v1089zM421 1224v-1095h211q78 0 148 12.5t130 36.5q62 77 104 195t42 249v94q0 241 -115.5 374.5t-341.5 133.5h-178z" />
    <glyph glyph-name="B" unicode="B" horiz-adv-x="1160" 
d="M229 1221l-153 34l20 98h477q212 0 322.5 -77.5t110.5 -234.5q0 -114 -57 -194.5t-140 -122.5l2 -16q111 -21 182 -97.5t71 -192.5q0 -193 -117.5 -305.5t-322.5 -112.5h-528l-20 98l153 34v1089zM419 638v-509h137q92 0 161 12t128 37q13 41 21 95t8 119
q0 117 -81 181.5t-220 64.5h-154zM419 1224v-457h131q78 0 133.5 12.5t93.5 26.5q14 38 26.5 90t12.5 117q0 108 -71.5 159.5t-210.5 51.5h-115z" />
    <glyph glyph-name="A" unicode="A" horiz-adv-x="1218" 
d="M-8 98l108 29l440 1226h149l429 -1226l108 -29l-20 -98h-385l-20 98l128 29l-94 279h-491l-96 -279l128 -29l-20 -98h-344zM389 535h402l-194 569h-10z" />
    <glyph glyph-name="P" unicode="P" horiz-adv-x="1102" 
d="M227 1221l-153 34l20 98h501q222 0 339.5 -83.5t117.5 -261.5q0 -186 -124 -296.5t-310 -110.5h-201v-469l212 -34l-20 -98h-515l-20 98l153 34v1089zM417 1224v-494h160q73 0 134 9.5t116 28.5q16 51 23.5 102t7.5 98q0 118 -79 187t-232 69h-130z" />
    <glyph glyph-name="R" unicode="R" horiz-adv-x="1205" 
d="M225 1221l-153 34l20 98h492q208 0 318 -84.5t110 -258.5q0 -130 -59.5 -226.5t-162.5 -144.5l-6 -19l277 -488l146 -34l-20 -98h-249l-340 601h-183v-469l152 -34l-20 -98h-455l-20 98l153 34v1089zM415 1224v-494h123q62 0 125.5 9t125.5 30q11 45 20 98t9 102
q0 119 -76.5 187t-225.5 68h-101z" />
    <glyph glyph-name="V" unicode="V" horiz-adv-x="1180" 
d="M402 1254l-149 -29l351 -1043h16l350 1043l-149 29l20 99h363l20 -99l-108 -28l-430 -1226h-191l-432 1226l-107 28l20 99h406z" />
    <glyph glyph-name="M" unicode="M" horiz-adv-x="1922" 
d="M225 1221l-153 34l20 98h427l436 -1042h16l418 1042h437l20 -98l-152 -34v-1089l152 -34l-20 -98h-455l-20 98l153 34v1078h-16l-492 -1210h-105l-510 1210h-16v-1078l152 -34l-20 -98h-405l-20 98l153 34v1089z" />
    <glyph glyph-name="K" unicode="K" horiz-adv-x="1304" 
d="M72 98l153 34v1089l-153 34l20 98h455l20 -98l-152 -34v-557l14 -6l544 575l-110 21l20 99h362l20 -98l-122 -34l-433 -455l456 -633l146 -35l-20 -98h-244l-459 639l-174 -183v-324l152 -34l-20 -98h-455z" />
    <glyph glyph-name="S" unicode="S" horiz-adv-x="1066" 
d="M619 762q188 -110 274.5 -201.5t86.5 -215.5q0 -165 -128.5 -266t-343.5 -101q-120 0 -219.5 18.5t-158.5 44.5l-21 259l117 25l82 -194q37 -11 82.5 -17.5t102.5 -6.5q74 0 141.5 10t125.5 28q10 25 20 66.5t10 98.5q0 63 -59 131.5t-255 186.5q-254 150 -310.5 232
t-56.5 179q0 146 125.5 241t346.5 95q84 0 168.5 -12t163.5 -40l21 -270l-105 -22l-82 193q-41 11 -83.5 16.5t-88.5 5.5q-77 0 -144 -11t-113 -27q-9 -30 -14 -63.5t-5 -70.5q0 -71 59.5 -130.5t260.5 -181.5z" />
    <glyph glyph-name="J" unicode="J" horiz-adv-x="859" 
d="M647 336q0 -174 -84 -266t-251 -92q-60 0 -120 16t-101 37l-21 260l103 22l82 -192q21 -8 41 -11.5t37 -3.5q24 0 49 6t44 15q14 38 22.5 101.5t8.5 140.5v852l-193 34l20 98h495l20 -98l-152 -34v-885z" />
    <glyph glyph-name="W" unicode="W" horiz-adv-x="1998" 
d="M403 1254l-149 -29l335 -993h16l342 1121h191l334 -1121h16l304 993l-153 29l20 99h363l20 -99l-103 -27l-386 -1227h-191l-333 1107h-16l-337 -1107h-192l-422 1227l-106 27l20 99h407z" />
    <glyph glyph-name="Z" unicode="Z" horiz-adv-x="1130" 
d="M1023 1353v-124l-716 -1086l5 -14h557l82 193l103 -22l-24 -300h-948v125l715 1085l-5 14h-516l-82 -193l-104 22l25 300h908z" />
    <glyph glyph-name="X" unicode="X" horiz-adv-x="1273" 
d="M188 1226l-116 28l20 99h401l20 -99l-118 -28l267 -403h16l258 402l-120 29l20 99h355l20 -99l-118 -28l-352 -526l379 -573l117 -29l-20 -98h-401l-20 98l118 29l-299 453h-16l-289 -452l117 -30l-20 -98h-351l-20 98l117 29l381 575z" />
    <glyph glyph-name="Y" unicode="Y" horiz-adv-x="1122" 
d="M478 578l-416 648l-114 28l20 99h410l20 -99l-132 -28l321 -504h16l304 504l-125 28l20 99h352l20 -99l-111 -28l-395 -650v-444l152 -34l-20 -98h-455l-20 98l153 34v446z" />
    <glyph glyph-name="zero" unicode="0" horiz-adv-x="1176" 
d="M561 -22q-227 0 -337 135.5t-110 403.5v105q0 371 126.5 562t357.5 191q238 0 351 -131.5t113 -408.5v-104q0 -377 -119.5 -565t-381.5 -188zM868 782q0 238 -63.5 351t-216.5 113q-151 0 -215.5 -126.5t-64.5 -407.5v-140q0 -237 67 -351t211 -114q156 0 219 133t63 402
v140z" />
    <glyph glyph-name="one" unicode="1" horiz-adv-x="728" 
d="M126 98l183 34v1034h-246l-10 103l335 84h111v-1221l182 -34l-20 -98h-515z" />
    <glyph glyph-name="three" unicode="3" horiz-adv-x="990" 
d="M445 -22q-96 0 -194.5 28.5t-165.5 65.5l1 258l105 12l52 -193q51 -19 105.5 -30.5t109.5 -11.5q109 0 181 73t72 198q0 128 -74 203.5t-189 75.5h-103v129h93q105 0 165 63t60 178q0 111 -55 165t-169 54q-45 0 -88.5 -9t-80.5 -23l-53 -193l-105 12v268q87 37 177 55.5
t178 18.5q184 0 285 -83.5t101 -240.5q0 -116 -55 -195.5t-138 -122.5q112 -35 176 -122.5t64 -205.5q0 -200 -124 -313.5t-331 -113.5z" />
    <glyph glyph-name="seven" unicode="7" horiz-adv-x="926" 
d="M165 980l-115 8v365h888v-93l-515 -1260h-179l508 1173l-6 10h-528z" />
    <glyph glyph-name="two" unicode="2" horiz-adv-x="982" 
d="M701 998q0 119 -62 183.5t-172 64.5q-56 0 -107.5 -14.5t-89.5 -32.5l-57 -201l-109 11v261q78 43 183 74t204 31q189 0 294.5 -86.5t105.5 -251.5q0 -98 -50.5 -200t-133.5 -209t-190.5 -219l-221.5 -229l4 -10h437l82 193l104 -23l-23 -340h-831v145l252 265t200.5 227
t132.5 194t48 167z" />
    <glyph glyph-name="four" unicode="4" horiz-adv-x="1026" 
d="M423 98l193 34v190h-569l-23 86l579 945h194l-567 -892l5 -10h381v366h190v-366h132l24 -100l-156 -34v-185l152 -34l-20 -98h-495z" />
    <glyph glyph-name="eight" unicode="8" horiz-adv-x="1018" 
d="M84 304q0 123 75 220t202 147q-108 58 -167 136t-59 200q0 154 111 261t292 107q170 0 262.5 -76.5t92.5 -213.5q0 -109 -71 -199.5t-181 -138.5q143 -61 223 -153.5t80 -217.5q0 -178 -123.5 -288t-335.5 -110q-189 0 -295 84.5t-106 241.5zM496 607l-28 11.5t-28 12.5
q-77 -46 -121.5 -117.5t-44.5 -167.5q0 -112 60.5 -175.5t167.5 -63.5t179.5 67.5t72.5 171.5q0 77 -59.5 139.5t-198.5 121.5zM324 1032q0 -102 60.5 -157t172.5 -95q69 38 107.5 104.5t38.5 164.5q0 94 -46 145.5t-134 51.5q-90 0 -144.5 -61t-54.5 -153z" />
    <glyph glyph-name="five" unicode="5" horiz-adv-x="1043" 
d="M475 -22q-94 0 -196.5 27.5t-168.5 60.5v257l115 8l61 -194q30 -11 85.5 -20.5t116.5 -9.5q116 0 198.5 82t82.5 219q0 131 -78.5 204t-212.5 73q-64 0 -124 -9t-129 -34l-96 87l35 624h713v-170h-584l-26 -405q45 19 108.5 31.5t121.5 12.5q218 0 340 -99.5t122 -291.5
q0 -199 -140.5 -326t-343.5 -127z" />
    <glyph glyph-name="six" unicode="6" horiz-adv-x="1051" 
d="M104 572q0 353 184 578t444 225q45 0 83 -5.5t79 -16.5v-116q-65 6 -91 7.5t-54 1.5q-190 0 -320 -162.5t-130 -392.5l10 -4q57 44 127.5 72t151.5 28q182 0 288.5 -104t106.5 -256v-29q0 -197 -121.5 -308.5t-316.5 -111.5q-212 0 -326.5 137t-114.5 385v72zM793 388
q0 124 -71.5 197t-192.5 73q-65 0 -122.5 -15t-107.5 -36v-86q0 -197 75 -305.5t188 -108.5q107 0 169 72t62 193v16z" />
    <glyph glyph-name="nine" unicode="9" horiz-adv-x="1058" 
d="M284 941q0 -118 68 -193.5t177 -75.5q60 0 122.5 15.5t111.5 38.5v72q0 215 -65 331.5t-189 116.5q-113 0 -169 -75t-56 -214v-16zM324 -22q-46 0 -92.5 6.5t-84.5 16.5v116q32 -5 68 -7.5t80 -2.5q207 0 337.5 148.5t130.5 386.5l-10 4q-44 -41 -122 -72t-161 -31
q-160 0 -268 102t-108 257v29q0 201 113 322.5t317 121.5q210 0 320 -130.5t110 -400.5v-78q0 -387 -168 -587.5t-462 -200.5z" />
    <glyph glyph-name="period" unicode="." 
d="M140 79q0 34 8 65.5t22 55t32 37.5t39 14q36 0 67 -8t54.5 -22t36.5 -33t13 -40q0 -34 -8 -64.5t-22 -54t-32.5 -37.5t-39.5 -14q-36 0 -67 8t-54 22t-36 32t-13 39z" />
    <glyph glyph-name="comma" unicode="," 
d="M90 79q0 34 8 65.5t22 55t32 37.5t39 14q39 0 81 -12t69 -41q9 -9 17 -22t14 -32t10 -44.5t4 -60.5q0 -50 -7.5 -97t-30 -95.5t-65 -100.5t-111.5 -112l-68 80q85 71 118 126t33 96q0 20 -16 31t-39 17q-49 13 -79.5 38t-30.5 57z" />
    <glyph glyph-name="colon" unicode=":" horiz-adv-x="596" 
d="M152 79q0 34 8 65.5t21.5 55t32 37.5t39.5 14q36 0 67 -8t54.5 -22.5t36.5 -33t13 -39.5q0 -34 -8 -64.5t-21.5 -54t-32.5 -37.5t-40 -14q-36 0 -67 8t-54 21.5t-36 32t-13 39.5zM152 844q0 34 8 65.5t22 55t32 37.5t39 14q36 0 67 -8t54.5 -22t36.5 -33t13 -40
q0 -34 -8 -64.5t-22 -54t-32.5 -37.5t-39.5 -14q-36 0 -67 8t-54 22t-36 32t-13 39z" />
    <glyph glyph-name="semicolon" unicode=";" horiz-adv-x="601" 
d="M152 844q0 34 8 65.5t22 55t32 37.5t39 14q36 0 67 -8t54.5 -22t36.5 -33t13 -40q0 -34 -8 -64.5t-22 -54t-32.5 -37.5t-39.5 -14q-36 0 -67 8t-54 22t-36 32t-13 39zM152 79q0 34 8 65.5t22 55t32 37.5t39 14q39 0 81 -12t69 -41q9 -9 17 -22t14 -32t10 -44.5t4 -60.5
q0 -50 -7.5 -97t-30 -95.5t-65 -100.5t-111.5 -112l-68 80q85 71 118 126t33 96q0 20 -16 31t-39 17q-49 13 -79.5 38t-30.5 57z" />
    <glyph glyph-name="parenleft" unicode="(" horiz-adv-x="663" 
d="M293 543q0 -113 13.5 -215.5t36 -193.5t51.5 -170t59 -145q70 -154 160 -275l-93 -60q-115 124 -205 286q-39 69 -75.5 152.5t-65.5 181t-46.5 207.5t-17.5 232q0 121 17.5 231.5t46.5 207.5t65.5 180.5t75.5 152.5q90 161 205 286l93 -60q-90 -120 -160 -274
q-30 -66 -59 -145t-51.5 -170.5t-36 -194t-13.5 -214.5z" />
    <glyph glyph-name="parenright" unicode=")" horiz-adv-x="663" 
d="M370 543q0 112 -14 214.5t-36.5 194t-51 170.5t-58.5 145q-70 154 -160 274l93 60q114 -125 205 -286q38 -69 75 -152.5t66 -180.5t46.5 -207.5t17.5 -231.5q0 -122 -17.5 -232t-46.5 -207.5t-66 -181t-75 -152.5q-91 -162 -205 -286l-93 60q90 121 160 275
q30 66 58.5 145t51 170t36.5 193.5t14 215.5z" />
    <glyph glyph-name="acute" unicode="&#xb4;" horiz-adv-x="1052" 
d="M397 1307l203 363l182 -10v-66l-280 -329l-105 10v32z" />
    <glyph glyph-name="u" unicode="u" horiz-adv-x="1262" 
d="M371 403q0 -156 55 -230.5t187 -74.5q72 0 143 34t127 93v728l-183 34l20 98l343 22v-975l153 -34l-20 -98l-235 -22l-58 178q-81 -95 -171.5 -136.5t-199.5 -41.5q-168 0 -254.5 95t-86.5 286v594l-153 34l20 98l313 22v-704z" />
    <glyph glyph-name="tilde" unicode="&#x2dc;" horiz-adv-x="1101" 
d="M150 1307q0 113 58.5 171t161.5 58q54 0 109.5 -20.5t106 -45.5l93.5 -45.5t72 -20.5q38 0 60.5 29.5t22.5 90.5l117 10v-47q0 -106 -53.5 -167.5t-154.5 -61.5q-49 0 -106.5 20.5t-113 45.5l-102.5 45.5t-75 20.5q-20 0 -36.5 -4t-27.5 -15t-17 -30t-6 -49l-109 -10v25z
" />
    <glyph glyph-name="paragraph" unicode="&#xb6;" horiz-adv-x="1152" 
d="M525 485q-84 0 -162 24t-139 75t-97.5 131t-36.5 193q0 112 33.5 196t93.5 139t142 82.5t179 27.5h514l20 -98l-152 -34v-1093q0 -104 -31 -184t-81.5 -135t-115.5 -83t-133 -28q-64 0 -113 7t-84 16q-40 11 -71 24v112q29 -9 66 -16q31 -6 73.5 -10.5t93.5 -4.5
q48 0 86 16t64.5 52.5t41 95t14.5 143.5v1091h-140v-739h-65z" />
    <glyph glyph-name="dotlessi" unicode="&#x131;" horiz-adv-x="660" 
d="M439 132l153 -34l-20 -98h-446l-20 98l153 34v821l-153 34l20 98l313 22v-975z" />
    <glyph glyph-name="grave" unicode="`" horiz-adv-x="832" 
d="M549 1275l-118 -10l-290 329v66l175 10l233 -363v-32z" />
    <glyph glyph-name="dieresis" unicode="&#xa8;" horiz-adv-x="1013" 
d="M200 1384q0 25 7 48t19.5 40.5t28.5 27.5t34 10q26 0 49 -7t39.5 -19.5t26 -29t9.5 -34.5q0 -25 -7 -47.5t-19 -40t-28 -27.5t-34 -10q-26 0 -49 7t-40 19.5t-26.5 28.5t-9.5 34zM600 1384q0 25 7 48t19 40.5t28 27.5t34 10q26 0 49 -7t40 -19.5t26.5 -29t9.5 -34.5
q0 -25 -7 -47.5t-19.5 -40t-28.5 -27.5t-34 -10q-26 0 -49 7t-39.5 19.5t-26 28.5t-9.5 34z" />
    <glyph glyph-name="idieresis" unicode="&#xef;" horiz-adv-x="660" 
d="M439 132l153 -34l-20 -98h-446l-20 98l153 34v821l-153 34l20 98l313 22v-975zM-3 1384q0 25 7 48t19.5 40.5t28.5 27.5t34 10q26 0 49 -7t39.5 -19.5t26 -29t9.5 -34.5q0 -25 -7 -47.5t-19 -40t-28 -27.5t-34 -10q-26 0 -49 7t-40 19.5t-26.5 28.5t-9.5 34zM397 1384
q0 25 7 48t19 40.5t28 27.5t34 10q26 0 49 -7t40 -19.5t26.5 -29t9.5 -34.5q0 -25 -7 -47.5t-19.5 -40t-28.5 -27.5t-34 -10q-26 0 -49 7t-39.5 19.5t-26 28.5t-9.5 34z" />
    <glyph glyph-name="udieresis" unicode="&#xfc;" horiz-adv-x="1262" 
d="M371 403q0 -156 55 -230.5t187 -74.5q72 0 143 34t127 93v728l-183 34l20 98l343 22v-975l153 -34l-20 -98l-235 -22l-58 178q-81 -95 -171.5 -136.5t-199.5 -41.5q-168 0 -254.5 95t-86.5 286v594l-153 34l20 98l313 22v-704zM289 1384q0 25 7 48t19.5 40.5t28.5 27.5
t34 10q26 0 49 -7t39.5 -19.5t26 -29t9.5 -34.5q0 -25 -7 -47.5t-19 -40t-28 -27.5t-34 -10q-26 0 -49 7t-40 19.5t-26.5 28.5t-9.5 34zM689 1384q0 25 7 48t19 40.5t28 27.5t34 10q26 0 49 -7t40 -19.5t26.5 -29t9.5 -34.5q0 -25 -7 -47.5t-19.5 -40t-28.5 -27.5t-34 -10
q-26 0 -49 7t-39.5 19.5t-26 28.5t-9.5 34z" />
    <glyph glyph-name="eacute" unicode="&#xe9;" horiz-adv-x="1034" 
d="M276 523v-76q0 -168 92.5 -258.5t220.5 -90.5q83 0 163 18t149 47v-96q-87 -46 -182.5 -67.5t-189.5 -21.5q-206 0 -319.5 112t-113.5 324v83q0 287 127.5 448.5t347.5 161.5q203 0 293 -103.5t90 -360.5v-120h-678zM336 927q-22 -56 -37.5 -136t-19.5 -148h485
q0 182 -52.5 263t-168.5 81q-59 0 -116 -18t-91 -42zM492 1307l203 363l182 -10v-66l-280 -329l-105 10v32z" />
    <glyph glyph-name="edieresis" unicode="&#xeb;" horiz-adv-x="1034" 
d="M276 523v-76q0 -168 92.5 -258.5t220.5 -90.5q83 0 163 18t149 47v-96q-87 -46 -182.5 -67.5t-189.5 -21.5q-206 0 -319.5 112t-113.5 324v83q0 287 127.5 448.5t347.5 161.5q203 0 293 -103.5t90 -360.5v-120h-678zM336 927q-22 -56 -37.5 -136t-19.5 -148h485
q0 182 -52.5 263t-168.5 81q-59 0 -116 -18t-91 -42zM254 1384q0 25 7 48t19.5 40.5t28.5 27.5t34 10q26 0 49 -7t39.5 -19.5t26 -29t9.5 -34.5q0 -25 -7 -47.5t-19 -40t-28 -27.5t-34 -10q-26 0 -49 7t-40 19.5t-26.5 28.5t-9.5 34zM654 1384q0 25 7 48t19 40.5t28 27.5
t34 10q26 0 49 -7t40 -19.5t26.5 -29t9.5 -34.5q0 -25 -7 -47.5t-19.5 -40t-28.5 -27.5t-34 -10q-26 0 -49 7t-39.5 19.5t-26 28.5t-9.5 34z" />
    <glyph glyph-name="egrave" unicode="&#xe8;" horiz-adv-x="1034" 
d="M276 523v-76q0 -168 92.5 -258.5t220.5 -90.5q83 0 163 18t149 47v-96q-87 -46 -182.5 -67.5t-189.5 -21.5q-206 0 -319.5 112t-113.5 324v83q0 287 127.5 448.5t347.5 161.5q203 0 293 -103.5t90 -360.5v-120h-678zM336 927q-22 -56 -37.5 -136t-19.5 -148h485
q0 182 -52.5 263t-168.5 81q-59 0 -116 -18t-91 -42zM677 1275l-118 -10l-290 329v66l175 10l233 -363v-32z" />
    <glyph glyph-name="adieresis" unicode="&#xe4;" horiz-adv-x="1150" 
d="M939 132l173 -34l-20 -98l-255 -22l-58 177q-78 -95 -167 -136t-193 -41q-140 0 -225.5 70t-85.5 189q0 183 162 276.5t489 93.5v95q0 150 -54.5 217.5t-190.5 67.5q-32 0 -73.5 -4t-76.5 -11l-60 -212l-98 10v283q60 21 148.5 37.5t178.5 16.5q205 0 305.5 -90.5
t100.5 -281.5v-603zM759 487q-150 0 -266 -19.5t-177 -52.5q-12 -28 -20 -64t-8 -76q0 -83 55 -130t144 -47q75 0 148 37.5t124 89.5v262zM232 1384q0 25 7 48t19.5 40.5t28.5 27.5t34 10q26 0 49 -7t39.5 -19.5t26 -29t9.5 -34.5q0 -25 -7 -47.5t-19 -40t-28 -27.5t-34 -10
q-26 0 -49 7t-40 19.5t-26.5 28.5t-9.5 34zM632 1384q0 25 7 48t19 40.5t28 27.5t34 10q26 0 49 -7t40 -19.5t26.5 -29t9.5 -34.5q0 -25 -7 -47.5t-19.5 -40t-28.5 -27.5t-34 -10q-26 0 -49 7t-39.5 19.5t-26 28.5t-9.5 34z" />
    <glyph glyph-name="yacute" unicode="&#xfd;" horiz-adv-x="1106" 
d="M777 1085h325l20 -98l-97 -19l-357 -966q-90 -249 -177.5 -354t-225.5 -105q-59 0 -119 15t-98 32l36 131q55 -20 129 -35.5t141 -15.5q38 26 74.5 75.5t65.5 129.5l-407 1093l-97 19l20 98h370l20 -98l-125 -19l295 -836h16l296 836l-125 19zM508 1307l203 363l182 -10
v-66l-280 -329l-105 10v32z" />
    <glyph glyph-name="ydieresis" unicode="&#xff;" horiz-adv-x="1106" 
d="M777 1085h325l20 -98l-97 -19l-357 -966q-90 -249 -177.5 -354t-225.5 -105q-59 0 -119 15t-98 32l36 131q55 -20 129 -35.5t141 -15.5q38 26 74.5 75.5t65.5 129.5l-407 1093l-97 19l20 98h370l20 -98l-125 -19l295 -836h16l296 836l-125 19zM270 1384q0 25 7 48
t19.5 40.5t28.5 27.5t34 10q26 0 49 -7t39.5 -19.5t26 -29t9.5 -34.5q0 -25 -7 -47.5t-19 -40t-28 -27.5t-34 -10q-26 0 -49 7t-40 19.5t-26.5 28.5t-9.5 34zM670 1384q0 25 7 48t19 40.5t28 27.5t34 10q26 0 49 -7t40 -19.5t26.5 -29t9.5 -34.5q0 -25 -7 -47.5t-19.5 -40
t-28.5 -27.5t-34 -10q-26 0 -49 7t-39.5 19.5t-26 28.5t-9.5 34z" />
    <glyph glyph-name="circumflex" unicode="&#x2c6;" horiz-adv-x="999" 
d="M799 1275l-125 -10l-193 252l-186 -252l-95 10v32l233 373l133 -10l233 -363v-32z" />
    <glyph glyph-name="acircumflex" unicode="&#xe2;" horiz-adv-x="1150" 
d="M939 132l173 -34l-20 -98l-255 -22l-58 177q-78 -95 -167 -136t-193 -41q-140 0 -225.5 70t-85.5 189q0 183 162 276.5t489 93.5v95q0 150 -54.5 217.5t-190.5 67.5q-32 0 -73.5 -4t-76.5 -11l-60 -212l-98 10v283q60 21 148.5 37.5t178.5 16.5q205 0 305.5 -90.5
t100.5 -281.5v-603zM759 487q-150 0 -266 -19.5t-177 -52.5q-12 -28 -20 -64t-8 -76q0 -83 55 -130t144 -47q75 0 148 37.5t124 89.5v262zM852 1275l-125 -10l-193 252l-186 -252l-95 10v32l233 373l133 -10l233 -363v-32z" />
    <glyph glyph-name="ecircumflex" unicode="&#xea;" horiz-adv-x="1034" 
d="M276 523v-76q0 -168 92.5 -258.5t220.5 -90.5q83 0 163 18t149 47v-96q-87 -46 -182.5 -67.5t-189.5 -21.5q-206 0 -319.5 112t-113.5 324v83q0 287 127.5 448.5t347.5 161.5q203 0 293 -103.5t90 -360.5v-120h-678zM336 927q-22 -56 -37.5 -136t-19.5 -148h485
q0 182 -52.5 263t-168.5 81q-59 0 -116 -18t-91 -42zM874 1275l-125 -10l-193 252l-186 -252l-95 10v32l233 373l133 -10l233 -363v-32z" />
    <glyph glyph-name="icircumflex" unicode="&#xee;" horiz-adv-x="660" 
d="M439 132l153 -34l-20 -98h-446l-20 98l153 34v821l-153 34l20 98l313 22v-975zM617 1275l-125 -10l-193 252l-186 -252l-95 10v32l233 373l133 -10l233 -363v-32z" />
    <glyph glyph-name="ucircumflex" unicode="&#xfb;" horiz-adv-x="1262" 
d="M371 403q0 -156 55 -230.5t187 -74.5q72 0 143 34t127 93v728l-183 34l20 98l343 22v-975l153 -34l-20 -98l-235 -22l-58 178q-81 -95 -171.5 -136.5t-199.5 -41.5q-168 0 -254.5 95t-86.5 286v594l-153 34l20 98l313 22v-704zM909 1275l-125 -10l-193 252l-186 -252
l-95 10v32l233 373l133 -10l233 -363v-32z" />
    <glyph glyph-name="ccircumflex" unicode="&#x109;" horiz-adv-x="972" 
d="M96 492q0 296 126.5 455.5t349.5 159.5q76 0 152.5 -15t152.5 -48l19 -234l-110 -23l-69 179q-34 10 -70 15.5t-78 5.5q-62 0 -121.5 -15t-111.5 -45q-22 -60 -41 -159.5t-19 -215.5v-109q0 -160 93 -252.5t224 -92.5q72 0 145.5 18.5t149.5 54.5v-96q-69 -43 -158.5 -70
t-185.5 -27q-211 0 -329.5 108.5t-118.5 312.5v93zM877 1275l-125 -10l-193 252l-186 -252l-95 10v32l233 373l133 -10l233 -363v-32z" />
    <glyph glyph-name="gcircumflex" unicode="&#x11d;" horiz-adv-x="1075" 
d="M824 978l-4 -10q43 -29 75 -87t32 -121v-25q0 -168 -109.5 -267.5t-290.5 -99.5q-65 0 -119 12q-54 -50 -87.5 -94.5t-33.5 -71.5q0 -26 18.5 -40t52.5 -14h224q238 0 356.5 -69t118.5 -217q0 -162 -138.5 -246.5t-393.5 -84.5q-222 0 -327.5 47t-105.5 151
q0 67 54.5 135t154.5 133q-72 14 -113 52t-41 100q0 59 47.5 124t125.5 124q-86 41 -129.5 111t-43.5 150v26q0 196 109 303.5t291 107.5q29 0 73.5 -6.5t79.5 -15.5h314l18 -107h-208zM411 0q-70 -52 -114.5 -109t-44.5 -106q0 -71 73.5 -96.5t259.5 -25.5q77 0 155.5 12.5
t139.5 38.5q17 24 27 57.5t10 67.5q0 91 -72.5 126t-250.5 35h-183zM747 764q0 105 -66 164t-158 59q-46 0 -87 -8.5t-69 -21.5q-21 -54 -30.5 -110t-9.5 -103v-38q0 -97 71 -157.5t153 -60.5q48 0 86.5 7.5t69.5 22.5q17 32 28.5 87.5t11.5 120.5v38zM854 1275l-125 -10
l-193 252l-186 -252l-95 10v32l233 373l133 -10l233 -363v-32z" />
    <glyph glyph-name="nacute" unicode="&#x144;" horiz-adv-x="1346" 
d="M106 98l153 34v821l-153 34l20 98l235 22l58 -178q74 84 167 131t196 47q179 0 264 -93.5t85 -287.5v-594l153 -34l-20 -98h-446l-20 98l153 34v550q0 153 -49.5 229t-178.5 76q-67 0 -140.5 -33t-143.5 -96v-726l153 -34l-20 -98h-446zM628 1307l203 363l182 -10v-66
l-280 -329l-105 10v32z" />
    <glyph glyph-name="racute" unicode="&#x155;" horiz-adv-x="885" 
d="M259 953l-153 34l20 98l235 22l58 -178q48 90 112.5 134t150.5 44q41 0 80.5 -11t68.5 -31l-25 -283h-112l-26 185q-19 8 -45 8q-51 0 -102 -36.5t-82 -80.5v-726l186 -34l-20 -98h-479l-20 98l153 34v821zM401 1307l203 363l182 -10v-66l-280 -329l-105 10v32z" />
    <glyph glyph-name="sacute" unicode="&#x15b;" horiz-adv-x="970" 
d="M571 621q208 -106 263.5 -181.5t55.5 -168.5q0 -130 -114.5 -211.5t-303.5 -81.5q-102 0 -191 21t-145 49l-10 240l109 20l58 -187q39 -12 86 -17.5t95 -5.5q54 0 107.5 6.5t108.5 21.5q10 21 15 47.5t5 51.5q0 71 -64 127.5t-248 153.5q-166 87 -223 156t-57 158
q0 125 105 206t298 81q90 0 175 -18.5t146 -49.5l9 -241l-109 -20l-59 189q-40 11 -85 15.5t-83 4.5q-53 0 -103 -7.5t-92 -20.5q-9 -16 -15.5 -41.5t-6.5 -52.5q0 -54 45.5 -101.5t227.5 -142.5zM443 1307l203 363l182 -10v-66l-280 -329l-105 10v32z" />
    <glyph glyph-name="scircumflex" unicode="&#x15d;" horiz-adv-x="970" 
d="M571 621q208 -106 263.5 -181.5t55.5 -168.5q0 -130 -114.5 -211.5t-303.5 -81.5q-102 0 -191 21t-145 49l-10 240l109 20l58 -187q39 -12 86 -17.5t95 -5.5q54 0 107.5 6.5t108.5 21.5q10 21 15 47.5t5 51.5q0 71 -64 127.5t-248 153.5q-166 87 -223 156t-57 158
q0 125 105 206t298 81q90 0 175 -18.5t146 -49.5l9 -241l-109 -20l-59 189q-40 11 -85 15.5t-83 4.5q-53 0 -103 -7.5t-92 -20.5q-9 -16 -15.5 -41.5t-6.5 -52.5q0 -54 45.5 -101.5t227.5 -142.5zM825 1275l-125 -10l-193 252l-186 -252l-95 10v32l233 373l133 -10l233 -363
v-32z" />
    <glyph glyph-name="wcircumflex" unicode="&#x175;" horiz-adv-x="1733" 
d="M1747 987l-94 -18l-295 -969h-212l-258 828h-16l-251 -828h-212l-323 968l-96 19l20 98h371l20 -98l-131 -20l256 -808h16l268 926h183l273 -926h16l233 808l-134 20l20 98h326zM1208 1275l-125 -10l-193 252l-186 -252l-95 10v32l233 373l133 -10l233 -363v-32z" />
    <glyph glyph-name="ycircumflex" unicode="&#x177;" horiz-adv-x="1106" 
d="M777 1085h325l20 -98l-97 -19l-357 -966q-90 -249 -177.5 -354t-225.5 -105q-59 0 -119 15t-98 32l36 131q55 -20 129 -35.5t141 -15.5q38 26 74.5 75.5t65.5 129.5l-407 1093l-97 19l20 98h370l20 -98l-125 -19l295 -836h16l296 836l-125 19zM890 1275l-125 -10
l-193 252l-186 -252l-95 10v32l233 373l133 -10l233 -363v-32z" />
    <glyph glyph-name="zacute" unicode="&#x17a;" horiz-adv-x="967" 
d="M741 110l52 190l104 -11v-289h-805v95l593 868l-6 12h-400l-52 -190l-104 11v289h782v-83l-601 -880l6 -12h431zM447 1307l203 363l182 -10v-66l-280 -329l-105 10v32z" />
    <glyph glyph-name="wgrave" unicode="&#x1e81;" horiz-adv-x="1733" 
d="M1747 987l-94 -18l-295 -969h-212l-258 828h-16l-251 -828h-212l-323 968l-96 19l20 98h371l20 -98l-131 -20l256 -808h16l268 926h183l273 -926h16l233 808l-134 20l20 98h326zM1011 1275l-118 -10l-290 329v66l175 10l233 -363v-32z" />
    <glyph glyph-name="wacute" unicode="&#x1e83;" horiz-adv-x="1733" 
d="M1747 987l-94 -18l-295 -969h-212l-258 828h-16l-251 -828h-212l-323 968l-96 19l20 98h371l20 -98l-131 -20l256 -808h16l268 926h183l273 -926h16l233 808l-134 20l20 98h326zM826 1307l203 363l182 -10v-66l-280 -329l-105 10v32z" />
    <glyph glyph-name="wdieresis" unicode="&#x1e85;" horiz-adv-x="1733" 
d="M1747 987l-94 -18l-295 -969h-212l-258 828h-16l-251 -828h-212l-323 968l-96 19l20 98h371l20 -98l-131 -20l256 -808h16l268 926h183l273 -926h16l233 808l-134 20l20 98h326zM588 1384q0 25 7 48t19.5 40.5t28.5 27.5t34 10q26 0 49 -7t39.5 -19.5t26 -29t9.5 -34.5
q0 -25 -7 -47.5t-19 -40t-28 -27.5t-34 -10q-26 0 -49 7t-40 19.5t-26.5 28.5t-9.5 34zM988 1384q0 25 7 48t19 40.5t28 27.5t34 10q26 0 49 -7t40 -19.5t26.5 -29t9.5 -34.5q0 -25 -7 -47.5t-19.5 -40t-28.5 -27.5t-34 -10q-26 0 -49 7t-39.5 19.5t-26 28.5t-9.5 34z" />
    <glyph glyph-name="caron" unicode="&#x2c7;" horiz-adv-x="999" 
d="M200 1660l125 10l193 -252l186 252l95 -10v-32l-233 -373l-133 10l-233 363v32z" />
    <glyph glyph-name="cacute" unicode="&#x107;" horiz-adv-x="972" 
d="M96 492q0 296 126.5 455.5t349.5 159.5q76 0 152.5 -15t152.5 -48l19 -234l-110 -23l-69 179q-34 10 -70 15.5t-78 5.5q-62 0 -121.5 -15t-111.5 -45q-22 -60 -41 -159.5t-19 -215.5v-109q0 -160 93 -252.5t224 -92.5q72 0 145.5 18.5t149.5 54.5v-96q-69 -43 -158.5 -70
t-185.5 -27q-211 0 -329.5 108.5t-118.5 312.5v93zM495 1307l203 363l182 -10v-66l-280 -329l-105 10v32z" />
    <glyph glyph-name="ccaron" unicode="&#x10d;" horiz-adv-x="972" 
d="M96 492q0 296 126.5 455.5t349.5 159.5q76 0 152.5 -15t152.5 -48l19 -234l-110 -23l-69 179q-34 10 -70 15.5t-78 5.5q-62 0 -121.5 -15t-111.5 -45q-22 -60 -41 -159.5t-19 -215.5v-109q0 -160 93 -252.5t224 -92.5q72 0 145.5 18.5t149.5 54.5v-96q-69 -43 -158.5 -70
t-185.5 -27q-211 0 -329.5 108.5t-118.5 312.5v93zM281 1660l125 10l193 -252l186 252l95 -10v-32l-233 -373l-133 10l-233 363v32z" />
    <glyph glyph-name="ecaron" unicode="&#x11b;" horiz-adv-x="1034" 
d="M276 523v-76q0 -168 92.5 -258.5t220.5 -90.5q83 0 163 18t149 47v-96q-87 -46 -182.5 -67.5t-189.5 -21.5q-206 0 -319.5 112t-113.5 324v83q0 287 127.5 448.5t347.5 161.5q203 0 293 -103.5t90 -360.5v-120h-678zM336 927q-22 -56 -37.5 -136t-19.5 -148h485
q0 182 -52.5 263t-168.5 81q-59 0 -116 -18t-91 -42zM278 1660l125 10l193 -252l186 252l95 -10v-32l-233 -373l-133 10l-233 363v32z" />
    <glyph glyph-name="jcircumflex" unicode="&#x135;" horiz-adv-x="569" 
d="M412 -47q0 -119 -21.5 -198t-61.5 -126t-97 -66.5t-127 -19.5q-45 0 -83 5.5t-66 12.5q-33 8 -60 19l36 131q42 -12 87 -21q38 -8 84 -14t89 -6q11 24 20 59q8 30 14 76t6 109v1039l-183 34l20 98l343 22v-1154zM576 1275l-125 -10l-193 252l-186 -252l-95 10v32l233 373
l133 -10l233 -363v-32z" />
    <glyph glyph-name="ncaron" unicode="&#x148;" horiz-adv-x="1346" 
d="M106 98l153 34v821l-153 34l20 98l235 22l58 -178q74 84 167 131t196 47q179 0 264 -93.5t85 -287.5v-594l153 -34l-20 -98h-446l-20 98l153 34v550q0 153 -49.5 229t-178.5 76q-67 0 -140.5 -33t-143.5 -96v-726l153 -34l-20 -98h-446zM414 1660l125 10l193 -252
l186 252l95 -10v-32l-233 -373l-133 10l-233 363v32z" />
    <glyph glyph-name="rcaron" unicode="&#x159;" horiz-adv-x="885" 
d="M259 953l-153 34l20 98l235 22l58 -178q48 90 112.5 134t150.5 44q41 0 80.5 -11t68.5 -31l-25 -283h-112l-26 185q-19 8 -45 8q-51 0 -102 -36.5t-82 -80.5v-726l186 -34l-20 -98h-479l-20 98l153 34v821zM188 1660l125 10l193 -252l186 252l95 -10v-32l-233 -373
l-133 10l-233 363v32z" />
    <glyph glyph-name="scaron" unicode="&#x161;" horiz-adv-x="970" 
d="M571 621q208 -106 263.5 -181.5t55.5 -168.5q0 -130 -114.5 -211.5t-303.5 -81.5q-102 0 -191 21t-145 49l-10 240l109 20l58 -187q39 -12 86 -17.5t95 -5.5q54 0 107.5 6.5t108.5 21.5q10 21 15 47.5t5 51.5q0 71 -64 127.5t-248 153.5q-166 87 -223 156t-57 158
q0 125 105 206t298 81q90 0 175 -18.5t146 -49.5l9 -241l-109 -20l-59 189q-40 11 -85 15.5t-83 4.5q-53 0 -103 -7.5t-92 -20.5q-9 -16 -15.5 -41.5t-6.5 -52.5q0 -54 45.5 -101.5t227.5 -142.5zM229 1660l125 10l193 -252l186 252l95 -10v-32l-233 -373l-133 10l-233 363
v32z" />
    <glyph glyph-name="zcaron" unicode="&#x17e;" horiz-adv-x="967" 
d="M741 110l52 190l104 -11v-289h-805v95l593 868l-6 12h-400l-52 -190l-104 11v289h782v-83l-601 -880l6 -12h431zM233 1660l125 10l193 -252l186 252l95 -10v-32l-233 -373l-133 10l-233 363v32z" />
    <glyph glyph-name="at" unicode="@" horiz-adv-x="1860" 
d="M753 523q-22 -158 -1 -242.5t87 -84.5q37 0 72.5 19t67.5 48t60 64t49.5 67t35 56.5t17.5 32.5l64 463q-21 9 -47 16q-22 6 -51 11.5t-61 5.5q-35 0 -66 -8t-55 -17q-28 -11 -52 -25q-24 -38 -45 -93q-19 -47 -38 -115.5t-32 -161.5zM1436 -165q-71 -41 -156 -73
q-73 -27 -170.5 -49.5t-209.5 -22.5q-109 0 -207.5 14t-183 45.5t-153 82.5t-116.5 124.5t-74 171t-26 222.5q0 151 32.5 285.5t92.5 248.5t145.5 205t191 154.5t229 97.5t259.5 34q168 0 300 -45t223 -127t139 -197.5t48 -255.5q0 -123 -22.5 -217.5t-60.5 -165.5t-87 -120
t-102 -80t-106 -46.5t-98 -18.5l-146 -14l-81 78l26 190q-6 -11 -20.5 -35t-37.5 -54t-53 -61.5t-66 -57.5t-77.5 -43t-87.5 -17q-65 0 -111.5 19t-75 60.5t-37 107.5t3.5 160l12 93q15 112 53 209.5t98 170t142.5 114t185.5 41.5q61 0 121 -12.5t109 -26.5q56 -18 109 -39
l-112 -796q35 2 73.5 13t76.5 34t72.5 60.5t61 94.5t42 135.5t15.5 183.5q0 130 -33 231.5t-102 171.5t-174.5 106t-250.5 36q-106 0 -202.5 -31.5t-178.5 -89t-148.5 -137.5t-113.5 -177.5t-72 -209t-25 -230.5q0 -163 50 -272.5t134.5 -175.5t197 -94t238.5 -28
q105 0 195 17t157 38q78 25 144 56v-86z" />
    <glyph glyph-name="ygrave" unicode="&#x1ef3;" horiz-adv-x="1106" 
d="M777 1085h325l20 -98l-97 -19l-357 -966q-90 -249 -177.5 -354t-225.5 -105q-59 0 -119 15t-98 32l36 131q55 -20 129 -35.5t141 -15.5q38 26 74.5 75.5t65.5 129.5l-407 1093l-97 19l20 98h370l20 -98l-125 -19l295 -836h16l296 836l-125 19zM693 1275l-118 -10
l-290 329v66l175 10l233 -363v-32z" />
    <glyph glyph-name="question" unicode="?" horiz-adv-x="1019" 
d="M546 758q-62 -56 -90.5 -97.5t-28.5 -84.5q0 -39 24 -59.5t68 -20.5q28 0 53.5 4.5t44.5 10.5q22 7 41 16v-101q-22 -14 -50 -25q-24 -10 -57.5 -17.5t-75.5 -7.5q-45 0 -86.5 12t-73 37t-50 62t-18.5 88q0 36 9 71t30 71.5t54.5 75.5t82.5 84l152 140q45 42 76.5 74.5
t51 62t28 58t8.5 61.5q0 35 -14 65.5t-44.5 53.5t-79 36.5t-118.5 13.5q-44 0 -77.5 -5t-56.5 -11q-27 -7 -47 -16l-70 -225l-112 17v277q46 23 106 41q51 16 122.5 29t161.5 13q98 0 174.5 -18.5t128.5 -54.5t79 -88t27 -119q0 -57 -11 -103t-37 -89.5t-68.5 -89.5
t-105.5 -104zM296 79q0 34 8 65.5t21.5 55t32 37.5t39.5 14q36 0 67 -8t54.5 -22.5t36.5 -33t13 -39.5q0 -34 -8 -64.5t-21.5 -54t-32.5 -37.5t-40 -14q-36 0 -67 8t-54 21.5t-36 32t-13 39.5z" />
    <glyph glyph-name="questiondown" unicode="&#xbf;" horiz-adv-x="979" 
d="M473 327q62 56 90.5 100t28.5 88q0 38 -24 56t-68 18q-29 0 -54 -5t-44 -11q-22 -7 -41 -15v101q22 14 50 25q24 9 57.5 17t75.5 8q45 0 86 -12t72.5 -36t50.5 -60.5t19 -84.5q0 -39 -9 -75t-30 -72.5t-54.5 -76t-82.5 -84.5l-152 -140q-45 -42 -76.5 -76t-51 -64
t-28 -58t-8.5 -58q0 -31 14 -58t44.5 -47.5t79 -32t118.5 -11.5q44 0 77 4.5t56 9.5q26 6 47 14l71 229l112 -17v-277q-46 -24 -106 -42q-51 -16 -123 -28.5t-161 -12.5q-198 0 -303.5 69t-105.5 204q0 52 13 97.5t40 89t69 88.5t100 98zM723 1006q0 -35 -8 -66t-21.5 -54.5
t-32 -37.5t-39.5 -14q-36 0 -67 8t-54.5 22.5t-36.5 33t-13 39.5q0 34 8 64.5t21.5 54t32.5 37.5t40 14q36 0 67 -8t54 -21.5t36 -32t13 -39.5z" />
    <glyph glyph-name="quotesingle" unicode="'" horiz-adv-x="346" 
d="M70 1540h186v-42l-63 -341h-123v383z" />
    <glyph glyph-name="quotedbl" unicode="&#x22;" horiz-adv-x="604" 
d="M70 1540h186v-42l-63 -341h-123v383zM328 1540h186v-42l-63 -341h-123v383z" />
    <glyph glyph-name="quotesinglbase" unicode="&#x201a;" horiz-adv-x="472" 
d="M120 72q0 32 7.5 60.5t20 50.5t29.5 34.5t36 12.5q36 0 74.5 -11t63.5 -37q16 -17 28.5 -50t12.5 -97q0 -46 -7 -89t-28 -88t-59.5 -92.5t-102.5 -102.5l-62 73q79 66 109 116.5t30 88.5q0 18 -14.5 28t-36.5 16q-45 11 -73 34.5t-28 52.5z" />
    <glyph glyph-name="quoteright" unicode="&#x2019;" horiz-adv-x="386" 
d="M48 1404q0 32 7.5 60.5t20 50.5t29.5 34.5t36 12.5q36 0 74.5 -11t63.5 -37q16 -17 28.5 -50t12.5 -97q0 -46 -7 -89t-28 -88t-59.5 -92.5t-102.5 -102.5l-62 73q79 66 109 116.5t30 88.5q0 18 -14.5 28t-36.5 16q-45 11 -73 34.5t-28 52.5z" />
    <glyph glyph-name="quoteleft" unicode="&#x2018;" horiz-adv-x="472" 
d="M332 1153q0 -32 -7.5 -60.5t-20 -50.5t-29.5 -34.5t-36 -12.5q-36 0 -74.5 11t-63.5 37q-8 9 -15.5 21t-13 29t-9 41t-3.5 56q0 46 7 89t28 88t59.5 92.5t102.5 102.5l62 -73q-79 -66 -109 -116.5t-30 -88.5q0 -18 14.5 -28t36.5 -16q45 -11 73 -34.5t28 -52.5z" />
    <glyph glyph-name="quotedblright" unicode="&#x201d;" horiz-adv-x="736" 
d="M48 1404q0 32 7.5 60.5t20 50.5t29.5 34.5t36 12.5q36 0 74.5 -11t63.5 -37q16 -17 28.5 -50t12.5 -97q0 -46 -7 -89t-28 -88t-59.5 -92.5t-102.5 -102.5l-62 73q79 66 109 116.5t30 88.5q0 18 -14.5 28t-36.5 16q-45 11 -73 34.5t-28 52.5zM398 1404q0 32 7.5 60.5
t20 50.5t29.5 34.5t36 12.5q36 0 74.5 -11t63.5 -37q16 -17 28.5 -50t12.5 -97q0 -46 -7 -89t-28 -88t-59.5 -92.5t-102.5 -102.5l-62 73q79 66 109 116.5t30 88.5q0 18 -14.5 28t-36.5 16q-45 11 -73 34.5t-28 52.5z" />
    <glyph glyph-name="quotedblleft" unicode="&#x201c;" horiz-adv-x="822" 
d="M332 1153q0 -32 -7.5 -60.5t-20 -50.5t-29.5 -34.5t-36 -12.5q-36 0 -74.5 11t-63.5 37q-8 9 -15.5 21t-13 29t-9 41t-3.5 56q0 46 7 89t28 88t59.5 92.5t102.5 102.5l62 -73q-79 -66 -109 -116.5t-30 -88.5q0 -18 14.5 -28t36.5 -16q45 -11 73 -34.5t28 -52.5zM682 1153
q0 -32 -7.5 -60.5t-20 -50.5t-29.5 -34.5t-36 -12.5q-36 0 -74.5 11t-63.5 37q-8 9 -15.5 21t-13 29t-9 41t-3.5 56q0 46 7 89t28 88t59.5 92.5t102.5 102.5l62 -73q-79 -66 -109 -116.5t-30 -88.5q0 -18 14.5 -28t36.5 -16q45 -11 73 -34.5t28 -52.5z" />
    <glyph glyph-name="quotedblbase" unicode="&#x201e;" horiz-adv-x="823" 
d="M120 72q0 32 7.5 60.5t20 50.5t29.5 34.5t36 12.5q36 0 74.5 -11t63.5 -37q16 -17 28.5 -50t12.5 -97q0 -46 -7 -89t-28 -88t-59.5 -92.5t-102.5 -102.5l-62 73q79 66 109 116.5t30 88.5q0 18 -14.5 28t-36.5 16q-45 11 -73 34.5t-28 52.5zM471 72q0 32 7.5 60.5t20 50.5
t29.5 34.5t36 12.5q36 0 74.5 -11t63.5 -37q16 -17 28.5 -50t12.5 -97q0 -46 -7 -89t-28 -88t-59.5 -92.5t-102.5 -102.5l-62 73q79 66 109 116.5t30 88.5q0 18 -14.5 28t-36.5 16q-45 11 -73 34.5t-28 52.5z" />
    <glyph glyph-name="hyphen" unicode="-" horiz-adv-x="803" 
d="M60 667h693v-147h-693v147z" />
    <glyph glyph-name="section" unicode="&#xa7;" horiz-adv-x="1169" 
d="M696 980q84 -45 151 -87.5t114.5 -89t72.5 -100t25 -120.5q0 -87 -41.5 -149.5t-106.5 -106.5q39 -39 59 -83t20 -100q0 -71 -27 -122.5t-79 -84.5t-128.5 -49t-174.5 -16q-85 0 -152 10.5t-115 24.5q-55 15 -98 35l22 260h110l25 -187q23 -7 54 -12q26 -5 63 -8t84 -3
q52 0 95 4.5t75 9.5q37 6 66 15q6 12 10 27q4 13 7 31t3 40q0 32 -21 62.5t-67 65t-119 75.5t-176 93q-75 38 -134 75.5t-99.5 80t-62 92.5t-21.5 114q0 89 41 154t104 113q-32 34 -49 72.5t-17 86.5q0 58 20 109t67 89t125.5 60.5t195.5 22.5q80 0 142.5 -10.5t105.5 -23.5
q50 -15 88 -34l-24 -260h-111l-24 187q-22 6 -49 10q-23 4 -54.5 7.5t-69.5 3.5q-54 0 -96 -4t-72 -9q-35 -6 -62 -13q-7 -11 -11 -26q-5 -13 -8 -30.5t-3 -39.5q0 -32 17 -58.5t55.5 -55.5t101 -64zM565 545l142 -77t114 -69q38 32 58 72t20 91q0 41 -18.5 74.5t-57.5 65.5
t-99.5 67.5t-144.5 80.5l-119.5 65t-99.5 60q-38 -35 -54 -72.5t-16 -90.5q0 -38 14 -69t46 -61.5t85 -63t130 -73.5z" />
    <glyph glyph-name="slash" unicode="/" horiz-adv-x="833" 
d="M628 1540h165v-20l-568 -1815h-165v20z" />
    <glyph glyph-name="backslash" unicode="\" horiz-adv-x="833" 
d="M773 -275v-20h-165l-568 1815v20h165z" />
    <glyph glyph-name="bracketleft" unicode="[" horiz-adv-x="634" 
d="M180 1677h358v-96h-191v-1942h191v-96h-358v2134z" />
    <glyph glyph-name="bracketright" unicode="]" horiz-adv-x="634" 
d="M454 -457h-358v96h191v1942h-191v96h358v-2134z" />
    <glyph glyph-name="underscore" unicode="_" horiz-adv-x="1116" 
d="M60 -235h1036v-144h-1036v144z" />
    <glyph glyph-name="exclam" unicode="!" horiz-adv-x="592" 
d="M180 79q0 34 8 65.5t21.5 55t32 37.5t39.5 14q36 0 67 -8t54.5 -22.5t36.5 -33t13 -39.5q0 -34 -8 -64.5t-21.5 -54t-32.5 -37.5t-40 -14q-36 0 -67 8t-54 21.5t-36 32t-13 39.5zM213 1540l197 22l20 -22l-38 -1170h-141z" />
    <glyph glyph-name="exclamdown" unicode="&#xa1;" horiz-adv-x="572" 
d="M412 1006q0 -35 -8 -66t-21.5 -54.5t-32 -37.5t-39.5 -14q-36 0 -67 8t-54.5 22.5t-36.5 33t-13 39.5q0 34 8 64.5t21.5 54t32.5 37.5t40 14q36 0 67 -8t54 -21.5t36 -32t13 -39.5zM378 -435l-195 -22l-20 22l37 1150h141z" />
    <glyph glyph-name="asterisk" unicode="*" horiz-adv-x="780" 
d="M428 1103l31 -277v-24h-153v24l31 277l-225 -165l-21 -12l-75 132l20 12l254 112l-255 112l-20 12l76 132l21 -12l225 -165l-31 277v24h153v-24l-31 -277l225 165l21 12l75 -132l-20 -12l-255 -112l256 -112l20 -12l-76 -132l-21 12z" />
    <glyph glyph-name="periodcentered" unicode="&#xb7;" horiz-adv-x="584" 
d="M180 654q0 31 7 59t19.5 49t29 33.5t34.5 12.5q33 0 61 -7t48.5 -19.5t32.5 -29.5t12 -36q0 -30 -7 -58t-19.5 -49t-29 -33.5t-35.5 -12.5q-32 0 -60 7t-48.5 19.5t-32.5 29t-12 35.5z" />
    <glyph glyph-name="ampersand" unicode="&#x26;" horiz-adv-x="1439" 
d="M1215 519q0 -88 -32 -168t-92 -149q65 -45 125 -70t114 -25q45 0 84.5 5t68.5 12q34 7 63 17v-96q-27 -19 -64 -34q-32 -13 -77.5 -23t-105.5 -10q-81 0 -163 31.5t-167 88.5q-87 -57 -198 -88.5t-245 -31.5q-104 0 -187.5 17.5t-141.5 53.5t-89 92t-31 133v30
q0 66 25 123.5t66 106.5t93 89.5t107 71.5q-68 97 -106.5 172t-38.5 132v30q0 69 28.5 131.5t84 110.5t136.5 76t186 28q81 0 142.5 -19t103.5 -54t63 -85t21 -112v-29q0 -57 -26 -107t-75.5 -97.5t-121.5 -95t-164 -100.5q86 -102 181 -202.5t192 -182.5q34 48 52.5 107
t18.5 128v26l-153 34l20 98l303 22v-187zM546 107q91 0 169 19.5t141 56.5q-102 85 -203 191.5t-202 224.5q-52 -31 -87.5 -61.5t-57 -63.5t-30.5 -69t-9 -77v-16q0 -48 22.5 -86t60.5 -64.5t89 -40.5t107 -14zM798 1069q0 43 -14.5 76t-40 55.5t-60.5 34t-77 11.5
q-31 0 -56.5 -3t-45.5 -7q-23 -4 -41 -10q-14 -21 -25 -47q-10 -22 -17.5 -51.5t-7.5 -63.5v-17q0 -39 6 -71t19.5 -63t35 -64t51.5 -74q57 31 107 64.5t86.5 68.5t58 71.5t21.5 73.5v16z" />
    <glyph glyph-name="bullet" unicode="&#x2022;" horiz-adv-x="740" 
d="M140 583q0 59 14 113t37.5 95t55.5 65t68 24q62 0 116 -14t93.5 -38t62.5 -56t23 -69q0 -59 -14 -112t-38 -93.5t-56 -64.5t-68 -24q-62 0 -115.5 14t-93.5 37.5t-62.5 55t-22.5 67.5z" />
    <glyph glyph-name="cedilla" unicode="&#xb8;" horiz-adv-x="818" 
d="M475 37l-49 -135q42 -11 77 -25t60.5 -34.5t40 -49t14.5 -68.5t-15.5 -73.5t-45 -57.5t-72 -37.5t-95.5 -13.5q-40 0 -74 7t-60 16q-30 11 -56 24v93q27 -11 57 -20q26 -8 58 -14t65 -6q20 0 35.5 2t26.5 4q12 3 21 7l7 17q2 8 4.5 19t2.5 23q0 39 -38.5 64t-122.5 45
l-34 55l61 158h132z" />
    <glyph glyph-name="ccedilla" unicode="&#xe7;" horiz-adv-x="972" 
d="M96 492q0 296 126.5 455.5t349.5 159.5q76 0 152.5 -15t152.5 -48l19 -234l-110 -23l-69 179q-34 10 -70 15.5t-78 5.5q-62 0 -121.5 -15t-111.5 -45q-22 -60 -41 -159.5t-19 -215.5v-109q0 -160 93 -252.5t224 -92.5q72 0 145.5 18.5t149.5 54.5v-96q-69 -43 -159 -70
q-60 -18 -123 -24l-28 -79q42 -11 77 -25t60.5 -34.5t40 -49t14.5 -68.5t-15.5 -73.5t-45 -57.5t-72 -37.5t-95.5 -13.5q-40 0 -74 7t-60 16q-30 11 -56 24v93q27 -11 57 -20q26 -8 58 -14t65 -6q20 0 35.5 2t26.5 4q12 3 21 7l7 17q2 8 4.5 19t2.5 23q0 39 -38.5 64
t-122.5 45l-34 55l39 103q-161 15 -259 104q-118 109 -118 313v93z" />
    <glyph glyph-name="Ccedilla" unicode="&#xc7;" horiz-adv-x="1176" 
d="M100 604q0 381 154 576t451 195q95 0 192 -15t171 -44l21 -270l-105 -22l-83 195q-38 12 -97 19.5t-126 7.5q-86 0 -163.5 -23t-135.5 -65q-40 -92 -64.5 -220t-24.5 -255v-133q0 -214 117.5 -328.5t315.5 -114.5q94 0 192.5 29.5t176.5 74.5v-106q-93 -60 -206 -94
q-83 -24 -165 -30l-28 -79q42 -11 77 -25t60.5 -34.5t40 -49t14.5 -68.5t-15.5 -73.5t-45 -57.5t-72 -37.5t-95.5 -13.5q-40 0 -74 7t-60 16q-30 11 -56 24v93q27 -11 57 -20q26 -8 58 -14t65 -6q20 0 35.5 2t26.5 4q12 3 21 7l7 17q2 8 4.5 19t2.5 23q0 39 -38.5 64
t-122.5 45l-34 55l39 102q-223 16 -346 131q-142 134 -142 403v89z" />
    <glyph glyph-name="AE" unicode="&#xc6;" horiz-adv-x="1782" 
d="M-12 98l130 31l638 1224h868l24 -300l-103 -22l-83 193h-452v-452h357l34 122l99 -20v-334l-99 -20l-34 123h-357v-514h481l83 193l104 -23l-24 -299h-967l-20 98l153 34v274h-392l-144 -281l108 -27l-20 -98h-364zM820 535v634l-326 -634h326z" />
    <glyph glyph-name="OE" unicode="&#x152;" horiz-adv-x="1801" 
d="M1386 772l34 122l99 -20v-334l-99 -20l-34 123h-357v-514h481l83 193l104 -23l-24 -299h-830q-81 -22 -180 -22q-279 0 -420 137.5t-141 409.5v79q0 188 35.5 332t107.5 241.5t181 147.5t257 50q55 0 104.5 -5.5t94.5 -16.5h761l24 -300l-103 -22l-83 193h-452v-452h357z
M653 1246q-66 0 -120 -13.5t-92 -30.5q-45 -19 -80 -44q-20 -58 -35 -129q-13 -61 -23.5 -144t-10.5 -182v-133q0 -120 33 -207.5t88 -144.5t127.5 -84t152.5 -27q42 0 78 5.5t68 14.5v1084q-42 18 -88.5 26.5t-97.5 8.5z" />
    <glyph glyph-name="grave.case" 
d="M575 1471l-115 -11l-375 248v66l192 10l298 -281v-32z" />
    <glyph glyph-name="dieresis.case" 
d="M-61 1581q0 25 7 48t19.5 40.5t28.5 27.5t34 10q26 0 49 -7t39.5 -19t26 -28.5t9.5 -35.5q0 -25 -7 -47.5t-19 -40t-28 -27.5t-34 -10q-26 0 -49 7t-40 19.5t-26.5 28.5t-9.5 34zM399 1581q0 25 7 48t19 40.5t28 27.5t34 10q26 0 49 -7t40 -19t26.5 -28.5t9.5 -35.5
q0 -25 -7 -47.5t-19.5 -40t-28.5 -27.5t-34 -10q-26 0 -49 7t-39.5 19.5t-26 28.5t-9.5 34z" />
    <glyph glyph-name="acute.case" 
d="M85 1503l298 281l192 -10v-66l-375 -248l-115 11v32z" />
    <glyph glyph-name="circumflex.case" 
d="M626 1470l-125 -10l-238 192l-231 -192l-95 10v32l283 292l133 -10l273 -282v-32z" />
    <glyph glyph-name="caron.case" 
d="M-63 1784l125 10l238 -192l231 192l95 -10v-32l-283 -292l-133 10l-273 282v32z" />
    <glyph glyph-name="tilde.case" 
d="M-132 1520q0 113 58.5 171t161.5 58q54 0 109.5 -20.5t106 -45.5l93.5 -45.5t72 -20.5q38 0 60.5 29.5t22.5 90.5l117 10v-47q0 -106 -53.5 -167.5t-154.5 -61.5q-49 0 -106.5 20.5t-113 45.5l-102.5 45.5t-75 20.5q-20 0 -36.5 -4t-27.5 -15t-17 -30t-6 -49l-109 -10v25
z" />
    <glyph glyph-name="Ntilde" unicode="&#xd1;" horiz-adv-x="1532" 
d="M225 1221l-153 34l20 98h420l655 -1217h16v1085l-154 34l20 98h407l20 -98l-152 -34v-1221h-287l-656 1218h-16v-1086l152 -34l-20 -98h-405l-20 98l153 34v1089zM374 1520q0 113 58.5 171t161.5 58q54 0 109.5 -20.5t106 -45.5l93.5 -45.5t72 -20.5q38 0 60.5 29.5
t22.5 90.5l117 10v-47q0 -106 -53.5 -167.5t-154.5 -61.5q-49 0 -106.5 20.5t-113 45.5l-102.5 45.5t-75 20.5q-20 0 -36.5 -4t-27.5 -15t-17 -30t-6 -49l-109 -10v25z" />
    <glyph glyph-name="Aacute" unicode="&#xc1;" horiz-adv-x="1218" 
d="M-8 98l108 29l440 1226h149l429 -1226l108 -29l-20 -98h-385l-20 98l128 29l-94 279h-491l-96 -279l128 -29l-20 -98h-344zM389 535h402l-194 569h-10zM472 1503l298 281l192 -10v-66l-375 -248l-115 11v32z" />
    <glyph glyph-name="Eacute" unicode="&#xc9;" horiz-adv-x="1191" 
d="M419 643v-514h481l83 193l104 -23l-24 -299h-967l-20 98l153 34v1089l-153 34l20 98h937l24 -300l-103 -22l-83 193h-452v-452h357l34 122l99 -20v-334l-99 -20l-34 123h-357zM447 1503l298 281l192 -10v-66l-375 -248l-115 11v32z" />
    <glyph glyph-name="Iacute" unicode="&#xcd;" horiz-adv-x="643" 
d="M225 1221l-153 34l20 98h455l20 -98l-152 -34v-1089l152 -34l-20 -98h-455l-20 98l153 34v1089zM176 1503l298 281l192 -10v-66l-375 -248l-115 11v32z" />
    <glyph glyph-name="Oacute" unicode="&#xd3;" horiz-adv-x="1345" 
d="M663 -22q-279 0 -420 137.5t-141 409.5v79q0 389 148 580t433 191q278 0 419 -136.5t141 -411.5v-78q0 -377 -144 -574t-436 -197zM1053 783q0 236 -104.5 349.5t-295.5 113.5q-89 0 -168 -27.5t-124 -60.5q-30 -92 -49.5 -206.5t-19.5 -248.5v-133q0 -221 112.5 -342
t288.5 -121q88 0 165.5 26.5t126.5 62.5q32 100 50 220t18 234v133zM522 1503l298 281l192 -10v-66l-375 -248l-115 11v32z" />
    <glyph glyph-name="Uacute" unicode="&#xda;" horiz-adv-x="1358" 
d="M360 546q0 -223 94 -331t259 -108q79 0 148 23t110 53q34 62 56 150t22 188v700l-153 34l20 98h406l20 -98l-152 -34v-677q0 -291 -127 -428.5t-390 -137.5q-249 0 -376 124.5t-127 388.5v730l-154 34l20 98h456l20 -98l-152 -34v-675zM564 1503l298 281l192 -10v-66
l-375 -248l-115 11v32z" />
    <glyph glyph-name="Acircumflex" unicode="&#xc2;" horiz-adv-x="1218" 
d="M-8 98l108 29l440 1226h149l429 -1226l108 -29l-20 -98h-385l-20 98l128 29l-94 279h-491l-96 -279l128 -29l-20 -98h-344zM389 535h402l-194 569h-10zM970 1470l-125 -10l-238 192l-231 -192l-95 10v32l283 292l133 -10l273 -282v-32z" />
    <glyph glyph-name="Atilde" unicode="&#xc3;" horiz-adv-x="1218" 
d="M-8 98l108 29l440 1226h149l429 -1226l108 -29l-20 -98h-385l-20 98l128 29l-94 279h-491l-96 -279l128 -29l-20 -98h-344zM389 535h402l-194 569h-10zM214 1520q0 113 58.5 171t161.5 58q54 0 109.5 -20.5t106 -45.5l93.5 -45.5t72 -20.5q38 0 60.5 29.5t22.5 90.5
l117 10v-47q0 -106 -53.5 -167.5t-154.5 -61.5q-49 0 -106.5 20.5t-113 45.5l-102.5 45.5t-75 20.5q-20 0 -36.5 -4t-27.5 -15t-17 -30t-6 -49l-109 -10v25z" />
    <glyph glyph-name="Adieresis" unicode="&#xc4;" horiz-adv-x="1218" 
d="M-8 98l108 29l440 1226h149l429 -1226l108 -29l-20 -98h-385l-20 98l128 29l-94 279h-491l-96 -279l128 -29l-20 -98h-344zM389 535h402l-194 569h-10zM277 1581q0 25 7 48t19.5 40.5t28.5 27.5t34 10q26 0 49 -7t39.5 -19t26 -28.5t9.5 -35.5q0 -25 -7 -47.5t-19 -40
t-28 -27.5t-34 -10q-26 0 -49 7t-40 19.5t-26.5 28.5t-9.5 34zM737 1581q0 25 7 48t19 40.5t28 27.5t34 10q26 0 49 -7t40 -19t26.5 -28.5t9.5 -35.5q0 -25 -7 -47.5t-19.5 -40t-28.5 -27.5t-34 -10q-26 0 -49 7t-39.5 19.5t-26 28.5t-9.5 34z" />
    <glyph glyph-name="Egrave" unicode="&#xc8;" horiz-adv-x="1191" 
d="M419 643v-514h481l83 193l104 -23l-24 -299h-967l-20 98l153 34v1089l-153 34l20 98h937l24 -300l-103 -22l-83 193h-452v-452h357l34 122l99 -20v-334l-99 -20l-34 123h-357zM769 1471l-115 -11l-375 248v66l192 10l298 -281v-32z" />
    <glyph glyph-name="Ecircumflex" unicode="&#xca;" horiz-adv-x="1191" 
d="M419 643v-514h481l83 193l104 -23l-24 -299h-967l-20 98l153 34v1089l-153 34l20 98h937l24 -300l-103 -22l-83 193h-452v-452h357l34 122l99 -20v-334l-99 -20l-34 123h-357zM945 1470l-125 -10l-238 192l-231 -192l-95 10v32l283 292l133 -10l273 -282v-32z" />
    <glyph glyph-name="Edieresis" unicode="&#xcb;" horiz-adv-x="1191" 
d="M419 643v-514h481l83 193l104 -23l-24 -299h-967l-20 98l153 34v1089l-153 34l20 98h937l24 -300l-103 -22l-83 193h-452v-452h357l34 122l99 -20v-334l-99 -20l-34 123h-357zM252 1581q0 25 7 48t19.5 40.5t28.5 27.5t34 10q26 0 49 -7t39.5 -19t26 -28.5t9.5 -35.5
q0 -25 -7 -47.5t-19 -40t-28 -27.5t-34 -10q-26 0 -49 7t-40 19.5t-26.5 28.5t-9.5 34zM712 1581q0 25 7 48t19 40.5t28 27.5t34 10q26 0 49 -7t40 -19t26.5 -28.5t9.5 -35.5q0 -25 -7 -47.5t-19.5 -40t-28.5 -27.5t-34 -10q-26 0 -49 7t-39.5 19.5t-26 28.5t-9.5 34z" />
    <glyph glyph-name="Igrave" unicode="&#xcc;" horiz-adv-x="643" 
d="M225 1221l-153 34l20 98h455l20 -98l-152 -34v-1089l152 -34l-20 -98h-455l-20 98l153 34v1089zM499 1471l-115 -11l-375 248v66l192 10l298 -281v-32z" />
    <glyph glyph-name="Icircumflex" unicode="&#xce;" horiz-adv-x="643" 
d="M225 1221l-153 34l20 98h455l20 -98l-152 -34v-1089l152 -34l-20 -98h-455l-20 98l153 34v1089zM674 1470l-125 -10l-238 192l-231 -192l-95 10v32l283 292l133 -10l273 -282v-32z" />
    <glyph glyph-name="Idieresis" unicode="&#xcf;" horiz-adv-x="643" 
d="M225 1221l-153 34l20 98h455l20 -98l-152 -34v-1089l152 -34l-20 -98h-455l-20 98l153 34v1089zM-19 1581q0 25 7 48t19.5 40.5t28.5 27.5t34 10q26 0 49 -7t39.5 -19t26 -28.5t9.5 -35.5q0 -25 -7 -47.5t-19 -40t-28 -27.5t-34 -10q-26 0 -49 7t-40 19.5t-26.5 28.5
t-9.5 34zM441 1581q0 25 7 48t19 40.5t28 27.5t34 10q26 0 49 -7t40 -19t26.5 -28.5t9.5 -35.5q0 -25 -7 -47.5t-19.5 -40t-28.5 -27.5t-34 -10q-26 0 -49 7t-39.5 19.5t-26 28.5t-9.5 34z" />
    <glyph glyph-name="Ograve" unicode="&#xd2;" horiz-adv-x="1345" 
d="M663 -22q-279 0 -420 137.5t-141 409.5v79q0 389 148 580t433 191q278 0 419 -136.5t141 -411.5v-78q0 -377 -144 -574t-436 -197zM1053 783q0 236 -104.5 349.5t-295.5 113.5q-89 0 -168 -27.5t-124 -60.5q-30 -92 -49.5 -206.5t-19.5 -248.5v-133q0 -221 112.5 -342
t288.5 -121q88 0 165.5 26.5t126.5 62.5q32 100 50 220t18 234v133zM844 1471l-115 -11l-375 248v66l192 10l298 -281v-32z" />
    <glyph glyph-name="Ocircumflex" unicode="&#xd4;" horiz-adv-x="1345" 
d="M663 -22q-279 0 -420 137.5t-141 409.5v79q0 389 148 580t433 191q278 0 419 -136.5t141 -411.5v-78q0 -377 -144 -574t-436 -197zM1053 783q0 236 -104.5 349.5t-295.5 113.5q-89 0 -168 -27.5t-124 -60.5q-30 -92 -49.5 -206.5t-19.5 -248.5v-133q0 -221 112.5 -342
t288.5 -121q88 0 165.5 26.5t126.5 62.5q32 100 50 220t18 234v133zM1020 1470l-125 -10l-238 192l-231 -192l-95 10v32l283 292l133 -10l273 -282v-32z" />
    <glyph glyph-name="Otilde" unicode="&#xd5;" horiz-adv-x="1345" 
d="M663 -22q-279 0 -420 137.5t-141 409.5v79q0 389 148 580t433 191q278 0 419 -136.5t141 -411.5v-78q0 -377 -144 -574t-436 -197zM1053 783q0 236 -104.5 349.5t-295.5 113.5q-89 0 -168 -27.5t-124 -60.5q-30 -92 -49.5 -206.5t-19.5 -248.5v-133q0 -221 112.5 -342
t288.5 -121q88 0 165.5 26.5t126.5 62.5q32 100 50 220t18 234v133zM253 1520q0 113 58.5 171t161.5 58q54 0 109.5 -20.5t106 -45.5l93.5 -45.5t72 -20.5q38 0 60.5 29.5t22.5 90.5l117 10v-47q0 -106 -53.5 -167.5t-154.5 -61.5q-49 0 -106.5 20.5t-113 45.5l-102.5 45.5
t-75 20.5q-20 0 -36.5 -4t-27.5 -15t-17 -30t-6 -49l-109 -10v25z" />
    <glyph glyph-name="Odieresis" unicode="&#xd6;" horiz-adv-x="1345" 
d="M663 -22q-279 0 -420 137.5t-141 409.5v79q0 389 148 580t433 191q278 0 419 -136.5t141 -411.5v-78q0 -377 -144 -574t-436 -197zM1053 783q0 236 -104.5 349.5t-295.5 113.5q-89 0 -168 -27.5t-124 -60.5q-30 -92 -49.5 -206.5t-19.5 -248.5v-133q0 -221 112.5 -342
t288.5 -121q88 0 165.5 26.5t126.5 62.5q32 100 50 220t18 234v133zM327 1581q0 25 7 48t19.5 40.5t28.5 27.5t34 10q26 0 49 -7t39.5 -19t26 -28.5t9.5 -35.5q0 -25 -7 -47.5t-19 -40t-28 -27.5t-34 -10q-26 0 -49 7t-40 19.5t-26.5 28.5t-9.5 34zM787 1581q0 25 7 48
t19 40.5t28 27.5t34 10q26 0 49 -7t40 -19t26.5 -28.5t9.5 -35.5q0 -25 -7 -47.5t-19.5 -40t-28.5 -27.5t-34 -10q-26 0 -49 7t-39.5 19.5t-26 28.5t-9.5 34z" />
    <glyph glyph-name="Ugrave" unicode="&#xd9;" horiz-adv-x="1358" 
d="M360 546q0 -223 94 -331t259 -108q79 0 148 23t110 53q34 62 56 150t22 188v700l-153 34l20 98h406l20 -98l-152 -34v-677q0 -291 -127 -428.5t-390 -137.5q-249 0 -376 124.5t-127 388.5v730l-154 34l20 98h456l20 -98l-152 -34v-675zM886 1471l-115 -11l-375 248v66
l192 10l298 -281v-32z" />
    <glyph glyph-name="Ucircumflex" unicode="&#xdb;" horiz-adv-x="1358" 
d="M360 546q0 -223 94 -331t259 -108q79 0 148 23t110 53q34 62 56 150t22 188v700l-153 34l20 98h406l20 -98l-152 -34v-677q0 -291 -127 -428.5t-390 -137.5q-249 0 -376 124.5t-127 388.5v730l-154 34l20 98h456l20 -98l-152 -34v-675zM1062 1470l-125 -10l-238 192
l-231 -192l-95 10v32l283 292l133 -10l273 -282v-32z" />
    <glyph glyph-name="Udieresis" unicode="&#xdc;" horiz-adv-x="1358" 
d="M360 546q0 -223 94 -331t259 -108q79 0 148 23t110 53q34 62 56 150t22 188v700l-153 34l20 98h406l20 -98l-152 -34v-677q0 -291 -127 -428.5t-390 -137.5q-249 0 -376 124.5t-127 388.5v730l-154 34l20 98h456l20 -98l-152 -34v-675zM369 1581q0 25 7 48t19.5 40.5
t28.5 27.5t34 10q26 0 49 -7t39.5 -19t26 -28.5t9.5 -35.5q0 -25 -7 -47.5t-19 -40t-28 -27.5t-34 -10q-26 0 -49 7t-40 19.5t-26.5 28.5t-9.5 34zM829 1581q0 25 7 48t19 40.5t28 27.5t34 10q26 0 49 -7t40 -19t26.5 -28.5t9.5 -35.5q0 -25 -7 -47.5t-19.5 -40t-28.5 -27.5
t-34 -10q-26 0 -49 7t-39.5 19.5t-26 28.5t-9.5 34z" />
    <glyph glyph-name="Yacute" unicode="&#xdd;" horiz-adv-x="1122" 
d="M478 578l-416 648l-114 28l20 99h410l20 -99l-132 -28l321 -504h16l304 504l-125 28l20 99h352l20 -99l-111 -28l-395 -650v-444l152 -34l-20 -98h-455l-20 98l153 34v446zM453 1503l298 281l192 -10v-66l-375 -248l-115 11v32z" />
    <glyph glyph-name="Agrave" unicode="&#xc0;" horiz-adv-x="1218" 
d="M-8 98l108 29l440 1226h149l429 -1226l108 -29l-20 -98h-385l-20 98l128 29l-94 279h-491l-96 -279l128 -29l-20 -98h-344zM389 535h402l-194 569h-10zM794 1471l-115 -11l-375 248v66l192 10l298 -281v-32z" />
    <glyph glyph-name="Cacute" unicode="&#x106;" horiz-adv-x="1176" 
d="M100 604q0 381 154 576t451 195q95 0 192 -15t171 -44l21 -270l-105 -22l-83 195q-38 12 -97 19.5t-126 7.5q-86 0 -163.5 -23t-135.5 -65q-40 -92 -64.5 -220t-24.5 -255v-133q0 -214 117.5 -328.5t315.5 -114.5q94 0 192.5 29.5t176.5 74.5v-106q-93 -60 -206 -93.5
t-223 -33.5q-278 0 -420.5 134t-142.5 403v89zM537 1503l298 281l192 -10v-66l-375 -248l-115 11v32z" />
    <glyph glyph-name="Ccircumflex" unicode="&#x108;" horiz-adv-x="1176" 
d="M100 604q0 381 154 576t451 195q95 0 192 -15t171 -44l21 -270l-105 -22l-83 195q-38 12 -97 19.5t-126 7.5q-86 0 -163.5 -23t-135.5 -65q-40 -92 -64.5 -220t-24.5 -255v-133q0 -214 117.5 -328.5t315.5 -114.5q94 0 192.5 29.5t176.5 74.5v-106q-93 -60 -206 -93.5
t-223 -33.5q-278 0 -420.5 134t-142.5 403v89zM1035 1470l-125 -10l-238 192l-231 -192l-95 10v32l283 292l133 -10l273 -282v-32z" />
    <glyph glyph-name="Ccaron" unicode="&#x10c;" horiz-adv-x="1176" 
d="M100 604q0 381 154 576t451 195q95 0 192 -15t171 -44l21 -270l-105 -22l-83 195q-38 12 -97 19.5t-126 7.5q-86 0 -163.5 -23t-135.5 -65q-40 -92 -64.5 -220t-24.5 -255v-133q0 -214 117.5 -328.5t315.5 -114.5q94 0 192.5 29.5t176.5 74.5v-106q-93 -60 -206 -93.5
t-223 -33.5q-278 0 -420.5 134t-142.5 403v89zM336 1784l125 10l238 -192l231 192l95 -10v-32l-283 -292l-133 10l-273 282v32z" />
    <glyph glyph-name="Dcaron" unicode="&#x10e;" horiz-adv-x="1362" 
d="M231 1221l-153 34l20 98h540q302 0 455 -151.5t153 -436.5v-78q0 -318 -155 -502.5t-430 -184.5h-563l-20 98l153 34v1089zM421 1224v-1095h211q78 0 148 12.5t130 36.5q62 77 104 195t42 249v94q0 241 -115.5 374.5t-341.5 133.5h-178zM234 1784l125 10l238 -192
l231 192l95 -10v-32l-283 -292l-133 10l-273 282v32z" />
    <glyph glyph-name="Ecaron" unicode="&#x11a;" horiz-adv-x="1191" 
d="M419 643v-514h481l83 193l104 -23l-24 -299h-967l-20 98l153 34v1089l-153 34l20 98h937l24 -300l-103 -22l-83 193h-452v-452h357l34 122l99 -20v-334l-99 -20l-34 123h-357zM246 1784l125 10l238 -192l231 192l95 -10v-32l-283 -292l-133 10l-273 282v32z" />
    <glyph glyph-name="Gcircumflex" unicode="&#x11c;" horiz-adv-x="1300" 
d="M1092 105q-96 -59 -211 -93t-228 -34q-262 0 -406.5 135t-144.5 392v89q0 378 157.5 579.5t454.5 201.5q98 0 195 -15t168 -42l21 -270l-105 -22l-82 193q-38 11 -98 19t-122 8q-87 0 -165.5 -23.5t-134.5 -64.5q-46 -93 -72.5 -216.5t-26.5 -258.5v-133q0 -211 121 -327
t290 -116q52 0 103 10t96 26v361l-153 34l20 108h455l20 -108l-152 -34v-399zM1051 1470l-125 -10l-238 192l-231 -192l-95 10v32l283 292l133 -10l273 -282v-32z" />
    <glyph glyph-name="Hcircumflex" unicode="&#x124;" horiz-adv-x="1459" 
d="M225 1221l-153 34l20 98h455l20 -98l-152 -34v-443h624v443l-152 34l20 98h456l20 -98l-154 -34v-1089l154 -34l-20 -98h-456l-20 98l152 34v517h-624v-517l152 -34l-20 -98h-455l-20 98l153 34v1089zM1086 1470l-125 -10l-238 192l-231 -192l-95 10v32l283 292l133 -10
l273 -282v-32z" />
    <glyph glyph-name="hcircumflex" unicode="&#x125;" horiz-adv-x="1324" 
d="M83 98l153 34v1276l-153 34l20 98l313 22v-615l14 -6q62 79 146 122.5t185 43.5q178 0 262.5 -94t84.5 -287v-594l153 -34l-20 -98h-446l-20 98l153 34v560q0 159 -53.5 227t-172.5 68q-76 0 -153.5 -43t-132.5 -106v-706l153 -34l-20 -98h-446zM649 1680l-125 -10
l-238 192l-231 -192l-95 10v32l283 292l133 -10l273 -282v-32z" />
    <glyph glyph-name="Itilde" unicode="&#x128;" horiz-adv-x="643" 
d="M225 1221l-153 34l20 98h455l20 -98l-152 -34v-1089l152 -34l-20 -98h-455l-20 98l153 34v1089zM-72 1520q0 113 58.5 171t161.5 58q54 0 109.5 -20.5t106 -45.5l93.5 -45.5t72 -20.5q38 0 60.5 29.5t22.5 90.5l117 10v-47q0 -106 -53.5 -167.5t-154.5 -61.5
q-49 0 -106.5 20.5t-113 45.5l-102.5 45.5t-75 20.5q-20 0 -36.5 -4t-27.5 -15t-17 -30t-6 -49l-109 -10v25z" />
    <glyph glyph-name="Jcircumflex" unicode="&#x134;" horiz-adv-x="859" 
d="M647 336q0 -174 -84 -266t-251 -92q-60 0 -120 16t-101 37l-21 260l103 22l82 -192q21 -8 41 -11.5t37 -3.5q24 0 49 6t44 15q14 38 22.5 101.5t8.5 140.5v852l-193 34l20 98h495l20 -98l-152 -34v-885zM888 1470l-125 -10l-238 192l-231 -192l-95 10v32l283 292l133 -10
l273 -282v-32z" />
    <glyph glyph-name="Lacute" unicode="&#x139;" horiz-adv-x="1018" 
d="M227 1221l-153 34l20 98h455l20 -98l-152 -34v-1092h336l83 193l104 -22l-25 -300h-821l-20 98l153 34v1089zM178 1503l298 281l192 -10v-66l-375 -248l-115 11v32z" />
    <glyph glyph-name="lacute" unicode="&#x13a;" horiz-adv-x="642" 
d="M246 1408l-153 34l20 98l313 22v-1430l153 -34l-20 -98h-446l-20 98l153 34v1276zM146 1713l298 281l192 -10v-66l-375 -248l-115 11v32z" />
    <glyph glyph-name="Nacute" unicode="&#x143;" horiz-adv-x="1532" 
d="M225 1221l-153 34l20 98h420l655 -1217h16v1085l-154 34l20 98h407l20 -98l-152 -34v-1221h-287l-656 1218h-16v-1086l152 -34l-20 -98h-405l-20 98l153 34v1089zM643 1503l298 281l192 -10v-66l-375 -248l-115 11v32z" />
    <glyph glyph-name="Ncaron" unicode="&#x147;" horiz-adv-x="1532" 
d="M225 1221l-153 34l20 98h420l655 -1217h16v1085l-154 34l20 98h407l20 -98l-152 -34v-1221h-287l-656 1218h-16v-1086l152 -34l-20 -98h-405l-20 98l153 34v1089zM442 1784l125 10l238 -192l231 192l95 -10v-32l-283 -292l-133 10l-273 282v32z" />
    <glyph glyph-name="Racute" unicode="&#x154;" horiz-adv-x="1205" 
d="M225 1221l-153 34l20 98h492q208 0 318 -84.5t110 -258.5q0 -130 -59.5 -226.5t-162.5 -144.5l-6 -19l277 -488l146 -34l-20 -98h-249l-340 601h-183v-469l152 -34l-20 -98h-455l-20 98l153 34v1089zM415 1224v-494h123q62 0 125.5 9t125.5 30q11 45 20 98t9 102
q0 119 -76.5 187t-225.5 68h-101zM379 1503l298 281l192 -10v-66l-375 -248l-115 11v32z" />
    <glyph glyph-name="Rcaron" unicode="&#x158;" horiz-adv-x="1205" 
d="M225 1221l-153 34l20 98h492q208 0 318 -84.5t110 -258.5q0 -130 -59.5 -226.5t-162.5 -144.5l-6 -19l277 -488l146 -34l-20 -98h-249l-340 601h-183v-469l152 -34l-20 -98h-455l-20 98l153 34v1089zM415 1224v-494h123q62 0 125.5 9t125.5 30q11 45 20 98t9 102
q0 119 -76.5 187t-225.5 68h-101zM178 1784l125 10l238 -192l231 192l95 -10v-32l-283 -292l-133 10l-273 282v32z" />
    <glyph glyph-name="Sacute" unicode="&#x15a;" horiz-adv-x="1066" 
d="M619 762q188 -110 274.5 -201.5t86.5 -215.5q0 -165 -128.5 -266t-343.5 -101q-120 0 -219.5 18.5t-158.5 44.5l-21 259l117 25l82 -194q37 -11 82.5 -17.5t102.5 -6.5q74 0 141.5 10t125.5 28q10 25 20 66.5t10 98.5q0 63 -59 131.5t-255 186.5q-254 150 -310.5 232
t-56.5 179q0 146 125.5 241t346.5 95q84 0 168.5 -12t163.5 -40l21 -270l-105 -22l-82 193q-41 11 -83.5 16.5t-88.5 5.5q-77 0 -144 -11t-113 -27q-9 -30 -14 -63.5t-5 -70.5q0 -71 59.5 -130.5t260.5 -181.5zM406 1503l298 281l192 -10v-66l-375 -248l-115 11v32z" />
    <glyph glyph-name="Scircumflex" unicode="&#x15c;" horiz-adv-x="1066" 
d="M619 762q188 -110 274.5 -201.5t86.5 -215.5q0 -165 -128.5 -266t-343.5 -101q-120 0 -219.5 18.5t-158.5 44.5l-21 259l117 25l82 -194q37 -11 82.5 -17.5t102.5 -6.5q74 0 141.5 10t125.5 28q10 25 20 66.5t10 98.5q0 63 -59 131.5t-255 186.5q-254 150 -310.5 232
t-56.5 179q0 146 125.5 241t346.5 95q84 0 168.5 -12t163.5 -40l21 -270l-105 -22l-82 193q-41 11 -83.5 16.5t-88.5 5.5q-77 0 -144 -11t-113 -27q-9 -30 -14 -63.5t-5 -70.5q0 -71 59.5 -130.5t260.5 -181.5zM904 1470l-125 -10l-238 192l-231 -192l-95 10v32l283 292
l133 -10l273 -282v-32z" />
    <glyph glyph-name="Scaron" unicode="&#x160;" horiz-adv-x="1066" 
d="M619 762q188 -110 274.5 -201.5t86.5 -215.5q0 -165 -128.5 -266t-343.5 -101q-120 0 -219.5 18.5t-158.5 44.5l-21 259l117 25l82 -194q37 -11 82.5 -17.5t102.5 -6.5q74 0 141.5 10t125.5 28q10 25 20 66.5t10 98.5q0 63 -59 131.5t-255 186.5q-254 150 -310.5 232
t-56.5 179q0 146 125.5 241t346.5 95q84 0 168.5 -12t163.5 -40l21 -270l-105 -22l-82 193q-41 11 -83.5 16.5t-88.5 5.5q-77 0 -144 -11t-113 -27q-9 -30 -14 -63.5t-5 -70.5q0 -71 59.5 -130.5t260.5 -181.5zM205 1784l125 10l238 -192l231 192l95 -10v-32l-283 -292
l-133 10l-273 282v32z" />
    <glyph glyph-name="Tcaron" unicode="&#x164;" horiz-adv-x="1139" 
d="M475 1224h-300l-62 -170l-99 9l15 290h1082l14 -290l-98 -9l-63 170h-299v-1092l153 -34l-20 -98h-456l-20 98l153 34v1092zM224 1784l125 10l238 -192l231 192l95 -10v-32l-283 -292l-133 10l-273 282v32z" />
    <glyph glyph-name="Utilde" unicode="&#x168;" horiz-adv-x="1358" 
d="M360 546q0 -223 94 -331t259 -108q79 0 148 23t110 53q34 62 56 150t22 188v700l-153 34l20 98h406l20 -98l-152 -34v-677q0 -291 -127 -428.5t-390 -137.5q-249 0 -376 124.5t-127 388.5v730l-154 34l20 98h456l20 -98l-152 -34v-675zM295 1520q0 113 58.5 171t161.5 58
q54 0 109.5 -20.5t106 -45.5l93.5 -45.5t72 -20.5q38 0 60.5 29.5t22.5 90.5l117 10v-47q0 -106 -53.5 -167.5t-154.5 -61.5q-49 0 -106.5 20.5t-113 45.5l-102.5 45.5t-75 20.5q-20 0 -36.5 -4t-27.5 -15t-17 -30t-6 -49l-109 -10v25z" />
    <glyph glyph-name="Wcircumflex" unicode="&#x174;" horiz-adv-x="1998" 
d="M403 1254l-149 -29l335 -993h16l342 1121h191l334 -1121h16l304 993l-153 29l20 99h363l20 -99l-103 -27l-386 -1227h-191l-333 1107h-16l-337 -1107h-192l-422 1227l-106 27l20 99h407zM1404 1470l-125 -10l-238 192l-231 -192l-95 10v32l283 292l133 -10l273 -282v-32z
" />
    <glyph glyph-name="Ycircumflex" unicode="&#x176;" horiz-adv-x="1122" 
d="M478 578l-416 648l-114 28l20 99h410l20 -99l-132 -28l321 -504h16l304 504l-125 28l20 99h352l20 -99l-111 -28l-395 -650v-444l152 -34l-20 -98h-455l-20 98l153 34v446zM951 1470l-125 -10l-238 192l-231 -192l-95 10v32l283 292l133 -10l273 -282v-32z" />
    <glyph glyph-name="Ydieresis" unicode="&#x178;" horiz-adv-x="1122" 
d="M478 578l-416 648l-114 28l20 99h410l20 -99l-132 -28l321 -504h16l304 504l-125 28l20 99h352l20 -99l-111 -28l-395 -650v-444l152 -34l-20 -98h-455l-20 98l153 34v446zM258 1581q0 25 7 48t19.5 40.5t28.5 27.5t34 10q26 0 49 -7t39.5 -19t26 -28.5t9.5 -35.5
q0 -25 -7 -47.5t-19 -40t-28 -27.5t-34 -10q-26 0 -49 7t-40 19.5t-26.5 28.5t-9.5 34zM718 1581q0 25 7 48t19 40.5t28 27.5t34 10q26 0 49 -7t40 -19t26.5 -28.5t9.5 -35.5q0 -25 -7 -47.5t-19.5 -40t-28.5 -27.5t-34 -10q-26 0 -49 7t-39.5 19.5t-26 28.5t-9.5 34z" />
    <glyph glyph-name="Zacute" unicode="&#x179;" horiz-adv-x="1130" 
d="M1023 1353v-124l-716 -1086l5 -14h557l82 193l103 -22l-24 -300h-948v125l715 1085l-5 14h-516l-82 -193l-104 22l25 300h908zM424 1503l298 281l192 -10v-66l-375 -248l-115 11v32z" />
    <glyph glyph-name="Zcaron" unicode="&#x17d;" horiz-adv-x="1130" 
d="M1023 1353v-124l-716 -1086l5 -14h557l82 193l103 -22l-24 -300h-948v125l715 1085l-5 14h-516l-82 -193l-104 22l25 300h908zM223 1784l125 10l238 -192l231 192l95 -10v-32l-283 -292l-133 10l-273 282v32z" />
    <glyph glyph-name="dollar" unicode="$" horiz-adv-x="1100" 
d="M622 762q188 -110 274.5 -201.5t86.5 -215.5q0 -165 -129 -266q-96 -76 -241 -94v-211h-125v204q-107 2 -197 19q-99 18 -158 44l-21 259l117 25l82 -194q37 -11 82 -18q43 -6 95 -6v515q-5 3 -9 6q-254 150 -310.5 232t-56.5 179q0 146 125 241q97 73 251 90v192h125
v-187q69 -2 139 -12q85 -12 164 -40l21 -270l-105 -22l-82 193q-41 11 -84 16q-26 4 -53 5v-478q4 -2 9 -5zM637 117q68 10 126 28q10 25 20 66.5t10 98.5q0 63 -59 131q-36 42 -121 101v-429zM434 1235q-67 -11 -113 -27q-9 -30 -14 -63.5t-5 -70.5q0 -71 59 -131
q37 -36 127 -97v396q-28 -3 -54 -7z" />
    <glyph glyph-name="guillemotleft" unicode="&#xab;" horiz-adv-x="1063" 
d="M545 115l-395 421v60l395 421h85v-22l-300 -419v-20l300 -419v-22h-85zM808 159l-266 389v36l266 389h85v-22l-167 -385l167 -385v-22h-85z" />
    <glyph glyph-name="guillemotright" unicode="&#xbb;" horiz-adv-x="1063" 
d="M433 115v22l300 419v20l-300 419v22h85l395 -421v-60l-395 -421h-85zM170 159v22l167 385l-167 385v22h85l266 -389v-36l-266 -389h-85z" />
    <glyph glyph-name="bar" unicode="|" horiz-adv-x="658" 
d="M270 1670h118v-2207h-118v2207z" />
    <glyph glyph-name="brokenbar" unicode="&#xa6;" horiz-adv-x="658" 
d="M270 320h118v-857h-118v857zM270 1670h118v-857h-118v857z" />
    <glyph glyph-name="eth" unicode="&#xf0;" horiz-adv-x="1114" 
d="M294 1259l224 106q-50 48 -106.5 92t-118.5 83l149 22q112 -54 209 -134l235 112l39 -83l-201 -96q103 -104 174 -233.5t100 -278.5q3 -17 6.5 -41.5t6.5 -50.5t5 -52.5t2 -48.5v-94q0 -123 -29.5 -229.5t-88.5 -185t-147.5 -124t-205.5 -45.5q-113 0 -197.5 31t-141 89
t-84.5 139t-28 182v93q0 145 35 256t96.5 186.5t146 114t183.5 38.5q45 0 93 -13t85 -39q-24 62 -62 122t-88 118l-252 -120zM838 622q0 108 -27 179t-70.5 112t-97 57.5t-106.5 16.5q-45 0 -82 -9.5t-63 -20.5q-32 -13 -56 -30q-17 -37 -30 -90q-11 -45 -20.5 -111
t-9.5 -154v-119q0 -94 26 -161.5t69 -110.5t96.5 -63t109.5 -20q42 0 78.5 9.5t63.5 20.5q32 13 59 30q17 34 30 84q11 43 20.5 107t9.5 154v119z" />
    <glyph glyph-name="emdash" unicode="&#x2014;" horiz-adv-x="2035" 
d="M30 645h1975l-20 -136h-1975z" />
    <glyph glyph-name="endash" unicode="&#x2013;" horiz-adv-x="1141" 
d="M90 645h981l-20 -136h-981z" />
    <glyph glyph-name="figuredash" unicode="&#x2012;" horiz-adv-x="1150" 
d="M163 739h907l-20 -146h-908z" />
    <glyph glyph-name="uni2015" unicode="&#x2015;" horiz-adv-x="2475" 
d="M51 645h2374l-20 -136h-2375z" />
    <glyph glyph-name="uni2010" unicode="&#x2010;" horiz-adv-x="969" 
d="M230 665l589 41l-30 -149l-589 -41z" />
    <glyph glyph-name="numbersign" unicode="#" horiz-adv-x="1317" 
d="M753 306h-286l-43 -306h-155v20l40 286h-219v137h239l66 466h-239v137h258l44 307h155v-20l-41 -287h286l44 307h155v-20l-41 -287h211v-137h-230l-66 -466h230v-137h-250l-43 -306h-155v20zM487 443h286l66 466h-286z" />
    <glyph glyph-name="braceleft" unicode="{" horiz-adv-x="814" 
d="M150 658h96q61 0 85.5 24.5t24.5 85.5v629q0 60 21 111.5t58.5 89t89 58.5t111.5 21h78v-96h-21q-91 0 -130.5 -39.5t-39.5 -130.5v-583q0 -62 -10.5 -103t-27 -65.5t-38.5 -34.5t-44 -10v-10q22 0 44 -10t38.5 -34.5t27 -65.5t10.5 -103v-583q0 -91 39.5 -130.5
t130.5 -39.5h21v-96h-78q-60 0 -111.5 21t-89 58.5t-58.5 89t-21 111.5v629q0 61 -24.5 85.5t-85.5 24.5h-96v96z" />
    <glyph glyph-name="braceright" unicode="}" horiz-adv-x="814" 
d="M664 562h-96q-61 0 -85.5 -24.5t-24.5 -85.5v-629q0 -60 -21 -111.5t-58.5 -89t-89 -58.5t-111.5 -21h-78v96h21q91 0 130.5 39.5t39.5 130.5v583q0 62 10.5 103t27 65.5t38 34.5t44.5 10v10q-23 0 -44.5 10t-38 34.5t-27 65.5t-10.5 103v583q0 91 -39.5 130.5
t-130.5 39.5h-21v96h78q60 0 111.5 -21t89 -58.5t58.5 -89t21 -111.5v-629q0 -61 24.5 -85.5t85.5 -24.5h96v-96z" />
    <glyph glyph-name="less" unicode="&#x3c;" horiz-adv-x="1148" 
d="M140 555v96l798 374h30v-139l-592 -278v-10l592 -277v-140h-30z" />
    <glyph glyph-name="greater" unicode="&#x3e;" horiz-adv-x="1148" 
d="M210 181h-30v140l592 277v10l-592 278v139h30l798 -374v-96z" />
    <glyph glyph-name="Eth" unicode="&#xd0;" horiz-adv-x="1362" 
d="M78 758h153v463l-153 34l20 98h540q154 0 268.5 -39.5t190 -115t112.5 -185t37 -248.5v-78q0 -157 -39.5 -284t-114.5 -216.5t-183.5 -138t-247.5 -48.5h-563l-20 98l153 34v497h-153v129zM421 1224v-466h290v-129h-290v-500h211q60 0 111 7.5t88 16.5q43 11 79 25
q40 52 73 120q27 58 50 139.5t23 184.5v94q0 118 -28 212t-84.5 160t-142.5 101t-202 35h-178z" />
    <glyph glyph-name="Thorn" unicode="&#xde;" horiz-adv-x="1098" 
d="M225 1221l-153 34l20 98h455l20 -98l-152 -34v-149h168q213 0 325 -78.5t112 -246.5q0 -95 -33.5 -167t-90 -121t-131.5 -74t-159 -25h-191v-228l212 -34l-20 -98h-515l-20 98l153 34v1089zM415 943v-454h150q52 0 94.5 5.5t72.5 13.5q35 8 63 19q8 25 15 54
q6 25 11 57.5t5 68.5q0 52 -15.5 95.5t-50 74.5t-90 48.5t-135.5 17.5h-120z" />
    <glyph glyph-name="thorn" unicode="&#xfe;" horiz-adv-x="1134" 
d="M4 -336l153 34v1710l-153 34l20 98l313 22v-610q22 24 52.5 51t71 50.5t91.5 38.5t113 15q84 0 153 -25.5t117.5 -80.5t75.5 -140t27 -205v-94q0 -132 -30.5 -240t-89 -184.5t-144 -118t-194.5 -41.5q-62 0 -122.5 7t-120.5 18v-305l153 -34l-20 -99h-446zM858 622
q0 104 -20.5 174t-55.5 112.5t-82 60.5t-99 18t-99 -20.5t-84 -44.5q-43 -28 -81 -64v-733q20 -5 48 -9.5t59 -8.5t63.5 -6.5t62.5 -2.5q53 0 95.5 9.5t72.5 20.5q35 13 63 30q16 44 28 99q11 47 20 109.5t9 136.5v119z" />
    <glyph glyph-name="germandbls" unicode="&#xdf;" horiz-adv-x="1289" 
d="M259 953l-163 34l20 98h143v64q0 95 26 171.5t79 130t134 82.5t191 29q75 0 141.5 -17t116 -55t78.5 -99.5t29 -150.5q0 -72 -17.5 -131t-48.5 -110.5t-74 -98t-94 -91.5q27 -16 56 -35l55.5 -38.5t61.5 -47.5q53 -45 92.5 -87.5t66 -87t39.5 -93t13 -106.5
q0 -79 -26 -141.5t-73 -105.5t-111.5 -66t-140.5 -23q-73 0 -130.5 10.5t-98.5 24.5q-48 15 -84 35v231l111 10l46 -168q16 -7 39 -12q20 -5 48 -8t66 -3t67 5t48 12q22 7 37 17q6 14 11 32q4 16 7.5 39.5t3.5 55.5q0 37 -8.5 74t-30.5 76t-59.5 82t-95.5 92
q-36 30 -71.5 55.5t-64.5 44.5q-33 22 -63 40v65q61 54 106.5 105t76 103t45.5 106t15 113q0 118 -55 172.5t-160 54.5q-50 0 -87 -7.5t-62 -16.5q-29 -11 -50 -23q-7 -27 -11 -66q-4 -33 -7 -81.5t-3 -112.5v-1135h-313l-20 98l153 34v821z" />
    <glyph glyph-name="degree" unicode="&#xb0;" horiz-adv-x="614" 
d="M80 1305q0 53 20 100t55 82t82 55t100 20t100 -20t82 -55t55 -82t20 -100t-20 -100t-55 -82t-82 -55t-100 -20t-100 20t-82 55t-55 82t-20 100zM209 1305q0 -36 10 -63.5t27.5 -46.5t40.5 -28.5t50 -9.5t50 9.5t40.5 28.5t27.5 46.5t10 63.5t-10 63.5t-27.5 46.5
t-40.5 28.5t-50 9.5t-50 -9.5t-40.5 -28.5t-27.5 -46.5t-10 -63.5z" />
    <glyph glyph-name="percent" unicode="%" horiz-adv-x="1683" 
d="M1220 1353h175v-20l-966 -1333h-175v20zM108 1074q0 62 23.5 117t64.5 96t95.5 64.5t117.5 23.5q62 0 117 -23.5t96 -64.5t64.5 -96t23.5 -117q0 -63 -23.5 -117.5t-64.5 -95.5t-96 -64.5t-117 -23.5q-63 0 -117.5 23.5t-95.5 64.5t-64.5 95.5t-23.5 117.5zM259 1074
q0 -42 12 -74.5t33 -55t48 -34t57 -11.5t57 11.5t48 34t33 55t12 74.5t-12 74.5t-33 55t-48 34t-57 11.5t-57 -11.5t-48 -34t-33 -55t-12 -74.5zM939 279q0 62 23.5 117t64.5 96t95.5 64.5t117.5 23.5q62 0 117 -23.5t96 -64.5t64.5 -96t23.5 -117q0 -63 -23.5 -117.5
t-64.5 -95.5t-96 -64.5t-117 -23.5q-63 0 -117.5 23.5t-95.5 64.5t-64.5 95.5t-23.5 117.5zM1090 279q0 -42 12 -74.5t33 -55t48 -34t57 -11.5t57 11.5t48 34t33 55t12 74.5t-12 74.5t-33 55t-48 34t-57 11.5t-57 -11.5t-48 -34t-33 -55t-12 -74.5z" />
    <glyph glyph-name="plus" unicode="+" horiz-adv-x="1063" 
d="M605 985v-318h298v-147h-298v-318h-147v318h-298v147h298v318h147z" />
    <glyph glyph-name="equal" unicode="=" horiz-adv-x="1122" 
d="M160 464h802v-157h-802v157zM160 927h802v-157h-802v157z" />
    <glyph glyph-name="asciicircum" unicode="^" horiz-adv-x="1104" 
d="M504 1540h96l364 -461v-30h-139l-268 335h-10l-267 -335h-140v30z" />
    <glyph glyph-name="asciitilde" unicode="~" horiz-adv-x="1211" 
d="M140 549q0 56 18.5 99t50.5 72t76 43.5t95 14.5q36 0 80.5 -10t91.5 -24.5t94 -31.5l88.5 -31.5t74.5 -24.5t52 -10t37.5 7.5t33 22.5t23.5 37.5t9 52.5l117 10v-47q0 -53 -17 -95.5t-47 -72t-72 -45.5t-92 -16q-33 0 -77 10t-93 24.5t-99.5 31.5l-95 31.5t-79.5 24.5
t-53 10q-20 0 -39.5 -4t-34.5 -15t-24 -30t-9 -49l-109 -10v25z" />
    <glyph glyph-name="cent" unicode="&#xa2;" horiz-adv-x="1024" 
d="M525 -20q-95 5 -173.5 32.5t-135.5 79t-88.5 128t-31.5 179.5v93q0 141 30 249.5t86 184.5t135.5 120t177.5 56v251h118v-247q68 -3 122.5 -13t92.5 -21q45 -13 79 -28v-255l-122 -14l-48 191q-15 4 -33 8q-16 3 -39 6.5t-52 5.5v-888q60 2 115.5 13.5t97.5 25.5
q49 15 92 34v-96q-37 -23 -84 -41q-41 -16 -96.5 -31.5t-124.5 -21.5v-226h-118v225zM276 443q0 -72 20.5 -128.5t55 -97.5t79.5 -67.5t94 -39.5v873q-45 -5 -80 -14.5t-59 -18.5q-29 -11 -50 -23q-17 -45 -30 -102q-11 -49 -20.5 -118t-9.5 -155v-109z" />
    <glyph glyph-name="sterling" unicode="&#xa3;" horiz-adv-x="1101" 
d="M119 98l131 29q9 28 16 61q6 29 11.5 67t5.5 84q0 29 -2.5 56.5t-7.5 56.5t-12.5 61.5t-17.5 71.5h-113l-20 89l100 28q-13 46 -22 84.5t-15 75t-8.5 73.5t-2.5 80q0 72 24 137t75.5 114.5t133 79t196.5 29.5q82 0 147 -13t110 -29q53 -18 93 -41v-277l-106 -15l-72 229
q-23 7 -51 13q-25 5 -58.5 9t-75.5 4q-44 0 -80.5 -6.5t-62.5 -14.5q-31 -9 -55 -20q-11 -22 -19 -50q-8 -24 -13.5 -58.5t-5.5 -77.5q0 -81 11 -156.5t34 -157.5h436v-129h-401q14 -57 22.5 -107.5t8.5 -102.5q0 -53 -7 -98t-15 -78q-10 -39 -21 -70h408l83 193l104 -22
l-25 -300h-841z" />
    <glyph glyph-name="uni00A0" unicode="&#xa0;" 
 />
    <glyph glyph-name="yen" unicode="&#xa5;" horiz-adv-x="1122" 
d="M187 635h254l-379 591l-114 28l20 99h410l20 -99l-131 -28l323 -504h10l306 504l-124 28l20 99h352l20 -99l-111 -28l-360 -591h247v-127h-282v-128h282v-127h-282v-121l152 -34l-20 -98h-455l-20 98l153 34v121h-291v127h291v128h-291v127z" />
    <glyph glyph-name="currency" unicode="&#xa4;" horiz-adv-x="1271" 
d="M185 191l141 169q-38 48 -59.5 105.5t-21.5 122.5q0 61 19.5 116t54.5 101l-139 165l128 107l138 -165q42 23 90 35t100 12q51 0 98.5 -12t89.5 -34l138 164l129 -109l-138 -164q35 -46 54.5 -101t19.5 -115q0 -65 -22 -123t-61 -106l144 -170l-128 -107l-148 175
q-82 -40 -176 -40q-48 0 -92 10t-84 29l-146 -174zM421 588q0 -56 17 -98t46 -71t68.5 -43.5t83.5 -14.5t83 14.5t68 43.5t46 71t17 98q0 55 -17 97.5t-46 71.5t-68 43.5t-83 14.5t-83.5 -14.5t-68.5 -43.5t-46 -71.5t-17 -97.5z" />
    <glyph glyph-name="uni20B9" unicode="&#x20b9;" horiz-adv-x="1116" 
d="M288 1234l-140 31l20 88h678l140 -31l-20 -88h-272q31 -36 49.5 -83.5t22.5 -107.5h80l140 -31l-20 -88h-207q-21 -106 -96.5 -180.5t-200.5 -107.5l-2 -13l286 -496l141 -29l-20 -98h-245l-361 623v107q72 0 123.5 8t85.5 18q40 11 67 27q7 17 14 39q6 19 12 44.5
t9 57.5h-284l-140 31l20 88h400q-15 98 -78.5 144.5t-187.5 46.5h-14z" />
    <glyph glyph-name="Euro" unicode="&#x20ac;" horiz-adv-x="1200" 
d="M43 823h149q40 271 188.5 411.5t402.5 140.5q83 0 149.5 -12.5t114.5 -27.5q55 -18 99 -40v-287h-120l-48 217q-27 6 -60 10q-29 4 -70 7.5t-92 3.5q-73 0 -128.5 -13.5t-93.5 -30.5q-45 -19 -77 -44q-17 -40 -33 -91q-14 -44 -27.5 -105.5t-21.5 -138.5h588l-23 -100
h-572v-40v-60h548l-23 -100h-525q4 -114 40 -193.5t94 -129t133 -71.5t156 -22q75 0 141.5 16t117.5 36q59 23 110 52v-106q-55 -36 -124 -64q-60 -24 -141.5 -43.5t-181.5 -19.5q-107 0 -203.5 25.5t-170.5 87.5t-117.5 165t-43.5 259v8h-158l23 100h135q1 26 1.5 51
t2.5 49h-162z" />
    <glyph glyph-name="uni00AD" unicode="&#xad;" horiz-adv-x="969" 
d="M230 665l589 41l-30 -149l-589 -41z" />
    <glyph glyph-name="macron" unicode="&#xaf;" horiz-adv-x="1030" 
d="M169 1473h711l-20 -120h-710z" />
    <glyph glyph-name="amacron" unicode="&#x101;" horiz-adv-x="1150" 
d="M939 132l173 -34l-20 -98l-255 -22l-58 177q-78 -95 -167 -136t-193 -41q-140 0 -225.5 70t-85.5 189q0 183 162 276.5t489 93.5v95q0 150 -54.5 217.5t-190.5 67.5q-32 0 -73.5 -4t-76.5 -11l-60 -212l-98 10v283q60 21 148.5 37.5t178.5 16.5q205 0 305.5 -90.5
t100.5 -281.5v-603zM759 487q-150 0 -266 -19.5t-177 -52.5q-12 -28 -20 -64t-8 -76q0 -83 55 -130t144 -47q75 0 148 37.5t124 89.5v262zM216 1473h711l-20 -120h-710z" />
    <glyph glyph-name="emacron" unicode="&#x113;" horiz-adv-x="1034" 
d="M276 523v-76q0 -168 92.5 -258.5t220.5 -90.5q83 0 163 18t149 47v-96q-87 -46 -182.5 -67.5t-189.5 -21.5q-206 0 -319.5 112t-113.5 324v83q0 287 127.5 448.5t347.5 161.5q203 0 293 -103.5t90 -360.5v-120h-678zM336 927q-22 -56 -37.5 -136t-19.5 -148h485
q0 182 -52.5 263t-168.5 81q-59 0 -116 -18t-91 -42zM238 1473h711l-20 -120h-710z" />
    <glyph glyph-name="omacron" unicode="&#x14d;" horiz-adv-x="1114" 
d="M547 -22q-218 0 -334.5 116.5t-116.5 324.5v93q0 276 126.5 435.5t334.5 159.5q218 0 339.5 -116.5t121.5 -334.5v-94q0 -265 -126 -424.5t-345 -159.5zM838 622q0 171 -78.5 266.5t-222.5 98.5q-55 0 -110 -17.5t-91 -42.5q-26 -59 -43 -153t-17 -202v-119
q0 -168 86.5 -261.5t214.5 -93.5q50 0 103 16t98 44q31 65 45.5 155t14.5 190v119zM232 1473h711l-20 -120h-710z" />
    <glyph glyph-name="umacron" unicode="&#x16b;" horiz-adv-x="1262" 
d="M371 403q0 -156 55 -230.5t187 -74.5q72 0 143 34t127 93v728l-183 34l20 98l343 22v-975l153 -34l-20 -98l-235 -22l-58 178q-81 -95 -171.5 -136.5t-199.5 -41.5q-168 0 -254.5 95t-86.5 286v594l-153 34l20 98l313 22v-704zM273 1473h711l-20 -120h-710z" />
    <glyph glyph-name="macron.case" 
d="M-101 1660h771l-20 -120h-770z" />
    <glyph glyph-name="Amacron" unicode="&#x100;" horiz-adv-x="1218" 
d="M-8 98l108 29l440 1226h149l429 -1226l108 -29l-20 -98h-385l-20 98l128 29l-94 279h-491l-96 -279l128 -29l-20 -98h-344zM389 535h402l-194 569h-10zM254 1660h771l-20 -120h-770z" />
    <glyph glyph-name="Emacron" unicode="&#x112;" horiz-adv-x="1191" 
d="M419 643v-514h481l83 193l104 -23l-24 -299h-967l-20 98l153 34v1089l-153 34l20 98h937l24 -300l-103 -22l-83 193h-452v-452h357l34 122l99 -20v-334l-99 -20l-34 123h-357zM229 1660h771l-20 -120h-770z" />
    <glyph glyph-name="Imacron" unicode="&#x12a;" horiz-adv-x="643" 
d="M225 1221l-153 34l20 98h455l20 -98l-152 -34v-1089l152 -34l-20 -98h-455l-20 98l153 34v1089zM-42 1660h771l-20 -120h-770z" />
    <glyph glyph-name="Omacron" unicode="&#x14c;" horiz-adv-x="1345" 
d="M663 -22q-279 0 -420 137.5t-141 409.5v79q0 389 148 580t433 191q278 0 419 -136.5t141 -411.5v-78q0 -377 -144 -574t-436 -197zM1053 783q0 236 -104.5 349.5t-295.5 113.5q-89 0 -168 -27.5t-124 -60.5q-30 -92 -49.5 -206.5t-19.5 -248.5v-133q0 -221 112.5 -342
t288.5 -121q88 0 165.5 26.5t126.5 62.5q32 100 50 220t18 234v133zM304 1660h771l-20 -120h-770z" />
    <glyph glyph-name="Umacron" unicode="&#x16a;" horiz-adv-x="1358" 
d="M360 546q0 -223 94 -331t259 -108q79 0 148 23t110 53q34 62 56 150t22 188v700l-153 34l20 98h406l20 -98l-152 -34v-677q0 -291 -127 -428.5t-390 -137.5q-249 0 -376 124.5t-127 388.5v730l-154 34l20 98h456l20 -98l-152 -34v-675zM346 1660h771l-20 -120h-770z" />
    <glyph glyph-name="ring" unicode="&#x2da;" horiz-adv-x="797" 
d="M200 1436q0 59 17 103t45.5 73t66.5 43.5t80 14.5q38 0 72.5 -10t60 -30.5t40.5 -52.5t15 -77q0 -62 -16 -106.5t-44.5 -73t-66.5 -42t-81 -13.5q-39 0 -73.5 10t-60 31t-40.5 53.5t-15 76.5zM305 1468q0 -30 8 -54.5t21 -41t30 -25.5t35 -9q17 0 33 2.5t27 6.5
q13 4 25 10q2 11 4 28q2 14 3.5 35t1.5 48q0 30 -8 54.5t-21 41t-30 25.5t-35 9q-14 0 -27.5 -3t-24.5 -7q-12 -4 -23 -9q-6 -10 -10 -26q-4 -14 -6.5 -35t-2.5 -50z" />
    <glyph glyph-name="aring" unicode="&#xe5;" horiz-adv-x="1150" 
d="M939 132l173 -34l-20 -98l-255 -22l-58 177q-78 -95 -167 -136t-193 -41q-140 0 -225.5 70t-85.5 189q0 183 162 276.5t489 93.5v95q0 150 -54.5 217.5t-190.5 67.5q-32 0 -73.5 -4t-76.5 -11l-60 -212l-98 10v283q60 21 148.5 37.5t178.5 16.5q205 0 305.5 -90.5
t100.5 -281.5v-603zM759 487q-150 0 -266 -19.5t-177 -52.5q-12 -28 -20 -64t-8 -76q0 -83 55 -130t144 -47q75 0 148 37.5t124 89.5v262zM367 1436q0 59 17 103t45.5 73t66.5 43.5t80 14.5q38 0 72.5 -10t60 -30.5t40.5 -52.5t15 -77q0 -62 -16 -106.5t-44.5 -73t-66.5 -42
t-81 -13.5q-39 0 -73.5 10t-60 31t-40.5 53.5t-15 76.5zM472 1468q0 -30 8 -54.5t21 -41t30 -25.5t35 -9q17 0 33 2.5t27 6.5q13 4 25 10q2 11 4 28q2 14 3.5 35t1.5 48q0 30 -8 54.5t-21 41t-30 25.5t-35 9q-14 0 -27.5 -3t-24.5 -7q-12 -4 -23 -9q-6 -10 -10 -26
q-4 -14 -6.5 -35t-2.5 -50z" />
    <glyph glyph-name="breve" unicode="&#x2d8;" horiz-adv-x="1012" 
d="M812 1592q0 -54 -21.5 -107t-61.5 -95t-96.5 -68.5t-126.5 -26.5t-126.5 26.5t-96.5 68.5t-61.5 95t-21.5 107l97 10q0 -16 12 -45.5t37.5 -59t65 -51t94.5 -21.5t94.5 21.5t65 51t37.5 59t12 45.5z" />
    <glyph glyph-name="abreve" unicode="&#x103;" horiz-adv-x="1150" 
d="M939 132l173 -34l-20 -98l-255 -22l-58 177q-78 -95 -167 -136t-193 -41q-140 0 -225.5 70t-85.5 189q0 183 162 276.5t489 93.5v95q0 150 -54.5 217.5t-190.5 67.5q-32 0 -73.5 -4t-76.5 -11l-60 -212l-98 10v283q60 21 148.5 37.5t178.5 16.5q205 0 305.5 -90.5
t100.5 -281.5v-603zM759 487q-150 0 -266 -19.5t-177 -52.5q-12 -28 -20 -64t-8 -76q0 -83 55 -130t144 -47q75 0 148 37.5t124 89.5v262zM853 1592q0 -54 -21.5 -107t-61.5 -95t-96.5 -68.5t-126.5 -26.5t-126.5 26.5t-96.5 68.5t-61.5 95t-21.5 107l97 10q0 -16 12 -45.5
t37.5 -59t65 -51t94.5 -21.5t94.5 21.5t65 51t37.5 59t12 45.5z" />
    <glyph glyph-name="ebreve" unicode="&#x115;" horiz-adv-x="1034" 
d="M276 523v-76q0 -168 92.5 -258.5t220.5 -90.5q83 0 163 18t149 47v-96q-87 -46 -182.5 -67.5t-189.5 -21.5q-206 0 -319.5 112t-113.5 324v83q0 287 127.5 448.5t347.5 161.5q203 0 293 -103.5t90 -360.5v-120h-678zM336 927q-22 -56 -37.5 -136t-19.5 -148h485
q0 182 -52.5 263t-168.5 81q-59 0 -116 -18t-91 -42zM875 1592q0 -54 -21.5 -107t-61.5 -95t-96.5 -68.5t-126.5 -26.5t-126.5 26.5t-96.5 68.5t-61.5 95t-21.5 107l97 10q0 -16 12 -45.5t37.5 -59t65 -51t94.5 -21.5t94.5 21.5t65 51t37.5 59t12 45.5z" />
    <glyph glyph-name="gbreve" unicode="&#x11f;" horiz-adv-x="1075" 
d="M824 978l-4 -10q43 -29 75 -87t32 -121v-25q0 -168 -109.5 -267.5t-290.5 -99.5q-65 0 -119 12q-54 -50 -87.5 -94.5t-33.5 -71.5q0 -26 18.5 -40t52.5 -14h224q238 0 356.5 -69t118.5 -217q0 -162 -138.5 -246.5t-393.5 -84.5q-222 0 -327.5 47t-105.5 151
q0 67 54.5 135t154.5 133q-72 14 -113 52t-41 100q0 59 47.5 124t125.5 124q-86 41 -129.5 111t-43.5 150v26q0 196 109 303.5t291 107.5q29 0 73.5 -6.5t79.5 -15.5h314l18 -107h-208zM411 0q-70 -52 -114.5 -109t-44.5 -106q0 -71 73.5 -96.5t259.5 -25.5q77 0 155.5 12.5
t139.5 38.5q17 24 27 57.5t10 67.5q0 91 -72.5 126t-250.5 35h-183zM747 764q0 105 -66 164t-158 59q-46 0 -87 -8.5t-69 -21.5q-21 -54 -30.5 -110t-9.5 -103v-38q0 -97 71 -157.5t153 -60.5q48 0 86.5 7.5t69.5 22.5q17 32 28.5 87.5t11.5 120.5v38zM855 1592
q0 -54 -21.5 -107t-61.5 -95t-96.5 -68.5t-126.5 -26.5t-126.5 26.5t-96.5 68.5t-61.5 95t-21.5 107l97 10q0 -16 12 -45.5t37.5 -59t65 -51t94.5 -21.5t94.5 21.5t65 51t37.5 59t12 45.5z" />
    <glyph glyph-name="ibreve" unicode="&#x12d;" horiz-adv-x="660" 
d="M439 132l153 -34l-20 -98h-446l-20 98l153 34v821l-153 34l20 98l313 22v-975zM618 1592q0 -54 -21.5 -107t-61.5 -95t-96.5 -68.5t-126.5 -26.5t-126.5 26.5t-96.5 68.5t-61.5 95t-21.5 107l97 10q0 -16 12 -45.5t37.5 -59t65 -51t94.5 -21.5t94.5 21.5t65 51t37.5 59
t12 45.5z" />
    <glyph glyph-name="obreve" unicode="&#x14f;" horiz-adv-x="1114" 
d="M547 -22q-218 0 -334.5 116.5t-116.5 324.5v93q0 276 126.5 435.5t334.5 159.5q218 0 339.5 -116.5t121.5 -334.5v-94q0 -265 -126 -424.5t-345 -159.5zM838 622q0 171 -78.5 266.5t-222.5 98.5q-55 0 -110 -17.5t-91 -42.5q-26 -59 -43 -153t-17 -202v-119
q0 -168 86.5 -261.5t214.5 -93.5q50 0 103 16t98 44q31 65 45.5 155t14.5 190v119zM869 1592q0 -54 -21.5 -107t-61.5 -95t-96.5 -68.5t-126.5 -26.5t-126.5 26.5t-96.5 68.5t-61.5 95t-21.5 107l97 10q0 -16 12 -45.5t37.5 -59t65 -51t94.5 -21.5t94.5 21.5t65 51t37.5 59
t12 45.5z" />
    <glyph glyph-name="ubreve" unicode="&#x16d;" horiz-adv-x="1262" 
d="M371 403q0 -156 55 -230.5t187 -74.5q72 0 143 34t127 93v728l-183 34l20 98l343 22v-975l153 -34l-20 -98l-235 -22l-58 178q-81 -95 -171.5 -136.5t-199.5 -41.5q-168 0 -254.5 95t-86.5 286v594l-153 34l20 98l313 22v-704zM910 1592q0 -54 -21.5 -107t-61.5 -95
t-96.5 -68.5t-126.5 -26.5t-126.5 26.5t-96.5 68.5t-61.5 95t-21.5 107l97 10q0 -16 12 -45.5t37.5 -59t65 -51t94.5 -21.5t94.5 21.5t65 51t37.5 59t12 45.5z" />
    <glyph glyph-name="uring" unicode="&#x16f;" horiz-adv-x="1262" 
d="M371 403q0 -156 55 -230.5t187 -74.5q72 0 143 34t127 93v728l-183 34l20 98l343 22v-975l153 -34l-20 -98l-235 -22l-58 178q-81 -95 -171.5 -136.5t-199.5 -41.5q-168 0 -254.5 95t-86.5 286v594l-153 34l20 98l313 22v-704zM424 1436q0 59 17 103t45.5 73t66.5 43.5
t80 14.5q38 0 72.5 -10t60 -30.5t40.5 -52.5t15 -77q0 -62 -16 -106.5t-44.5 -73t-66.5 -42t-81 -13.5q-39 0 -73.5 10t-60 31t-40.5 53.5t-15 76.5zM529 1468q0 -30 8 -54.5t21 -41t30 -25.5t35 -9q17 0 33 2.5t27 6.5q13 4 25 10q2 11 4 28q2 14 3.5 35t1.5 48
q0 30 -8 54.5t-21 41t-30 25.5t-35 9q-14 0 -27.5 -3t-24.5 -7q-12 -4 -23 -9q-6 -10 -10 -26q-4 -14 -6.5 -35t-2.5 -50z" />
    <glyph glyph-name="Uring" unicode="&#x16e;" horiz-adv-x="1358" 
d="M360 546q0 -223 94 -331t259 -108q79 0 148 23t110 53q34 62 56 150t22 188v700l-153 34l20 98h406l20 -98l-152 -34v-677q0 -291 -127 -428.5t-390 -137.5q-249 0 -376 124.5t-127 388.5v730l-154 34l20 98h456l20 -98l-152 -34v-675zM523 1570q0 52 16 92t43 67t63 41
t77 14q36 0 68.5 -9t57 -27.5t38.5 -47t14 -66.5q0 -55 -15.5 -95.5t-42.5 -66.5t-63 -39t-77 -13q-37 0 -69.5 9.5t-57 28t-38.5 46.5t-14 66zM623 1602q0 -48 26.5 -76t62.5 -28q17 0 31.5 2.5t25.5 6.5q12 4 23 10q2 10 4 23q2 11 3.5 26.5t1.5 35.5q0 49 -26.5 77
t-62.5 28q-17 0 -31 -3t-25 -7q-13 -4 -24 -9q-3 -7 -5 -18q-2 -10 -3 -26t-1 -42z" />
    <glyph glyph-name="ring.case" 
d="M86 1570q0 52 16 92t43 67t63 41t77 14q36 0 68.5 -9t57 -27.5t38.5 -47t14 -66.5q0 -55 -15.5 -95.5t-42.5 -66.5t-63 -39t-77 -13q-37 0 -69.5 9.5t-57 28t-38.5 46.5t-14 66zM186 1602q0 -48 26.5 -76t62.5 -28q17 0 31.5 2.5t25.5 6.5q12 4 23 10q2 10 4 23
q2 11 3.5 26.5t1.5 35.5q0 49 -26.5 77t-62.5 28q-17 0 -31 -3t-25 -7q-13 -4 -24 -9q-3 -7 -5 -18q-2 -10 -3 -26t-1 -42z" />
    <glyph glyph-name="breve.case" 
d="M609 1749q0 -50 -23 -99.5t-66 -89t-105.5 -64t-141.5 -24.5t-141.5 24.5t-105.5 64t-66 89t-23 99.5l97 10q0 -14 12 -40.5t39.5 -52.5t73.5 -45t114 -19t114 19t73.5 45t39.5 52.5t12 40.5z" />
    <glyph glyph-name="Abreve" unicode="&#x102;" horiz-adv-x="1218" 
d="M-8 98l108 29l440 1226h149l429 -1226l108 -29l-20 -98h-385l-20 98l128 29l-94 279h-491l-96 -279l128 -29l-20 -98h-344zM389 535h402l-194 569h-10zM948 1749q0 -50 -23 -99.5t-66 -89t-105.5 -64t-141.5 -24.5t-141.5 24.5t-105.5 64t-66 89t-23 99.5l97 10
q0 -14 12 -40.5t39.5 -52.5t73.5 -45t114 -19t114 19t73.5 45t39.5 52.5t12 40.5z" />
    <glyph glyph-name="Ebreve" unicode="&#x114;" horiz-adv-x="1191" 
d="M419 643v-514h481l83 193l104 -23l-24 -299h-967l-20 98l153 34v1089l-153 34l20 98h937l24 -300l-103 -22l-83 193h-452v-452h357l34 122l99 -20v-334l-99 -20l-34 123h-357zM923 1749q0 -50 -23 -99.5t-66 -89t-105.5 -64t-141.5 -24.5t-141.5 24.5t-105.5 64t-66 89
t-23 99.5l97 10q0 -14 12 -40.5t39.5 -52.5t73.5 -45t114 -19t114 19t73.5 45t39.5 52.5t12 40.5z" />
    <glyph glyph-name="Gbreve" unicode="&#x11e;" horiz-adv-x="1300" 
d="M1092 105q-96 -59 -211 -93t-228 -34q-262 0 -406.5 135t-144.5 392v89q0 378 157.5 579.5t454.5 201.5q98 0 195 -15t168 -42l21 -270l-105 -22l-82 193q-38 11 -98 19t-122 8q-87 0 -165.5 -23.5t-134.5 -64.5q-46 -93 -72.5 -216.5t-26.5 -258.5v-133q0 -211 121 -327
t290 -116q52 0 103 10t96 26v361l-153 34l20 108h455l20 -108l-152 -34v-399zM1029 1749q0 -50 -23 -99.5t-66 -89t-105.5 -64t-141.5 -24.5t-141.5 24.5t-105.5 64t-66 89t-23 99.5l97 10q0 -14 12 -40.5t39.5 -52.5t73.5 -45t114 -19t114 19t73.5 45t39.5 52.5t12 40.5z
" />
    <glyph glyph-name="Ibreve" unicode="&#x12c;" horiz-adv-x="643" 
d="M225 1221l-153 34l20 98h455l20 -98l-152 -34v-1089l152 -34l-20 -98h-455l-20 98l153 34v1089zM652 1749q0 -50 -23 -99.5t-66 -89t-105.5 -64t-141.5 -24.5t-141.5 24.5t-105.5 64t-66 89t-23 99.5l97 10q0 -14 12 -40.5t39.5 -52.5t73.5 -45t114 -19t114 19t73.5 45
t39.5 52.5t12 40.5z" />
    <glyph glyph-name="Obreve" unicode="&#x14e;" horiz-adv-x="1345" 
d="M663 -22q-279 0 -420 137.5t-141 409.5v79q0 389 148 580t433 191q278 0 419 -136.5t141 -411.5v-78q0 -377 -144 -574t-436 -197zM1053 783q0 236 -104.5 349.5t-295.5 113.5q-89 0 -168 -27.5t-124 -60.5q-30 -92 -49.5 -206.5t-19.5 -248.5v-133q0 -221 112.5 -342
t288.5 -121q88 0 165.5 26.5t126.5 62.5q32 100 50 220t18 234v133zM998 1749q0 -50 -23 -99.5t-66 -89t-105.5 -64t-141.5 -24.5t-141.5 24.5t-105.5 64t-66 89t-23 99.5l97 10q0 -14 12 -40.5t39.5 -52.5t73.5 -45t114 -19t114 19t73.5 45t39.5 52.5t12 40.5z" />
    <glyph glyph-name="Ubreve" unicode="&#x16c;" horiz-adv-x="1358" 
d="M360 546q0 -223 94 -331t259 -108q79 0 148 23t110 53q34 62 56 150t22 188v700l-153 34l20 98h406l20 -98l-152 -34v-677q0 -291 -127 -428.5t-390 -137.5q-249 0 -376 124.5t-127 388.5v730l-154 34l20 98h456l20 -98l-152 -34v-675zM1040 1749q0 -50 -23 -99.5
t-66 -89t-105.5 -64t-141.5 -24.5t-141.5 24.5t-105.5 64t-66 89t-23 99.5l97 10q0 -14 12 -40.5t39.5 -52.5t73.5 -45t114 -19t114 19t73.5 45t39.5 52.5t12 40.5z" />
    <glyph glyph-name="dotaccent" unicode="&#x2d9;" horiz-adv-x="736" 
d="M250 1401q0 28 8 53.5t21.5 44.5t31 30t37.5 11q29 0 54 -7.5t44 -21t29.5 -31.5t10.5 -39q0 -28 -8 -53t-21.5 -44t-31 -30t-37.5 -11q-29 0 -54 8t-44 21.5t-29.5 31t-10.5 37.5z" />
    <glyph glyph-name="cdotaccent" unicode="&#x10b;" horiz-adv-x="972" 
d="M96 492q0 296 126.5 455.5t349.5 159.5q76 0 152.5 -15t152.5 -48l19 -234l-110 -23l-69 179q-34 10 -70 15.5t-78 5.5q-62 0 -121.5 -15t-111.5 -45q-22 -60 -41 -159.5t-19 -215.5v-109q0 -160 93 -252.5t224 -92.5q72 0 145.5 18.5t149.5 54.5v-96q-69 -43 -158.5 -70
t-185.5 -27q-211 0 -329.5 108.5t-118.5 312.5v93zM469 1401q0 28 8 53.5t21.5 44.5t31 30t37.5 11q29 0 54 -7.5t44 -21t29.5 -31.5t10.5 -39q0 -28 -8 -53t-21.5 -44t-31 -30t-37.5 -11q-29 0 -54 8t-44 21.5t-29.5 31t-10.5 37.5z" />
    <glyph glyph-name="edotaccent" unicode="&#x117;" horiz-adv-x="1034" 
d="M276 523v-76q0 -168 92.5 -258.5t220.5 -90.5q83 0 163 18t149 47v-96q-87 -46 -182.5 -67.5t-189.5 -21.5q-206 0 -319.5 112t-113.5 324v83q0 287 127.5 448.5t347.5 161.5q203 0 293 -103.5t90 -360.5v-120h-678zM336 927q-22 -56 -37.5 -136t-19.5 -148h485
q0 182 -52.5 263t-168.5 81q-59 0 -116 -18t-91 -42zM466 1401q0 28 8 53.5t21.5 44.5t31 30t37.5 11q29 0 54 -7.5t44 -21t29.5 -31.5t10.5 -39q0 -28 -8 -53t-21.5 -44t-31 -30t-37.5 -11q-29 0 -54 8t-44 21.5t-29.5 31t-10.5 37.5z" />
    <glyph glyph-name="gdotaccent" unicode="&#x121;" horiz-adv-x="1075" 
d="M824 978l-4 -10q43 -29 75 -87t32 -121v-25q0 -168 -109.5 -267.5t-290.5 -99.5q-65 0 -119 12q-54 -50 -87.5 -94.5t-33.5 -71.5q0 -26 18.5 -40t52.5 -14h224q238 0 356.5 -69t118.5 -217q0 -162 -138.5 -246.5t-393.5 -84.5q-222 0 -327.5 47t-105.5 151
q0 67 54.5 135t154.5 133q-72 14 -113 52t-41 100q0 59 47.5 124t125.5 124q-86 41 -129.5 111t-43.5 150v26q0 196 109 303.5t291 107.5q29 0 73.5 -6.5t79.5 -15.5h314l18 -107h-208zM411 0q-70 -52 -114.5 -109t-44.5 -106q0 -71 73.5 -96.5t259.5 -25.5q77 0 155.5 12.5
t139.5 38.5q17 24 27 57.5t10 67.5q0 91 -72.5 126t-250.5 35h-183zM747 764q0 105 -66 164t-158 59q-46 0 -87 -8.5t-69 -21.5q-21 -54 -30.5 -110t-9.5 -103v-38q0 -97 71 -157.5t153 -60.5q48 0 86.5 7.5t69.5 22.5q17 32 28.5 87.5t11.5 120.5v38zM446 1401q0 28 8 53.5
t21.5 44.5t31 30t37.5 11q29 0 54 -7.5t44 -21t29.5 -31.5t10.5 -39q0 -28 -8 -53t-21.5 -44t-31 -30t-37.5 -11q-29 0 -54 8t-44 21.5t-29.5 31t-10.5 37.5z" />
    <glyph glyph-name="zdotaccent" unicode="&#x17c;" horiz-adv-x="967" 
d="M741 110l52 190l104 -11v-289h-805v95l593 868l-6 12h-400l-52 -190l-104 11v289h782v-83l-601 -880l6 -12h431zM421 1401q0 28 8 53.5t21.5 44.5t31 30t37.5 11q29 0 54 -7.5t44 -21t29.5 -31.5t10.5 -39q0 -28 -8 -53t-21.5 -44t-31 -30t-37.5 -11q-29 0 -54 8
t-44 21.5t-29.5 31t-10.5 37.5z" />
    <glyph glyph-name="dotaccent.case" 
d="M157 1598q0 28 8 53.5t21.5 44.5t31 30t37.5 11q29 0 54 -7.5t44 -21t29.5 -31.5t10.5 -39q0 -28 -8 -53t-21.5 -44t-31 -30t-37.5 -11q-29 0 -54 8t-44 21.5t-29.5 31t-10.5 37.5z" />
    <glyph glyph-name="Cdotaccent" unicode="&#x10a;" horiz-adv-x="1176" 
d="M100 604q0 381 154 576t451 195q95 0 192 -15t171 -44l21 -270l-105 -22l-83 195q-38 12 -97 19.5t-126 7.5q-86 0 -163.5 -23t-135.5 -65q-40 -92 -64.5 -220t-24.5 -255v-133q0 -214 117.5 -328.5t315.5 -114.5q94 0 192.5 29.5t176.5 74.5v-106q-93 -60 -206 -93.5
t-223 -33.5q-278 0 -420.5 134t-142.5 403v89zM569 1598q0 28 8 53.5t21.5 44.5t31 30t37.5 11q29 0 54 -7.5t44 -21t29.5 -31.5t10.5 -39q0 -28 -8 -53t-21.5 -44t-31 -30t-37.5 -11q-29 0 -54 8t-44 21.5t-29.5 31t-10.5 37.5z" />
    <glyph glyph-name="Edotaccent" unicode="&#x116;" horiz-adv-x="1191" 
d="M419 643v-514h481l83 193l104 -23l-24 -299h-967l-20 98l153 34v1089l-153 34l20 98h937l24 -300l-103 -22l-83 193h-452v-452h357l34 122l99 -20v-334l-99 -20l-34 123h-357zM479 1598q0 28 8 53.5t21.5 44.5t31 30t37.5 11q29 0 54 -7.5t44 -21t29.5 -31.5t10.5 -39
q0 -28 -8 -53t-21.5 -44t-31 -30t-37.5 -11q-29 0 -54 8t-44 21.5t-29.5 31t-10.5 37.5z" />
    <glyph glyph-name="Gdotaccent" unicode="&#x120;" horiz-adv-x="1300" 
d="M1092 105q-96 -59 -211 -93t-228 -34q-262 0 -406.5 135t-144.5 392v89q0 378 157.5 579.5t454.5 201.5q98 0 195 -15t168 -42l21 -270l-105 -22l-82 193q-38 11 -98 19t-122 8q-87 0 -165.5 -23.5t-134.5 -64.5q-46 -93 -72.5 -216.5t-26.5 -258.5v-133q0 -211 121 -327
t290 -116q52 0 103 10t96 26v361l-153 34l20 108h455l20 -108l-152 -34v-399zM585 1598q0 28 8 53.5t21.5 44.5t31 30t37.5 11q29 0 54 -7.5t44 -21t29.5 -31.5t10.5 -39q0 -28 -8 -53t-21.5 -44t-31 -30t-37.5 -11q-29 0 -54 8t-44 21.5t-29.5 31t-10.5 37.5z" />
    <glyph glyph-name="Idotaccent" unicode="&#x130;" horiz-adv-x="643" 
d="M225 1221l-153 34l20 98h455l20 -98l-152 -34v-1089l152 -34l-20 -98h-455l-20 98l153 34v1089zM208 1598q0 28 8 53.5t21.5 44.5t31 30t37.5 11q29 0 54 -7.5t44 -21t29.5 -31.5t10.5 -39q0 -28 -8 -53t-21.5 -44t-31 -30t-37.5 -11q-29 0 -54 8t-44 21.5t-29.5 31
t-10.5 37.5z" />
    <glyph glyph-name="Zdotaccent" unicode="&#x17b;" horiz-adv-x="1130" 
d="M1023 1353v-124l-716 -1086l5 -14h557l82 193l103 -22l-24 -300h-948v125l715 1085l-5 14h-516l-82 -193l-104 22l25 300h908zM456 1598q0 28 8 53.5t21.5 44.5t31 30t37.5 11q29 0 54 -7.5t44 -21t29.5 -31.5t10.5 -39q0 -28 -8 -53t-21.5 -44t-31 -30t-37.5 -11
q-29 0 -54 8t-44 21.5t-29.5 31t-10.5 37.5z" />
    <glyph glyph-name="ogonek" unicode="&#x2db;" horiz-adv-x="768" 
d="M523 0q-42 -30 -75.5 -66.5t-57.5 -75t-36.5 -77.5t-12.5 -73q0 -38 18 -51.5t49 -13.5q29 0 57 12.5t51 27.5q26 18 52 40v-93q-24 -25 -57 -44q-28 -17 -66.5 -30t-86.5 -13q-79 0 -118.5 29t-39.5 104q0 64 27 125t72 116.5t103.5 105.5t120.5 94v-117z" />
    <glyph glyph-name="Aogonek" unicode="&#x104;" horiz-adv-x="1218" 
d="M973 0q-42 -30 -75.5 -66.5t-57.5 -75t-36.5 -77.5t-12.5 -73q0 -38 18 -51.5t49 -13.5q29 0 57 12.5t51 27.5q26 18 52 40v-93q-24 -25 -57 -44q-28 -17 -66.5 -30t-86.5 -13q-79 0 -118.5 29t-39.5 104q0 64 27 125t72 116.5t103 105.5q44 37 89 71l-106 312h-491
l-96 -279l128 -29l-20 -98h-344l-20 98l108 29l440 1226h149l429 -1226l108 -29l-20 -98h-233zM389 535h402l-194 569h-10z" />
    <glyph glyph-name="Eogonek" unicode="&#x118;" horiz-adv-x="1191" 
d="M1063 0q-42 -30 -75.5 -66.5t-57.5 -75t-36.5 -77.5t-12.5 -73q0 -38 18 -51.5t49 -13.5q29 0 57 12.5t51 27.5q26 18 52 40v-93q-24 -25 -57 -44q-28 -17 -66.5 -30t-86.5 -13q-79 0 -118.5 29t-39.5 104q0 64 27 125t72 117q34 42 77 82h-820l-20 98l153 34v1089
l-153 34l20 98h937l24 -300l-103 -22l-83 193h-452v-452h357l34 122l99 -20v-334l-99 -20l-34 123h-357v-514h481l83 193l104 -23z" />
    <glyph glyph-name="eogonek" unicode="&#x119;" horiz-adv-x="1034" 
d="M276 523v-76q0 -168 92.5 -258.5t220.5 -90.5q83 0 163 18t149 47v-96q-53 -32 -96 -78t-73 -96.5t-46.5 -99t-16.5 -85.5q0 -38 18 -51.5t49 -13.5q29 0 57 12.5t51 27.5q26 18 52 40v-93q-24 -25 -57 -44q-28 -17 -66.5 -30t-86.5 -13q-79 0 -118.5 29t-39.5 104
q0 64 31.5 132t83.5 133q22 27 46 53q-81 -16 -160 -16q-206 0 -319.5 112t-113.5 324v83q0 287 127.5 448.5t347.5 161.5q203 0 293 -103.5t90 -360.5v-120h-678zM336 927q-22 -56 -37.5 -136t-19.5 -148h485q0 182 -52.5 263t-168.5 81q-59 0 -116 -18t-91 -42z" />
    <glyph glyph-name="Iogonek" unicode="&#x12e;" horiz-adv-x="643" 
d="M371 0q-42 -30 -75.5 -66.5t-57.5 -75t-36.5 -77.5t-12.5 -73q0 -38 18 -51.5t49 -13.5q29 0 57 12.5t51 27.5q26 18 52 40v-93q-24 -25 -57 -44q-28 -17 -66.5 -30t-86.5 -13q-79 0 -118.5 29t-39.5 104q0 64 27 125t72 117q34 42 77 82h-132l-20 98l153 34v1089
l-153 34l20 98h455l20 -98l-152 -34v-1089l152 -34l-20 -98h-176z" />
    <glyph glyph-name="iogonek" unicode="&#x12f;" horiz-adv-x="660" 
d="M415 0q-42 -30 -75.5 -66.5t-57.5 -75t-36.5 -77.5t-12.5 -73q0 -38 18 -51.5t49 -13.5q29 0 57 12.5t51 27.5q26 18 52 40v-93q-24 -25 -57 -44q-28 -17 -66.5 -30t-86.5 -13q-79 0 -118.5 29t-39.5 104q0 64 27 125t72 117q34 42 77 82h-142l-20 98l153 34v821l-153 34
l20 98l313 22v-975l153 -34l-20 -98h-157zM212 1401q0 56 29.5 97.5t68.5 41.5q57 0 97.5 -29t40.5 -70q0 -56 -29.5 -97t-68.5 -41q-56 0 -97 29t-41 69z" />
    <glyph glyph-name="Uogonek" unicode="&#x172;" horiz-adv-x="1358" 
d="M360 546q0 -223 94 -331t259 -108q79 0 148 23t110 53q34 62 56 150t22 188v700l-153 34l20 98h406l20 -98l-152 -34v-677q0 -291 -127 -429q-47 -51 -113 -83q-59 -29 -109.5 -70.5t-87.5 -86t-58.5 -88.5t-21.5 -78q0 -38 18 -51.5t49 -13.5q29 0 57 12.5t51 27.5
q26 18 52 40v-93q-24 -25 -57 -44q-28 -17 -66.5 -30t-86.5 -13q-79 0 -118.5 29t-39.5 104q0 64 27.5 125t78.5 118q28 30 61 59q-13 -1 -26 -1q-249 0 -376 124.5t-127 388.5v730l-154 34l20 98h456l20 -98l-152 -34v-675z" />
    <glyph glyph-name="Oslashacute" unicode="&#x1fe;" horiz-adv-x="1345" 
d="M663 -22q-67 0 -126 8l-67 -216h-140v20l71 228q-94 34 -158 97q-141 138 -141 410v79q0 389 148 580t433 191q75 0 140 -10l55 175h140v-20l-60 -191q84 -33 144 -91q141 -136 141 -411v-78q0 -377 -144 -574t-436 -197zM653 1246q-89 0 -168 -27.5t-124 -60.5
q-30 -92 -49.5 -206.5t-19.5 -248.5v-133q0 -221 112 -342q23 -25 49 -45l328 1047q-58 16 -128 16zM1053 783q0 236 -105 349q-18 21 -40 37l-328 -1048q53 -14 113 -14q88 0 165.5 26.5t126.5 62.5q32 100 50 220t18 234v133zM522 1503l298 281l192 -10v-66l-375 -248
l-115 11v32z" />
    <glyph glyph-name="oslashacute" unicode="&#x1ff;" horiz-adv-x="1114" 
d="M547 -22q-58 0 -108 8l-66 -212h-125v20l71 227q-61 28 -107 73q-116 117 -116 325v93q0 276 126.5 435.5t334.5 159.5q52 0 99 -7l66 211h125v-20l-70 -223q68 -29 119 -78q122 -116 122 -334v-94q0 -265 -126 -424.5t-345 -159.5zM838 622q0 171 -79 266q-13 17 -29 30
l-251 -805q45 -15 98 -15q50 0 103 16t98 44q31 65 45.5 155t14.5 190v119zM537 987q-55 0 -110 -17.5t-91 -42.5q-26 -59 -43 -153t-17 -202v-119q0 -168 86 -262l8 -8l247 794q-37 9 -80 10zM486 1307l203 363l182 -10v-66l-280 -329l-105 10v32z" />
    <glyph glyph-name="uni0326" unicode="&#x326;" horiz-adv-x="0" 
d="M-378 -128h166v-42l-63 -341h-103v383z" />
    <glyph glyph-name="Scedilla" unicode="&#x15e;" horiz-adv-x="1066" 
d="M619 762q188 -110 274.5 -201.5t86.5 -215.5q0 -165 -129 -266q-107 -84 -275 -98l-28 -79q42 -11 77 -25t60.5 -34.5t40 -49t14.5 -68.5t-15.5 -73.5t-45 -57.5t-72 -37.5t-95.5 -13.5q-40 0 -74 7t-60 16q-30 11 -56 24v93q27 -11 57 -20q26 -8 58 -14t65 -6
q20 0 35.5 2t26.5 4q12 3 21 7l7 17q2 8 4.5 19t2.5 23q0 39 -38.5 64t-122.5 45l-34 55l38 101q-82 3 -154 17q-99 18 -158 44l-21 259l117 25l82 -194q37 -11 82.5 -17.5t102.5 -6.5q74 0 141.5 10t125.5 28q10 25 20 66.5t10 98.5q0 63 -59 131.5t-255 186.5
q-254 150 -310.5 232t-56.5 179q0 146 125.5 241t346.5 95q84 0 168.5 -12t163.5 -40l21 -270l-105 -22l-82 193q-41 11 -83.5 16.5t-88.5 5.5q-77 0 -144 -11t-113 -27q-9 -30 -14 -63.5t-5 -70.5q0 -71 59.5 -130.5t260.5 -181.5z" />
    <glyph glyph-name="scedilla" unicode="&#x15f;" horiz-adv-x="970" 
d="M571 621q208 -106 263.5 -181.5t55.5 -168.5q0 -130 -115 -212q-95 -67 -241 -78l-28 -79q42 -11 77 -25t60.5 -34.5t40 -49t14.5 -68.5t-15.5 -73.5t-45 -57.5t-72 -37.5t-95.5 -13.5q-40 0 -74 7t-60 16q-30 11 -56 24v93q27 -11 57 -20q26 -8 58 -14t65 -6
q20 0 35.5 2t26.5 4q12 3 21 7l7 17q2 8 4.5 19t2.5 23q0 39 -38.5 64t-122.5 45l-34 55l39 102q-63 5 -120 18q-89 21 -145 49l-10 240l109 20l58 -187q39 -12 86 -17.5t95 -5.5q54 0 107.5 6.5t108.5 21.5q10 21 15 47.5t5 51.5q0 71 -64 127.5t-248 153.5
q-166 87 -223 156t-57 158q0 125 105 206t298 81q90 0 175 -18.5t146 -49.5l9 -241l-109 -20l-59 189q-40 11 -85 15.5t-83 4.5q-53 0 -103 -7.5t-92 -20.5q-9 -16 -15.5 -41.5t-6.5 -52.5q0 -54 45.5 -101.5t227.5 -142.5z" />
    <glyph glyph-name="Ldot" unicode="&#x13f;" horiz-adv-x="1028" 
d="M227 1221l-153 34l20 98h455l20 -98l-152 -34v-1092h336l83 193l104 -22l-25 -300h-821l-20 98l153 34v1089zM764 654q0 31 7 59t19.5 49t29 33.5t34.5 12.5q33 0 61 -7t48.5 -19.5t32.5 -29.5t12 -36q0 -30 -7 -58t-19.5 -49t-29 -33.5t-35.5 -12.5q-32 0 -60 7
t-48.5 19.5t-32.5 29t-12 35.5z" />
    <glyph glyph-name="ldot" unicode="&#x140;" horiz-adv-x="792" 
d="M246 1408l-153 34l20 98l313 22v-1430l153 -34l-20 -98h-446l-20 98l153 34v1276zM608 654q0 31 7 59t19.5 49t29 33.5t34.5 12.5q33 0 61 -7t48.5 -19.5t32.5 -29.5t12 -36q0 -30 -7 -58t-19.5 -49t-29 -33.5t-35.5 -12.5q-32 0 -60 7t-48.5 19.5t-32.5 29t-12 35.5z
" />
    <glyph glyph-name="Dcroat" unicode="&#x110;" horiz-adv-x="1362" 
d="M78 758h153v463l-153 34l20 98h540q154 0 268.5 -39.5t190 -115t112.5 -185t37 -248.5v-78q0 -157 -39.5 -284t-114.5 -216.5t-183.5 -138t-247.5 -48.5h-563l-20 98l153 34v497h-153v129zM421 1224v-466h290v-129h-290v-500h211q60 0 111 7.5t88 16.5q43 11 79 25
q40 52 73 120q27 58 50 139.5t23 184.5v94q0 118 -28 212t-84.5 160t-142.5 101t-202 35h-178z" />
    <glyph glyph-name="dcroat" unicode="&#x111;" horiz-adv-x="1186" 
d="M979 1333h153v-100h-153v-1101l153 -34l-20 -98l-235 -22l-58 177q-21 -27 -51 -58t-71 -57.5t-94.5 -44t-122.5 -17.5q-85 0 -155 26.5t-120.5 80.5t-78.5 135.5t-28 192.5v93q0 137 31 248t91 189.5t149.5 121t206.5 42.5q53 0 111 -7t112 -17v150h-360v100h360v75
l-153 34l20 98l313 22v-229zM278 434q0 -94 21.5 -158t57.5 -103.5t82.5 -57t95.5 -17.5q54 0 102 19.5t84 43.5q42 28 78 64v735q-43 9 -107 18t-136 9q-54 0 -96.5 -10.5t-71.5 -23.5q-34 -15 -60 -33q-14 -44 -25 -100q-10 -48 -17.5 -115t-7.5 -152v-119z" />
    <glyph glyph-name="Hbar" unicode="&#x126;" horiz-adv-x="1459" 
d="M84 1085h141v136l-153 34l20 98h455l20 -98l-152 -34v-136h624v136l-152 34l20 98h456l20 -98l-154 -34v-136h166v-129h-166v-824l154 -34l-20 -98h-456l-20 98l152 34v517h-624v-517l152 -34l-20 -98h-455l-20 98l153 34v824h-141v129zM1039 778v178h-624v-178h624z" />
    <glyph glyph-name="hbar" unicode="&#x127;" horiz-adv-x="1324" 
d="M83 98l153 34v1071h-153v120h153v85l-153 34l20 98l313 22v-239h360v-120h-360v-256l14 -6q62 79 146 122.5t185 43.5q178 0 262.5 -94t84.5 -287v-594l153 -34l-20 -98h-446l-20 98l153 34v560q0 159 -53.5 227t-172.5 68q-76 0 -153.5 -43t-132.5 -106v-706l153 -34
l-20 -98h-446z" />
    <glyph glyph-name="Lslash" unicode="&#x141;" horiz-adv-x="1018" 
d="M27 549l200 116v556l-153 34l20 98h455l20 -98l-152 -34v-446l339 196v-138l-339 -197v-507h336l83 193l104 -22l-25 -300h-821l-20 98l153 34v394l-200 -116v139z" />
    <glyph glyph-name="lslash" unicode="&#x142;" horiz-adv-x="642" 
d="M0 684l246 141v583l-153 34l20 98l313 22v-633l235 135v-138l-235 -136v-658l153 -34l-20 -98h-446l-20 98l153 34v555l-246 -142v139z" />
    <glyph glyph-name="uacute" unicode="&#xfa;" horiz-adv-x="1262" 
d="M371 403q0 -156 55 -230.5t187 -74.5q72 0 143 34t127 93v728l-183 34l20 98l343 22v-975l153 -34l-20 -98l-235 -22l-58 178q-81 -95 -171.5 -136.5t-199.5 -41.5q-168 0 -254.5 95t-86.5 286v594l-153 34l20 98l313 22v-704zM527 1307l203 363l182 -10v-66l-280 -329
l-105 10v32z" />
    <glyph glyph-name="ugrave" unicode="&#xf9;" horiz-adv-x="1262" 
d="M371 403q0 -156 55 -230.5t187 -74.5q72 0 143 34t127 93v728l-183 34l20 98l343 22v-975l153 -34l-20 -98l-235 -22l-58 178q-81 -95 -171.5 -136.5t-199.5 -41.5q-168 0 -254.5 95t-86.5 286v594l-153 34l20 98l313 22v-704zM712 1275l-118 -10l-290 329v66l175 10
l233 -363v-32z" />
    <glyph glyph-name="atilde" unicode="&#xe3;" horiz-adv-x="1150" 
d="M939 132l173 -34l-20 -98l-255 -22l-58 177q-78 -95 -167 -136t-193 -41q-140 0 -225.5 70t-85.5 189q0 183 162 276.5t489 93.5v95q0 150 -54.5 217.5t-190.5 67.5q-32 0 -73.5 -4t-76.5 -11l-60 -212l-98 10v283q60 21 148.5 37.5t178.5 16.5q205 0 305.5 -90.5
t100.5 -281.5v-603zM759 487q-150 0 -266 -19.5t-177 -52.5q-12 -28 -20 -64t-8 -76q0 -83 55 -130t144 -47q75 0 148 37.5t124 89.5v262zM150 1307q0 113 58.5 171t161.5 58q54 0 109.5 -20.5t106 -45.5l93.5 -45.5t72 -20.5q38 0 60.5 29.5t22.5 90.5l117 10v-47
q0 -106 -53.5 -167.5t-154.5 -61.5q-49 0 -106.5 20.5t-113 45.5l-102.5 45.5t-75 20.5q-20 0 -36.5 -4t-27.5 -15t-17 -30t-6 -49l-109 -10v25z" />
    <glyph glyph-name="ntilde" unicode="&#xf1;" horiz-adv-x="1346" 
d="M106 98l153 34v821l-153 34l20 98l235 22l58 -178q74 84 167 131t196 47q179 0 264 -93.5t85 -287.5v-594l153 -34l-20 -98h-446l-20 98l153 34v550q0 153 -49.5 229t-178.5 76q-67 0 -140.5 -33t-143.5 -96v-726l153 -34l-20 -98h-446zM307 1307q0 113 58.5 171
t161.5 58q54 0 109.5 -20.5t106 -45.5l93.5 -45.5t72 -20.5q38 0 60.5 29.5t22.5 90.5l117 10v-47q0 -106 -53.5 -167.5t-154.5 -61.5q-49 0 -106.5 20.5t-113 45.5l-102.5 45.5t-75 20.5q-20 0 -36.5 -4t-27.5 -15t-17 -30t-6 -49l-109 -10v25z" />
    <glyph glyph-name="itilde" unicode="&#x129;" horiz-adv-x="660" 
d="M439 132l153 -34l-20 -98h-446l-20 98l153 34v821l-153 34l20 98l313 22v-975zM-86 1307q0 113 58.5 171t161.5 58q54 0 109.5 -20.5t106 -45.5l93.5 -45.5t72 -20.5q38 0 60.5 29.5t22.5 90.5l117 10v-47q0 -106 -53.5 -167.5t-154.5 -61.5q-49 0 -106.5 20.5t-113 45.5
l-102.5 45.5t-75 20.5q-20 0 -36.5 -4t-27.5 -15t-17 -30t-6 -49l-109 -10v25z" />
    <glyph glyph-name="utilde" unicode="&#x169;" horiz-adv-x="1262" 
d="M371 403q0 -156 55 -230.5t187 -74.5q72 0 143 34t127 93v728l-183 34l20 98l343 22v-975l153 -34l-20 -98l-235 -22l-58 178q-81 -95 -171.5 -136.5t-199.5 -41.5q-168 0 -254.5 95t-86.5 286v594l-153 34l20 98l313 22v-704zM206 1307q0 113 58.5 171t161.5 58
q54 0 109.5 -20.5t106 -45.5l93.5 -45.5t72 -20.5q38 0 60.5 29.5t22.5 90.5l117 10v-47q0 -106 -53.5 -167.5t-154.5 -61.5q-49 0 -106.5 20.5t-113 45.5l-102.5 45.5t-75 20.5q-20 0 -36.5 -4t-27.5 -15t-17 -30t-6 -49l-109 -10v25z" />
    <glyph glyph-name="igrave" unicode="&#xec;" horiz-adv-x="660" 
d="M439 132l153 -34l-20 -98h-446l-20 98l153 34v821l-153 34l20 98l313 22v-975zM420 1275l-118 -10l-290 329v66l175 10l233 -363v-32z" />
    <glyph glyph-name="iacute" unicode="&#xed;" horiz-adv-x="660" 
d="M439 132l153 -34l-20 -98h-446l-20 98l153 34v821l-153 34l20 98l313 22v-975zM235 1307l203 363l182 -10v-66l-280 -329l-105 10v32z" />
    <glyph glyph-name="ograve" unicode="&#xf2;" horiz-adv-x="1114" 
d="M547 -22q-218 0 -334.5 116.5t-116.5 324.5v93q0 276 126.5 435.5t334.5 159.5q218 0 339.5 -116.5t121.5 -334.5v-94q0 -265 -126 -424.5t-345 -159.5zM838 622q0 171 -78.5 266.5t-222.5 98.5q-55 0 -110 -17.5t-91 -42.5q-26 -59 -43 -153t-17 -202v-119
q0 -168 86.5 -261.5t214.5 -93.5q50 0 103 16t98 44q31 65 45.5 155t14.5 190v119zM671 1275l-118 -10l-290 329v66l175 10l233 -363v-32z" />
    <glyph glyph-name="oacute" unicode="&#xf3;" horiz-adv-x="1114" 
d="M547 -22q-218 0 -334.5 116.5t-116.5 324.5v93q0 276 126.5 435.5t334.5 159.5q218 0 339.5 -116.5t121.5 -334.5v-94q0 -265 -126 -424.5t-345 -159.5zM838 622q0 171 -78.5 266.5t-222.5 98.5q-55 0 -110 -17.5t-91 -42.5q-26 -59 -43 -153t-17 -202v-119
q0 -168 86.5 -261.5t214.5 -93.5q50 0 103 16t98 44q31 65 45.5 155t14.5 190v119zM486 1307l203 363l182 -10v-66l-280 -329l-105 10v32z" />
    <glyph glyph-name="ocircumflex" unicode="&#xf4;" horiz-adv-x="1114" 
d="M547 -22q-218 0 -334.5 116.5t-116.5 324.5v93q0 276 126.5 435.5t334.5 159.5q218 0 339.5 -116.5t121.5 -334.5v-94q0 -265 -126 -424.5t-345 -159.5zM838 622q0 171 -78.5 266.5t-222.5 98.5q-55 0 -110 -17.5t-91 -42.5q-26 -59 -43 -153t-17 -202v-119
q0 -168 86.5 -261.5t214.5 -93.5q50 0 103 16t98 44q31 65 45.5 155t14.5 190v119zM868 1275l-125 -10l-193 252l-186 -252l-95 10v32l233 373l133 -10l233 -363v-32z" />
    <glyph glyph-name="otilde" unicode="&#xf5;" horiz-adv-x="1114" 
d="M547 -22q-218 0 -334.5 116.5t-116.5 324.5v93q0 276 126.5 435.5t334.5 159.5q218 0 339.5 -116.5t121.5 -334.5v-94q0 -265 -126 -424.5t-345 -159.5zM838 622q0 171 -78.5 266.5t-222.5 98.5q-55 0 -110 -17.5t-91 -42.5q-26 -59 -43 -153t-17 -202v-119
q0 -168 86.5 -261.5t214.5 -93.5q50 0 103 16t98 44q31 65 45.5 155t14.5 190v119zM165 1307q0 113 58.5 171t161.5 58q54 0 109.5 -20.5t106 -45.5l93.5 -45.5t72 -20.5q38 0 60.5 29.5t22.5 90.5l117 10v-47q0 -106 -53.5 -167.5t-154.5 -61.5q-49 0 -106.5 20.5
t-113 45.5l-102.5 45.5t-75 20.5q-20 0 -36.5 -4t-27.5 -15t-17 -30t-6 -49l-109 -10v25z" />
    <glyph glyph-name="multiply" unicode="&#xd7;" horiz-adv-x="1021" 
d="M264 944l246 -247l247 247l104 -104l-247 -247l247 -246l-104 -104l-247 246l-246 -246l-104 104l246 246l-246 247z" />
    <glyph glyph-name="divide" unicode="&#xf7;" horiz-adv-x="1173" 
d="M160 667h853v-147h-853v147zM487 182q0 28 6.5 53t17.5 44t25.5 30t31.5 11q29 0 54 -6.5t43.5 -18t29 -26.5t10.5 -32q0 -27 -6.5 -51.5t-17.5 -43.5t-26 -30t-32 -11q-29 0 -53.5 6.5t-43 17.5t-29 25.5t-10.5 31.5zM487 947q0 28 6.5 53t17.5 44t25.5 30t31.5 11
q29 0 54 -6.5t43.5 -18t29 -26.5t10.5 -32q0 -27 -6.5 -51.5t-17.5 -43.5t-26 -30t-32 -11q-29 0 -53.5 6.5t-43 17.5t-29 25.5t-10.5 31.5z" />
    <glyph glyph-name="fraction" unicode="&#x2044;" horiz-adv-x="1324" 
d="M1099 1353h105v-20l-979 -1333h-105v20z" />
    <glyph glyph-name="hungarumlaut" unicode="&#x2dd;" horiz-adv-x="1063" 
d="M150 1307l203 363l182 -10v-66l-280 -329l-105 10v32zM528 1307l203 363l182 -10v-66l-280 -329l-105 10v32z" />
    <glyph glyph-name="uhungarumlaut" unicode="&#x171;" horiz-adv-x="1262" 
d="M371 403q0 -156 55 -230.5t187 -74.5q72 0 143 34t127 93v728l-183 34l20 98l343 22v-975l153 -34l-20 -98l-235 -22l-58 178q-81 -95 -171.5 -136.5t-199.5 -41.5q-168 0 -254.5 95t-86.5 286v594l-153 34l20 98l313 22v-704zM330 1307l203 363l182 -10v-66l-280 -329
l-105 10v32zM708 1307l203 363l182 -10v-66l-280 -329l-105 10v32z" />
    <glyph glyph-name="ohungarumlaut" unicode="&#x151;" horiz-adv-x="1114" 
d="M547 -22q-218 0 -334.5 116.5t-116.5 324.5v93q0 276 126.5 435.5t334.5 159.5q218 0 339.5 -116.5t121.5 -334.5v-94q0 -265 -126 -424.5t-345 -159.5zM838 622q0 171 -78.5 266.5t-222.5 98.5q-55 0 -110 -17.5t-91 -42.5q-26 -59 -43 -153t-17 -202v-119
q0 -168 86.5 -261.5t214.5 -93.5q50 0 103 16t98 44q31 65 45.5 155t14.5 190v119zM289 1307l203 363l182 -10v-66l-280 -329l-105 10v32zM667 1307l203 363l182 -10v-66l-280 -329l-105 10v32z" />
    <glyph glyph-name="Aring" unicode="&#xc5;" horiz-adv-x="1218" 
d="M-8 98l108 29l440 1226h149l429 -1226l108 -29l-20 -98h-385l-20 98l128 29l-94 279h-491l-96 -279l128 -29l-20 -98h-344zM389 535h402l-194 569h-10zM431 1570q0 52 16 92t43 67t63 41t77 14q36 0 68.5 -9t57 -27.5t38.5 -47t14 -66.5q0 -55 -15.5 -95.5t-42.5 -66.5
t-63 -39t-77 -13q-37 0 -69.5 9.5t-57 28t-38.5 46.5t-14 66zM531 1602q0 -48 26.5 -76t62.5 -28q17 0 31.5 2.5t25.5 6.5q12 4 23 10q2 10 4 23q2 11 3.5 26.5t1.5 35.5q0 49 -26.5 77t-62.5 28q-17 0 -31 -3t-25 -7q-13 -4 -24 -9q-3 -7 -5 -18q-2 -10 -3 -26t-1 -42z" />
    <glyph glyph-name="hungarumlaut.case" 
d="M-166 1503l298 281l192 -10v-66l-375 -248l-115 11v32zM253 1503l298 281l192 -10v-66l-375 -248l-115 11v32z" />
    <glyph glyph-name="Uhungarumlaut" unicode="&#x170;" horiz-adv-x="1358" 
d="M360 546q0 -223 94 -331t259 -108q79 0 148 23t110 53q34 62 56 150t22 188v700l-153 34l20 98h406l20 -98l-152 -34v-677q0 -291 -127 -428.5t-390 -137.5q-249 0 -376 124.5t-127 388.5v730l-154 34l20 98h456l20 -98l-152 -34v-675zM391 1503l298 281l192 -10v-66
l-375 -248l-115 11v32zM810 1503l298 281l192 -10v-66l-375 -248l-115 11v32z" />
    <glyph glyph-name="Ohungarumlaut" unicode="&#x150;" horiz-adv-x="1345" 
d="M663 -22q-279 0 -420 137.5t-141 409.5v79q0 389 148 580t433 191q278 0 419 -136.5t141 -411.5v-78q0 -377 -144 -574t-436 -197zM1053 783q0 236 -104.5 349.5t-295.5 113.5q-89 0 -168 -27.5t-124 -60.5q-30 -92 -49.5 -206.5t-19.5 -248.5v-133q0 -221 112.5 -342
t288.5 -121q88 0 165.5 26.5t126.5 62.5q32 100 50 220t18 234v133zM349 1503l298 281l192 -10v-66l-375 -248l-115 11v32zM768 1503l298 281l192 -10v-66l-375 -248l-115 11v32z" />
    <glyph glyph-name="uni0302" unicode="&#x302;" horiz-adv-x="0" 
d="M-148 1275l-125 -10l-193 252l-186 -252l-95 10v32l233 373l133 -10l233 -363v-32z" />
    <glyph glyph-name="tildecomb" unicode="&#x303;" horiz-adv-x="0" 
d="M-1015 1307q0 113 58.5 171t161.5 58q54 0 109.5 -20.5t106 -45.5l93.5 -45.5t72 -20.5q38 0 60.5 29.5t22.5 90.5l117 10v-47q0 -106 -53.5 -167.5t-154.5 -61.5q-49 0 -106.5 20.5t-113 45.5l-102.5 45.5t-75 20.5q-20 0 -36.5 -4t-27.5 -15t-17 -30t-6 -49l-109 -10
v25z" />
    <glyph glyph-name="uni0304" unicode="&#x304;" horiz-adv-x="0" 
d="M-860 1473h710l-21 -120h-709z" />
    <glyph glyph-name="uni0306" unicode="&#x306;" horiz-adv-x="0" 
d="M-120 1592q0 -54 -21.5 -107t-61.5 -95t-96.5 -68.5t-126.5 -26.5t-126.5 26.5t-96.5 68.5t-61.5 95t-21.5 107l97 10q0 -16 12 -45.5t37.5 -59t65 -51t94.5 -21.5t94.5 21.5t65 51t37.5 59t12 45.5z" />
    <glyph glyph-name="uni0307" unicode="&#x307;" horiz-adv-x="0" 
d="M-357 1401q0 28 8 53.5t21.5 44.5t31 30t37.5 11q29 0 54 -7.5t44 -21t29.5 -31.5t10.5 -39q0 -28 -8 -53t-21.5 -44t-31 -30t-37.5 -11q-29 0 -54 8t-44 21.5t-29.5 31t-10.5 37.5z" />
    <glyph glyph-name="uni030A" unicode="&#x30a;" horiz-adv-x="0" 
d="M-473 1436q0 59 17 103t45.5 73t66.5 43.5t80 14.5q38 0 72.5 -10t60 -30.5t40.5 -52.5t15 -77q0 -62 -16 -106.5t-44.5 -73t-66.5 -42t-81 -13.5q-39 0 -73.5 10t-60 31t-40.5 53.5t-15 76.5zM-368 1468q0 -30 8 -54.5t21 -41t30 -25.5t35 -9q17 0 33 2.5t27 6.5
q13 4 25 10q2 11 4 28q2 14 3.5 35t1.5 48q0 30 -8 54.5t-21 41t-30 25.5t-35 9q-14 0 -27.5 -3t-24.5 -7q-12 -4 -23 -9q-6 -10 -10 -26q-4 -14 -6.5 -35t-2.5 -50z" />
    <glyph glyph-name="uni030B" unicode="&#x30b;" horiz-adv-x="0" 
d="M-862 1307l203 363l182 -10v-66l-280 -329l-105 10v32zM-484 1307l203 363l182 -10v-66l-280 -329l-105 10v32z" />
    <glyph glyph-name="uni030C" unicode="&#x30c;" horiz-adv-x="0" 
d="M-761 1660l125 10l193 -252l186 252l95 -10v-32l-233 -373l-133 10l-233 363v32z" />
    <glyph glyph-name="Tbar" unicode="&#x166;" horiz-adv-x="1139" 
d="M203 729h272v495h-300l-62 -170l-99 9l15 290h1082l14 -290l-98 -9l-63 170h-299v-495h309l-20 -120h-289v-477l153 -34l-20 -98h-456l-20 98l153 34v477h-291z" />
    <glyph glyph-name="tbar" unicode="&#x167;" horiz-adv-x="742" 
d="M6 667h183v287l-161 32l20 99h141l73 293l107 -20v-273h290l20 -99l-310 -32v-287h328l-20 -120h-308v-238q0 -106 31.5 -158.5t127.5 -52.5q32 0 71 10t81 29v-94q-46 -30 -105.5 -47.5t-119.5 -17.5q-140 0 -203 72t-63 220v277h-202z" />
    <glyph glyph-name="longs" unicode="&#x17f;" horiz-adv-x="736" 
d="M259 1193q0 101 22 171.5t62 114.5t94.5 63.5t120.5 19.5q36 0 68 -6t56 -13q28 -8 53 -18l-43 -131q-35 11 -73 20q-32 8 -72 14.5t-78 6.5q-9 -22 -15 -55q-6 -28 -10.5 -70t-4.5 -101v-1209h-313l-20 98l153 34v821l-163 34l20 98h143v108v0z" />
    <glyph glyph-name="florin" unicode="&#x192;" horiz-adv-x="769" 
d="M461 691h211v-110h-211v-628q0 -119 -21.5 -198t-61.5 -126t-97 -66.5t-127 -19.5q-45 0 -83 5.5t-66 12.5q-33 8 -60 19l36 131q42 -12 87 -21q38 -8 84 -14t89 -6q11 24 20 59q8 30 14 76t6 109v667h-211v110h211v502q0 101 22 171.5t62 114.5t94.5 63.5t120.5 19.5
q36 0 68 -6t56 -13q28 -8 53 -18l-43 -131q-35 11 -73 20q-32 8 -72 14.5t-78 6.5q-9 -22 -15 -55q-6 -28 -10.5 -70t-4.5 -101v-518z" />
    <glyph glyph-name="uni0327" unicode="&#x327;" horiz-adv-x="0" 
d="M-595 37l-49 -135q42 -11 77 -25t60.5 -34.5t40 -49t14.5 -68.5t-15.5 -73.5t-45 -57.5t-72 -37.5t-95.5 -13.5q-40 0 -74 7t-60 16q-30 11 -56 24v93q27 -11 57 -20q26 -8 58 -14t65 -6q20 0 35.5 2t26.5 4q12 3 21 7l7 17q2 8 4.5 19t2.5 23q0 39 -38.5 64t-122.5 45
l-34 55l61 158h132z" />
    <glyph glyph-name="uni0328" unicode="&#x328;" horiz-adv-x="0" 
d="M-538 0q-42 -30 -75.5 -66.5t-57.5 -75t-36.5 -77.5t-12.5 -73q0 -38 18 -51.5t49 -13.5q29 0 57 12.5t51 27.5q26 18 52 40v-93q-24 -25 -57 -44q-28 -17 -66.5 -30t-86.5 -13q-79 0 -118.5 29t-39.5 104q0 64 27 125t72 116.5t103.5 105.5t120.5 94v-117z" />
    <glyph glyph-name="plusminus" unicode="&#xb1;" horiz-adv-x="1063" 
d="M605 1085v-318h298v-147h-298v-318h-147v318h-298v147h298v318h147zM187 147h693v-147h-693v147z" />
    <glyph glyph-name="copyright" unicode="&#xa9;" horiz-adv-x="1467" 
d="M455 919q0 97 21 169.5t60 120.5t94 72t123 24q44 0 79 -6t60 -13q29 -9 52 -19l12 -193l-68 -14l-44 137q-11 3 -25 6q-12 2 -29 4t-38 2q-29 0 -52 -4.5t-39 -9.5q-19 -6 -33 -14q-7 -27 -12 -61q-5 -29 -8 -70.5t-3 -92.5v-68q0 -51 14.5 -88t38 -61.5t52 -36
t57.5 -11.5q36 0 69 7t59 16q30 10 57 23v-84q-28 -17 -61 -30q-29 -11 -68.5 -20t-87.5 -9q-61 0 -112.5 16t-88.5 48.5t-58 82.5t-21 119v58zM259 949q0 -99 37 -185.5t101.5 -151t151 -101.5t185.5 -37t185.5 37t151 101.5t101.5 151t37 185.5t-37 185.5t-101.5 151
t-151 101.5t-185.5 37t-185.5 -37t-151 -101.5t-101.5 -151t-37 -185.5zM120 949q0 127 48.5 239t131.5 195t195 131t239 48t239 -48t195 -131t131 -195t48 -239t-48 -239t-131 -195t-195 -131.5t-239 -48.5q-85 0 -163.5 22t-146.5 62t-124 96t-96 124t-62 146.5t-22 163.5
z" />
    <glyph glyph-name="registered" unicode="&#xae;" horiz-adv-x="1467" 
d="M120 949q0 127 48.5 239t131.5 195t195 131t239 48t239 -48t195 -131t131 -195t48 -239t-48 -239t-131 -195t-195 -131.5t-239 -48.5q-85 0 -163.5 22t-146.5 62t-124 96t-96 124t-62 146.5t-22 163.5zM259 949q0 -99 37 -185.5t101.5 -151t151 -101.5t185.5 -37
t185.5 37t151 101.5t101.5 151t37 185.5t-37 185.5t-101.5 151t-151 101.5t-185.5 37t-185.5 -37t-151 -101.5t-101.5 -151t-37 -185.5zM547 1199l-70 17l9 55h261q103 0 156 -40.5t53 -127.5q0 -67 -30 -108t-74 -68v-6l124 -207l72 -14l-9 -55h-156l-155 266h-59v-196
l70 -15l-9 -55h-244l-9 55l70 15v484zM669 1187v-192h56q22 0 39 2.5t29 5.5q14 4 25 9l7 23l4.5 26t2.5 33q0 38 -27 65.5t-90 27.5h-46z" />
    <glyph glyph-name="Wgrave" unicode="&#x1e80;" horiz-adv-x="1998" 
d="M403 1254l-149 -29l335 -993h16l342 1121h191l334 -1121h16l304 993l-153 29l20 99h363l20 -99l-103 -27l-386 -1227h-191l-333 1107h-16l-337 -1107h-192l-422 1227l-106 27l20 99h407zM1228 1471l-115 -11l-375 248v66l192 10l298 -281v-32z" />
    <glyph glyph-name="Wacute" unicode="&#x1e82;" horiz-adv-x="1998" 
d="M403 1254l-149 -29l335 -993h16l342 1121h191l334 -1121h16l304 993l-153 29l20 99h363l20 -99l-103 -27l-386 -1227h-191l-333 1107h-16l-337 -1107h-192l-422 1227l-106 27l20 99h407zM906 1503l298 281l192 -10v-66l-375 -248l-115 11v32z" />
    <glyph glyph-name="Wdieresis" unicode="&#x1e84;" horiz-adv-x="1998" 
d="M403 1254l-149 -29l335 -993h16l342 1121h191l334 -1121h16l304 993l-153 29l20 99h363l20 -99l-103 -27l-386 -1227h-191l-333 1107h-16l-337 -1107h-192l-422 1227l-106 27l20 99h407zM711 1581q0 25 7 48t19.5 40.5t28.5 27.5t34 10q26 0 49 -7t39.5 -19t26 -28.5
t9.5 -35.5q0 -25 -7 -47.5t-19 -40t-28 -27.5t-34 -10q-26 0 -49 7t-40 19.5t-26.5 28.5t-9.5 34zM1171 1581q0 25 7 48t19 40.5t28 27.5t34 10q26 0 49 -7t40 -19t26.5 -28.5t9.5 -35.5q0 -25 -7 -47.5t-19.5 -40t-28.5 -27.5t-34 -10q-26 0 -49 7t-39.5 19.5t-26 28.5
t-9.5 34z" />
    <glyph glyph-name="logicalnot" unicode="&#xac;" horiz-adv-x="1193" 
d="M140 769h893v-464h-147v317h-746v147z" />
    <glyph glyph-name="uni02C9" unicode="&#x2c9;" horiz-adv-x="1030" 
d="M170 1473h710l-21 -120h-709z" />
    <glyph glyph-name="uni0237" unicode="&#x237;" horiz-adv-x="569" 
d="M412 -47q0 -119 -21.5 -198t-61.5 -126t-97 -66.5t-127 -19.5q-45 0 -83 5.5t-66 12.5q-33 8 -60 19l36 131q42 -12 87 -21q38 -8 84 -14t89 -6q11 24 20 59q8 30 14 76t6 109v1039l-183 34l20 98l343 22v-1154z" />
    <glyph glyph-name="perthousand" unicode="&#x2030;" horiz-adv-x="2330" 
d="M1212 1353h175v-20l-966 -1333h-175v20zM108 1074q0 62 23.5 117t64.5 96t95.5 64.5t117.5 23.5q62 0 117 -23.5t96 -64.5t64.5 -96t23.5 -117q0 -63 -23.5 -117.5t-64.5 -95.5t-96 -64.5t-117 -23.5q-63 0 -117.5 23.5t-95.5 64.5t-64.5 95.5t-23.5 117.5zM244 1074
q0 -47 13 -82.5t35.5 -59.5t52.5 -36t64 -12t64 12t52.5 36t35.5 59.5t13 82.5q0 46 -13 81.5t-35.5 59.5t-52.5 36.5t-64 12.5t-64 -12.5t-52.5 -36.5t-35.5 -59.5t-13 -81.5zM928 279q0 62 23.5 117t64.5 96t95.5 64.5t117.5 23.5q62 0 117 -23.5t96 -64.5t64.5 -96
t23.5 -117q0 -63 -23.5 -117.5t-64.5 -95.5t-96 -64.5t-117 -23.5q-63 0 -117.5 23.5t-95.5 64.5t-64.5 95.5t-23.5 117.5zM1064 279q0 -47 13 -82.5t35.5 -59.5t52.5 -36t64 -12t64 12t52.5 36t35.5 59.5t13 82.5q0 46 -13 81.5t-35.5 59.5t-52.5 36.5t-64 12.5t-64 -12.5
t-52.5 -36.5t-35.5 -59.5t-13 -81.5zM1616 279q0 62 23.5 117t64.5 96t95.5 64.5t117.5 23.5q62 0 117 -23.5t96 -64.5t64.5 -96t23.5 -117q0 -63 -23.5 -117.5t-64.5 -95.5t-96 -64.5t-117 -23.5q-63 0 -117.5 23.5t-95.5 64.5t-64.5 95.5t-23.5 117.5zM1752 279
q0 -47 13 -82.5t35.5 -59.5t52.5 -36t64 -12t64 12t52.5 36t35.5 59.5t13 82.5q0 46 -13 81.5t-35.5 59.5t-52.5 36.5t-64 12.5t-64 -12.5t-52.5 -36.5t-35.5 -59.5t-13 -81.5z" />
    <glyph glyph-name="peseta" unicode="&#x20a7;" horiz-adv-x="2575" 
d="M227 1221l-153 34l20 98h501q198 0 313 -66t138 -206l1 4h143l73 293l107 -20v-273h275l20 -99l-295 -32v-639q0 -69 10.5 -111.5t30.5 -66t50 -31.5t68 -8q26 0 53.5 5.5t49.5 13.5q26 9 49 20v-94q-28 -19 -62 -33q-30 -12 -71 -22t-92 -10q-56 0 -104.5 12.5t-84.5 45
t-56.5 89t-20.5 145.5v684l-139 27q-5 -93 -41.5 -164t-95.5 -119t-135.5 -72.5t-160.5 -24.5h-201v-469l212 -34l-20 -98h-515l-20 98l153 34v1089zM2176 621l127.5 -71t101 -74t66.5 -89.5t24 -116.5q0 -76 -27 -131t-79 -91t-128.5 -53t-174.5 -17q-81 0 -144 10.5
t-108 24.5q-53 15 -93 35l-20 230l109 20l68 -177q20 -7 46 -12q22 -5 53.5 -8t71.5 -3q50 0 91 4.5t71 9.5q35 6 64 15q6 12 10 27q4 13 7 31t3 40q0 42 -20.5 76t-60 66t-98 65l-133.5 74q-56 30 -106.5 61t-89 68.5t-61.5 85.5t-23 113q0 54 18 103.5t63 87t122 60
t195 22.5q75 0 133.5 -10.5t99.5 -23.5q48 -15 83 -34l19 -231l-109 -20l-69 178q-20 6 -44 10q-20 4 -48 7.5t-61 3.5q-47 0 -83.5 -4t-62.5 -9q-31 -6 -54 -13q-7 -11 -11 -26q-5 -13 -8 -30.5t-3 -39.5q0 -35 16 -63t50 -56t85 -58t122 -67zM417 1224v-494h160
q57 0 102.5 5.5t78.5 13.5q39 8 69 19q8 27 15 60q6 28 11 64t5 76q0 57 -18.5 104t-57 80.5t-97 52.5t-138.5 19h-130z" />
    <glyph glyph-name="franc" unicode="&#x20a3;" horiz-adv-x="1119" 
d="M435 643v-212h229v-107h-229v-192l202 -34l-20 -98h-505l-20 98l153 34v192h-224v107h224v790l-153 34l20 98h877l24 -300l-103 -22l-83 193h-392v-452h320l34 122l98 -20v-334l-98 -20l-34 123h-320z" />
    <glyph glyph-name="lira" unicode="&#x20a4;" horiz-adv-x="1146" 
d="M140 98l131 29q9 28 16 61q6 29 11.5 67t5.5 84q0 57 -10 113h-145l-20 89l136 38l-21 78l-19 64h-136l-20 89l127 35q-7 41 -10 81.5t-3 88.5q0 72 24 137t75.5 114.5t133 79t196.5 29.5q82 0 147 -13t110 -29q53 -18 93 -41v-277l-106 -15l-72 229q-23 7 -51 13
q-25 5 -58.5 9t-75.5 4q-44 0 -80.5 -6.5t-62.5 -14.5q-31 -9 -55 -20q-11 -22 -19 -50q-8 -24 -13.5 -58.5t-5.5 -77.5q0 -46 3 -89.5t11 -88.5h405v-129h-376l6 -20l17 -62.5l15 -57.5h338v-129h-313q2 -20 3.5 -38.5t1.5 -38.5q0 -53 -7 -98t-15 -78q-10 -39 -21 -70h408
l83 193l104 -22l-25 -300h-841z" />
    <glyph glyph-name="uni03BC" unicode="&#x3bc;" horiz-adv-x="1242" 
d="M1043 132l153 -34l-20 -98q-19 -7 -39 -11q-17 -5 -39.5 -8t-45.5 -3q-38 0 -65.5 16.5t-47.5 42.5t-33.5 57.5t-22.5 61.5q-24 -29 -55 -60.5t-72 -57.5t-93 -43t-118 -17q-45 0 -79.5 8.5t-60.5 22t-44 29t-29 29.5l-10 -6l49 -496l-180 -22v1410l-153 34l20 98l313 22
v-704q0 -92 16.5 -151t47 -93t73.5 -47.5t95 -13.5q57 0 104.5 19.5t82.5 43.5q40 28 73 64v728l-183 34l20 98l343 22v-975z" />
    <glyph glyph-name="minus" unicode="&#x2212;" horiz-adv-x="1013" 
d="M160 667h693v-147h-693v147z" />
    <glyph glyph-name="approxequal" unicode="&#x2248;" horiz-adv-x="1261" 
d="M160 709q0 56 18.5 99t50.5 72t76 43.5t95 14.5q36 0 80.5 -10t91.5 -24.5t94 -31.5l88.5 -31.5t74.5 -24.5t52 -10t37.5 7.5t33 22.5t23.5 37.5t9 52.5l117 10v-47q0 -53 -17 -95.5t-47 -72t-72 -45.5t-92 -16q-33 0 -77 10t-93 24.5t-99.5 31.5l-95 31.5t-79.5 24.5
t-53 10q-20 0 -39.5 -4t-34.5 -15t-24 -30t-9 -49l-109 -10v25zM160 309q0 56 18.5 99t50.5 72t76 43.5t95 14.5q36 0 80.5 -10t91.5 -24.5t94 -31.5l88.5 -31.5t74.5 -24.5t52 -10t37.5 7.5t33 22.5t23.5 37.5t9 52.5l117 10v-47q0 -53 -17 -95.5t-47 -72t-72 -45.5
t-92 -16q-33 0 -77 10t-93 24.5t-99.5 31.5l-95 31.5t-79.5 24.5t-53 10q-20 0 -39.5 -4t-34.5 -15t-24 -30t-9 -49l-109 -10v25z" />
    <glyph glyph-name="trademark" unicode="&#x2122;" horiz-adv-x="1861" 
d="M870 1281l-76 17l10 55h249l199 -524h5l191 524h253l10 -55l-76 -17v-533l76 -17l-10 -55h-254l-10 55l76 17v518h-5l-220 -590h-96l-230 591h-5v-519l71 -17l-5 -55h-219l-10 55l76 17v533zM569 676h-255l-10 55l77 17v521h-138l-41 -96l-52 11l13 169h558l12 -169
l-52 -11l-41 96h-137v-521l76 -17z" />
    <glyph glyph-name="dagger" unicode="&#x2020;" horiz-adv-x="1053" 
d="M110 1085l347 -20l-20 475l178 22l-20 -497l368 20l-20 -169l-348 20l20 -936l-178 -22l20 958l-367 -20z" />
    <glyph glyph-name="daggerdbl" unicode="&#x2021;" horiz-adv-x="1054" 
d="M943 455l-347 20l20 -475l-178 -22l20 497l-368 -20l20 169l348 -20l-20 170l20 162l-367 -20l20 169l347 -20l-20 475l178 22l-20 -497l368 20l-20 -169l-348 20l20 -162l-20 -170l367 20z" />
    <glyph glyph-name="uni2215" unicode="&#x2215;" horiz-adv-x="1324" 
d="M1099 1353h105v-20l-979 -1333h-105v20z" />
    <glyph glyph-name="lessequal" unicode="&#x2264;" horiz-adv-x="1128" 
d="M140 823v96l798 374h30v-139l-592 -278v-10l592 -277v-140h-30zM140 257h828v-147h-828v147z" />
    <glyph glyph-name="greaterequal" unicode="&#x2265;" horiz-adv-x="1128" 
d="M190 449h-30v140l592 277v10l-592 278v139h30l798 -374v-96zM160 257h828v-147h-828v147z" />
    <glyph glyph-name="guilsinglleft" unicode="&#x2039;" horiz-adv-x="800" 
d="M545 115l-395 421v60l395 421h85v-22l-300 -419v-20l300 -419v-22h-85z" />
    <glyph glyph-name="guilsinglright" unicode="&#x203a;" horiz-adv-x="800" 
d="M170 115v22l300 419v20l-300 419v22h85l395 -421v-60l-395 -421h-85z" />
    <glyph glyph-name="uni2219" unicode="&#x2219;" horiz-adv-x="710" 
d="M100 583q0 59 14 113t37.5 95t55.5 65t68 24q62 0 116 -14t93.5 -38t62.5 -56t23 -69q0 -59 -14 -112t-38 -93.5t-56 -64.5t-68 -24q-62 0 -115.5 14t-93.5 37.5t-62.5 55t-22.5 67.5z" />
    <glyph glyph-name="pi" unicode="&#x3c0;" horiz-adv-x="1492" 
d="M1421 1135q-6 -40 -19 -82.5t-41 -77.5t-75.5 -57.5t-123.5 -22.5h-31v-725l186 -34l-20 -136q-14 -7 -32 -11q-15 -5 -34.5 -8t-39.5 -3q-50 0 -94 15.5t-76.5 45.5t-51 74t-18.5 102v688l-124 8l-118 8q-7 -173 -27 -319.5t-46 -263t-56 -201.5t-57 -135l-181 -22
l-20 90q27 40 67.5 114.5t80.5 182.5t72.5 248.5t44.5 312.5q-11 0 -21.5 0.5t-19.5 0.5q-43 0 -78.5 -4.5t-64.5 -19t-52 -41t-41 -71.5l-74 17q15 69 38.5 124.5t61.5 94.5t93 59.5t132 20.5q39 0 89 -2.5t105 -6l112.5 -7.5l112.5 -7.5t104 -6t87 -2.5q35 0 59.5 1.5
t41.5 3.5q19 2 33 5l38 72z" />
    <glyph glyph-name="integral" unicode="&#x222b;" horiz-adv-x="876" 
d="M533 -47q0 -119 -21.5 -198t-61.5 -126t-97 -66.5t-127 -19.5q-45 0 -83 5.5t-66 12.5q-33 8 -60 19l36 131q42 -12 87 -21q38 -8 84 -14t89 -6q11 24 20 59q8 30 14 76t6 109v1538q0 101 22 171.5t62 114.5t94.5 63.5t120.5 19.5q36 0 68 -6t56 -13q28 -8 53 -18
l-43 -131q-35 11 -73 20q-32 8 -72 14.5t-78 6.5q-9 -22 -15 -55q-6 -28 -10.5 -70t-4.5 -101v-1515z" />
    <glyph glyph-name="notequal" unicode="&#x2260;" horiz-adv-x="1122" 
d="M160 464h273l96 306h-369v157h419l116 370h155v-20l-110 -350h222v-157h-271l-96 -306h367v-157h-416l-131 -418h-155v20l124 398h-224v157z" />
    <glyph glyph-name="napostrophe" unicode="&#x149;" horiz-adv-x="1401" 
d="M161 98l153 34v821l-153 34l20 98l235 22l58 -178q74 84 167 131t196 47q179 0 264 -93.5t85 -287.5v-594l153 -34l-20 -98h-446l-20 98l153 34v550q0 153 -49.5 229t-178.5 76q-67 0 -140.5 -33t-143.5 -96v-726l153 -34l-20 -98h-446zM-99 1404q0 32 7.5 60.5t20 50.5
t29.5 34.5t36 12.5q36 0 74.5 -11t63.5 -37q16 -17 28.5 -50t12.5 -97q0 -46 -7 -89t-28 -88t-59.5 -92.5t-102.5 -102.5l-62 73q79 66 109 116.5t30 88.5q0 18 -14.5 28t-36.5 16q-45 11 -73 34.5t-28 52.5z" />
    <glyph glyph-name="kgreenlandic" unicode="&#x138;" horiz-adv-x="1206" 
d="M106 98l153 34v821l-153 34l20 98l313 22v-540l10 -4q43 0 78 23.5t65 61.5t57.5 87l56.5 100t61 100t71 87t87 61.5t110 23.5q33 0 61 -7.5t48.5 -21t32.5 -32.5t12 -42q0 -27 -7.5 -52.5t-21 -45.5t-32.5 -32t-43 -12q-39 0 -67.5 14t-59.5 42q-21 0 -44 -28t-50 -72.5
l-58.5 -99t-68.5 -108.5l315 -480l131 -32l-20 -98h-223l-314 480q-41 -35 -87 -56.5t-100 -21.5v-270l153 -34l-20 -98h-446z" />
    <glyph glyph-name="uni1E9E" unicode="&#x1e9e;" horiz-adv-x="1367" 
d="M231 1221l-153 34l20 98h1066v-94l-316 -422l106 -75l128 -94t102 -93t67 -104t24 -126q0 -81 -25 -148t-72.5 -116t-117 -76t-157.5 -27q-78 0 -137 9.5t-100 21.5q-48 14 -81 32l-21 259l117 25l82 -194q16 -7 36 -12q17 -5 42 -8.5t57 -3.5q34 0 62.5 4.5t49.5 9.5
q25 6 45 14q8 21 15 48q5 23 10 55t5 72q0 42 -19.5 79.5t-55.5 75t-86.5 77l-112.5 85.5l-151 112v61l319 424h-558v-1224h-323l-20 98l153 34v1089z" />
    <glyph glyph-name="a" unicode="a" horiz-adv-x="1150" 
d="M939 132l173 -34l-20 -98l-255 -22l-58 177q-78 -95 -167 -136t-193 -41q-140 0 -225.5 70t-85.5 189q0 183 162 276.5t489 93.5v95q0 150 -54.5 217.5t-190.5 67.5q-32 0 -73.5 -4t-76.5 -11l-60 -212l-98 10v283q60 21 148.5 37.5t178.5 16.5q205 0 305.5 -90.5
t100.5 -281.5v-603zM759 487q-150 0 -266 -19.5t-177 -52.5q-12 -28 -20 -64t-8 -76q0 -83 55 -130t144 -47q75 0 148 37.5t124 89.5v262z" />
    <glyph glyph-name="b" unicode="b" horiz-adv-x="1122" 
d="M337 947l14 -6q60 79 135.5 122.5t182.5 43.5q172 0 265.5 -111.5t93.5 -329.5v-94q0 -277 -126.5 -435.5t-336.5 -158.5q-86 0 -204.5 21t-203.5 44v1365l-153 34l20 98l313 22v-615zM848 642q0 173 -62 259t-180 86q-69 0 -142 -44.5t-127 -104.5v-713
q49 -10 115.5 -18.5t132.5 -8.5q61 0 115.5 19t86.5 43q21 44 41 146t20 217v119z" />
    <glyph glyph-name="c" unicode="c" horiz-adv-x="972" 
d="M96 492q0 296 126.5 455.5t349.5 159.5q76 0 152.5 -15t152.5 -48l19 -234l-110 -23l-69 179q-34 10 -70 15.5t-78 5.5q-62 0 -121.5 -15t-111.5 -45q-22 -60 -41 -159.5t-19 -215.5v-109q0 -160 93 -252.5t224 -92.5q72 0 145.5 18.5t149.5 54.5v-96q-69 -43 -158.5 -70
t-185.5 -27q-211 0 -329.5 108.5t-118.5 312.5v93z" />
    <glyph glyph-name="product" unicode="&#x220f;" horiz-adv-x="1573" 
d="M1289 -226h-190v1450h-626v-1450h-190v1447l-153 34l20 98h1273l20 -98l-154 -34v-1447z" />
    <glyph glyph-name="summation" unicode="&#x2211;" horiz-adv-x="1336" 
d="M121 -87l433 649v10l-434 692l30 89h982l24 -300l-103 -22l-83 193h-624l357 -570v-102l-401 -598h668l83 193l103 -22l-24 -351h-982z" />
    <glyph glyph-name="lozenge" unicode="&#x25ca;" horiz-adv-x="1319" 
d="M120 602v85l500 853h116l463 -813v-85l-482 -847h-151zM1046 645v10l-393 701l-380 -672v-10l393 -727z" />
    <glyph glyph-name="commaaccent" unicode="&#xf6c3;" horiz-adv-x="266" 
d="M70 -128h166v-42l-63 -341h-103v383z" />
    <glyph glyph-name="uniF8FF" unicode="&#xf8ff;" horiz-adv-x="2375" 
d="M200 1520h1975v-1975h-1975v1975zM1178 -32q85 0 157.5 23t126 65t84 102t30.5 134q0 43 -8.5 80.5t-28.5 72.5t-53.5 69t-84.5 70l-489 350q23 31 55.5 52t70 34.5t78.5 19.5t81 6q86 0 150 -25.5t112 -55.5l-8 -87q-2 -15 8.5 -25t24.5 -12t25.5 7.5t12.5 23.5l8 106
q1 8 -3 17.5t-12 14.5q-29 19 -61 38t-71 34.5t-86 25t-105 9.5q-65 0 -135.5 -18t-129 -56.5t-96 -99t-37.5 -146.5q0 -45 8.5 -83t28.5 -73t54 -68.5t84 -69.5l489 -350q-24 -30 -56.5 -52t-70 -36.5t-78.5 -21t-82 -5.5q-44 1 -83.5 9t-75 20t-66 26t-54.5 28l8 87
q2 16 -7 26.5t-25 12.5q-15 2 -25 -8t-12 -24l-10 -110q-2 -18 9 -27q28 -20 64.5 -39.5t81 -35.5t95.5 -25.5t107 -9.5zM1359 528q48 -35 77 -66t44.5 -59.5t20.5 -56t5 -54.5q0 -25 -3.5 -43.5t-9.5 -35.5l-482 346q-44 32 -72.5 62t-45 59.5t-23 58.5t-6.5 59
q0 24 3.5 41t9.5 34z" />
    <glyph glyph-name="i.latnTRK" horiz-adv-x="660" 
d="M439 132l153 -34l-20 -98h-446l-20 98l153 34v821l-153 34l20 98l313 22v-975z" />
    <glyph glyph-name="infinity" unicode="&#x221e;" horiz-adv-x="2213" 
d="M1135 647q61 79 120.5 133.5t121 88.5t128 49t143.5 15q84 0 155 -22.5t122.5 -67t80.5 -109t29 -148.5q0 -113 -37 -198t-101 -141t-149.5 -84t-182.5 -28q-83 0 -153 19.5t-130 56.5t-111 90t-94 120q-56 -75 -115.5 -128.5t-124.5 -88.5t-136 -51.5t-150 -16.5
q-87 0 -156.5 22.5t-118 66.5t-74.5 110.5t-26 155.5q0 107 44 189.5t114.5 138.5t159 85t178.5 29q83 0 149 -18.5t120.5 -55t101.5 -90t92 -122.5zM583 254q65 0 120.5 18.5t105.5 53.5t97.5 84t97.5 109q-48 76 -92.5 132t-89.5 92t-94 54t-106 18q-72 0 -135.5 -30
t-100.5 -66q-11 -34 -19.5 -82t-8.5 -102q0 -59 13 -110.5t40 -89t69.5 -59.5t102.5 -22zM1619 815q-63 0 -117 -17.5t-104 -51.5t-96.5 -83.5t-94.5 -113.5q49 -75 94 -130.5t90 -92t91.5 -55t100.5 -18.5q73 0 135.5 23.5t104.5 62.5q14 46 22 101.5t8 119.5
q0 54 -13 100.5t-41 81t-72.5 54t-107.5 19.5z" />
    <glyph glyph-name="radical" unicode="&#x221a;" horiz-adv-x="1707" 
d="M925 262l457 1488h125v-20l-539 -1752l-117 22l-384 955l-140 -53l-37 97l292 108z" />
    <glyph glyph-name="uni2113" unicode="&#x2113;" horiz-adv-x="1083" 
d="M331 486q-17 -5 -32 -6.5t-32 -1.5q-35 0 -62 7t-46 15q-22 10 -39 22v96q16 -7 36 -11q17 -5 41 -8t53 -3q20 0 41 3.5t40 12.5v417q0 69 23 131.5t66.5 110.5t106 76t141.5 28q139 0 212 -67.5t73 -182.5v-29q0 -67 -34 -139t-93 -143t-140 -138t-175 -124v-251
q0 -64 11 -104t31 -62t49.5 -29.5t67.5 -7.5q26 0 53.5 5.5t49.5 13.5q26 9 49 20v-94q-28 -19 -62 -33q-30 -12 -71 -22t-92 -10q-56 0 -104.5 12.5t-84.5 45t-56.5 89t-20.5 145.5v216zM773 1081q0 45 -10.5 77.5t-29.5 54t-45 32t-57 10.5q-20 0 -36.5 -3t-29.5 -7
q-15 -4 -27 -10q-8 -23 -14 -50q-5 -23 -9 -54t-4 -67v-368q123 79 192.5 171t69.5 198v16z" />
    <glyph glyph-name="partialdiff" unicode="&#x2202;" horiz-adv-x="1148" 
d="M966 641q-22 -152 -70.5 -275t-122 -209t-171.5 -132.5t-219 -46.5q-101 0 -172 33t-113 91.5t-55.5 139.5t-0.5 177l13 93q21 145 70 256t119.5 186.5t158.5 114t187 38.5q55 0 100 -15.5t80.5 -39.5t61 -54t40.5 -59q0 108 -19 195.5t-60.5 149t-106.5 95t-158 33.5
q-63 0 -117.5 -18.5t-96.5 -41.5q-48 -26 -90 -60l15 107q45 45 100 81q48 31 112 56.5t142 25.5q85 0 151 -29.5t114.5 -82.5t79.5 -127t46 -163.5t14 -192t-16 -211.5zM852 685q10 70 15 137q-20 31 -49 60.5t-67.5 53t-85.5 37.5t-102 14q-48 0 -87 -10.5t-67 -23.5
q-33 -15 -59 -33q-22 -36 -41 -87q-17 -44 -35 -108.5t-30 -152.5l-17 -119q-13 -90 -0.5 -157t42.5 -111t73.5 -65.5t91.5 -21.5q79 0 147 40t120.5 107t87.5 154t48 180z" />
    <glyph glyph-name="estimated" unicode="&#x212e;" horiz-adv-x="1218" 
d="M290 493v-255q34 -39 82 -70q42 -26 103.5 -48t145.5 -22q42 0 82.5 6.5t78 17.5t71.5 25t63 29q68 34 127 78l59 -77q-59 -56 -133 -100q-32 -19 -70 -36.5t-82 -31.5t-93 -22.5t-103 -8.5q-104 0 -201.5 27.5t-173 90t-121 164t-45.5 250.5q0 144 41 255t113.5 187
t171 115.5t214.5 39.5q121 0 216 -35.5t159.5 -104.5t98.5 -170.5t34 -233.5v-70h-838zM290 613h628v234q-26 39 -68 70q-36 26 -94 48t-143 22q-87 0 -148 -22t-100 -48q-46 -31 -75 -70v-234z" />
    <glyph glyph-name="uni24C5" unicode="&#x24c5;" horiz-adv-x="1782" 
d="M90 575q0 110 28.5 212.5t81 191t125.5 161.5t162 125.5t191 81t213 28.5q110 0 212.5 -28.5t191.5 -81t162 -125.5t125.5 -161.5t81 -191t28.5 -212.5t-28.5 -212.5t-81 -191.5t-125.5 -162t-162 -125.5t-191.5 -81t-212.5 -28.5t-212.5 28.5t-191.5 81t-162 125.5
t-125.5 162t-81 191t-28.5 213zM218 575q0 -94 24 -181t68 -162.5t105 -137t136 -105.5t161 -68t179 -24t179 24t161 68t136 105.5t105 137t68 162.5t24 181t-24 180.5t-68 162t-105 137t-136 105.5t-161 68t-179 24t-179 -24t-161 -68t-136 -105.5t-105 -137t-68 -162
t-24 -180.5zM689 927l-103 22l14 68h337q149 0 228 -56t79 -176q0 -67 -23.5 -118.5t-64 -86t-93.5 -52t-111 -17.5h-136v-315l143 -24l-13 -66h-346l-14 66l103 24v731zM816 928v-331h108q38 0 69 4t53 9q26 5 46 13q6 18 10 40q4 19 7.5 43t3.5 51q0 76 -51 123.5
t-158 47.5h-88z" />
    <glyph glyph-name="ae" unicode="&#xe6;" horiz-adv-x="1621" 
d="M98 237q0 86 36 154.5t113.5 116.5t199 73.5t292.5 25.5v95q0 58 -7 105t-15 80q-10 39 -21 68q-38 14 -86.5 23t-116.5 9q-28 0 -52.5 -2.5t-44.5 -5.5q-23 -4 -42 -7l-60 -212l-98 10v283q37 15 85 27q40 10 95.5 18.5t122.5 8.5q132 0 222.5 -37t140.5 -122
q60 79 144 119t188 40q105 0 174.5 -29t111.5 -87t59.5 -145t17.5 -203v-120h-638v-76q0 -99 29 -165.5t72.5 -107.5t95 -58.5t96.5 -17.5q59 0 111 10t93 22q47 14 88 33v-96q-43 -26 -98 -45q-47 -17 -111.5 -30.5t-142.5 -13.5q-62 0 -117 11.5t-102 36t-84.5 62
t-62.5 90.5q-17 -25 -48 -59.5t-78 -65.5t-111.5 -53t-149.5 -22q-65 0 -120 17t-95.5 50t-63 81t-22.5 111zM467 98q57 0 107 19.5t88.5 45t64 50t33.5 33.5q-21 73 -21 168v73q-123 0 -205.5 -11t-133.5 -25q-60 -16 -94 -36q-8 -17 -14 -38q-5 -18 -9.5 -44t-4.5 -58
q0 -48 16 -81.5t42.5 -54.5t60.5 -31t70 -10zM979 927q-13 -33 -24 -75q-10 -37 -19 -89t-14 -120h445q0 86 -10.5 150.5t-34 107.5t-62 64.5t-94.5 21.5q-42 0 -76 -9.5t-59 -20.5q-29 -13 -52 -30z" />
    <glyph glyph-name="agrave" unicode="&#xe0;" horiz-adv-x="1150" 
d="M939 132l173 -34l-20 -98l-255 -22l-58 177q-78 -95 -167 -136t-193 -41q-140 0 -225.5 70t-85.5 189q0 183 162 276.5t489 93.5v95q0 150 -54.5 217.5t-190.5 67.5q-32 0 -73.5 -4t-76.5 -11l-60 -212l-98 10v283q60 21 148.5 37.5t178.5 16.5q205 0 305.5 -90.5
t100.5 -281.5v-603zM759 487q-150 0 -266 -19.5t-177 -52.5q-12 -28 -20 -64t-8 -76q0 -83 55 -130t144 -47q75 0 148 37.5t124 89.5v262zM655 1275l-118 -10l-290 329v66l175 10l233 -363v-32z" />
    <glyph glyph-name="gravecomb" unicode="&#x300;" horiz-adv-x="0" 
d="M-318 1275l-118 -10l-290 329v66l175 10l233 -363v-32z" />
    <glyph glyph-name="acutecomb" unicode="&#x301;" horiz-adv-x="0" 
d="M-655 1307l203 363l182 -10v-66l-280 -329l-105 10v32z" />
    <glyph glyph-name="aacute" unicode="&#xe1;" horiz-adv-x="1150" 
d="M939 132l173 -34l-20 -98l-255 -22l-58 177q-78 -95 -167 -136t-193 -41q-140 0 -225.5 70t-85.5 189q0 183 162 276.5t489 93.5v95q0 150 -54.5 217.5t-190.5 67.5q-32 0 -73.5 -4t-76.5 -11l-60 -212l-98 10v283q60 21 148.5 37.5t178.5 16.5q205 0 305.5 -90.5
t100.5 -281.5v-603zM759 487q-150 0 -266 -19.5t-177 -52.5q-12 -28 -20 -64t-8 -76q0 -83 55 -130t144 -47q75 0 148 37.5t124 89.5v262zM470 1307l203 363l182 -10v-66l-280 -329l-105 10v32z" />
    <glyph glyph-name="uni0308" unicode="&#x308;" horiz-adv-x="0" 
d="M-653 1384q0 25 7 48t19.5 40.5t28.5 27.5t34 10q26 0 49 -7t39.5 -19.5t26 -29t9.5 -34.5q0 -25 -7 -47.5t-19 -40t-28 -27.5t-34 -10q-26 0 -49 7t-40 19.5t-26.5 28.5t-9.5 34zM-253 1384q0 25 7 48t19 40.5t28 27.5t34 10q26 0 49 -7t40 -19.5t26.5 -29t9.5 -34.5
q0 -25 -7 -47.5t-19.5 -40t-28.5 -27.5t-34 -10q-26 0 -49 7t-39.5 19.5t-26 28.5t-9.5 34z" />
    <glyph glyph-name="odieresis" unicode="&#xf6;" horiz-adv-x="1114" 
d="M547 -22q-218 0 -334.5 116.5t-116.5 324.5v93q0 276 126.5 435.5t334.5 159.5q218 0 339.5 -116.5t121.5 -334.5v-94q0 -265 -126 -424.5t-345 -159.5zM838 622q0 171 -78.5 266.5t-222.5 98.5q-55 0 -110 -17.5t-91 -42.5q-26 -59 -43 -153t-17 -202v-119
q0 -168 86.5 -261.5t214.5 -93.5q50 0 103 16t98 44q31 65 45.5 155t14.5 190v119zM248 1384q0 25 7 48t19.5 40.5t28.5 27.5t34 10q26 0 49 -7t39.5 -19.5t26 -29t9.5 -34.5q0 -25 -7 -47.5t-19 -40t-28 -27.5t-34 -10q-26 0 -49 7t-40 19.5t-26.5 28.5t-9.5 34zM648 1384
q0 25 7 48t19 40.5t28 27.5t34 10q26 0 49 -7t40 -19.5t26.5 -29t9.5 -34.5q0 -25 -7 -47.5t-19.5 -40t-28.5 -27.5t-34 -10q-26 0 -49 7t-39.5 19.5t-26 28.5t-9.5 34z" />
    <glyph glyph-name="uni2032" unicode="&#x2032;" horiz-adv-x="486" 
d="M200 1353h166v-42l-143 -401h-103z" />
    <glyph glyph-name="uni2033" unicode="&#x2033;" horiz-adv-x="737" 
d="M200 1353h166v-42l-143 -401h-103zM451 1353h166v-42l-143 -401h-103z" />
    <glyph glyph-name="scommaaccent" unicode="&#x219;" horiz-adv-x="970" 
d="M571 621q208 -106 263.5 -181.5t55.5 -168.5q0 -130 -114.5 -211.5t-303.5 -81.5q-102 0 -191 21t-145 49l-10 240l109 20l58 -187q39 -12 86 -17.5t95 -5.5q54 0 107.5 6.5t108.5 21.5q10 21 15 47.5t5 51.5q0 71 -64 127.5t-248 153.5q-166 87 -223 156t-57 158
q0 125 105 206t298 81q90 0 175 -18.5t146 -49.5l9 -241l-109 -20l-59 189q-40 11 -85 15.5t-83 4.5q-53 0 -103 -7.5t-92 -20.5q-9 -16 -15.5 -41.5t-6.5 -52.5q0 -54 45.5 -101.5t227.5 -142.5zM412 -128h166v-42l-63 -341h-103v383z" />
    <glyph glyph-name="uni021A" unicode="&#x21a;" horiz-adv-x="1139" 
d="M475 1224h-300l-62 -170l-99 9l15 290h1082l14 -290l-98 -9l-63 170h-299v-1092l153 -34l-20 -98h-456l-20 98l153 34v1092zM493 -128h166v-42l-63 -341h-103v383z" />
    <glyph glyph-name="uni021B" unicode="&#x21b;" horiz-adv-x="742" 
d="M659 1085l20 -99l-310 -32v-645q0 -106 31.5 -158.5t127.5 -52.5q32 0 71 10t81 29v-94q-46 -30 -105.5 -47.5t-119.5 -17.5q-140 0 -203 72t-63 220v684l-161 32l20 99h141l73 293l107 -20v-273h290zM375 -128h166v-42l-63 -341h-103v383z" />
    <glyph glyph-name="Ncommaaccent" unicode="&#x145;" horiz-adv-x="1532" 
d="M225 1221l-153 34l20 98h420l655 -1217h16v1085l-154 34l20 98h407l20 -98l-152 -34v-1221h-287l-656 1218h-16v-1086l152 -34l-20 -98h-405l-20 98l153 34v1089zM664 -128h166v-42l-63 -341h-103v383z" />
    <glyph glyph-name="ncommaaccent" unicode="&#x146;" horiz-adv-x="1346" 
d="M106 98l153 34v821l-153 34l20 98l235 22l58 -178q74 84 167 131t196 47q179 0 264 -93.5t85 -287.5v-594l153 -34l-20 -98h-446l-20 98l153 34v550q0 153 -49.5 229t-178.5 76q-67 0 -140.5 -33t-143.5 -96v-726l153 -34l-20 -98h-446zM599 -128h166v-42l-63 -341h-103
v383z" />
    <glyph glyph-name="Rcommaaccent" unicode="&#x156;" horiz-adv-x="1205" 
d="M225 1221l-153 34l20 98h492q208 0 318 -84.5t110 -258.5q0 -130 -59.5 -226.5t-162.5 -144.5l-6 -19l277 -488l146 -34l-20 -98h-249l-340 601h-183v-469l152 -34l-20 -98h-455l-20 98l153 34v1089zM415 1224v-494h123q62 0 125.5 9t125.5 30q11 45 20 98t9 102
q0 119 -76.5 187t-225.5 68h-101zM544 -128h166v-42l-63 -341h-103v383z" />
    <glyph glyph-name="rcommaaccent" unicode="&#x157;" horiz-adv-x="885" 
d="M259 953l-153 34l20 98l235 22l58 -178q48 90 112.5 134t150.5 44q41 0 80.5 -11t68.5 -31l-25 -283h-112l-26 185q-19 8 -45 8q-51 0 -102 -36.5t-82 -80.5v-726l186 -34l-20 -98h-479l-20 98l153 34v821zM267 -128h166v-42l-63 -341h-103v383z" />
    <glyph glyph-name="Lcommaaccent" unicode="&#x13b;" horiz-adv-x="1018" 
d="M227 1221l-153 34l20 98h455l20 -98l-152 -34v-1092h336l83 193l104 -22l-25 -300h-821l-20 98l153 34v1089zM421 -128h166v-42l-63 -341h-103v383z" />
    <glyph glyph-name="lcommaaccent" unicode="&#x13c;" horiz-adv-x="642" 
d="M246 1408l-153 34l20 98l313 22v-1430l153 -34l-20 -98h-446l-20 98l153 34v1276zM243 -128h166v-42l-63 -341h-103v383z" />
    <glyph glyph-name="Kcommaaccent" unicode="&#x136;" horiz-adv-x="1304" 
d="M72 98l153 34v1089l-153 34l20 98h455l20 -98l-152 -34v-557l14 -6l544 575l-110 21l20 99h362l20 -98l-122 -34l-433 -455l456 -633l146 -35l-20 -98h-244l-459 639l-174 -183v-324l152 -34l-20 -98h-455zM576 -128h166v-42l-63 -341h-103v383z" />
    <glyph glyph-name="kcommaaccent" unicode="&#x137;" horiz-adv-x="1185" 
d="M84 98l153 34v1276l-153 34l20 98l313 22v-989l14 -6l429 401l-92 19l20 98h322l20 -98l-87 -19l-359 -325l343 -511l134 -34l-20 -98h-223l-357 532l-144 -130v-270l153 -34l-20 -98h-446zM548 -128h166v-42l-63 -341h-103v383z" />
    <glyph glyph-name="Gcommaaccent" unicode="&#x122;" horiz-adv-x="1300" 
d="M1092 105q-96 -59 -211 -93t-228 -34q-262 0 -406.5 135t-144.5 392v89q0 378 157.5 579.5t454.5 201.5q98 0 195 -15t168 -42l21 -270l-105 -22l-82 193q-38 11 -98 19t-122 8q-87 0 -165.5 -23.5t-134.5 -64.5q-46 -93 -72.5 -216.5t-26.5 -258.5v-133q0 -211 121 -327
t290 -116q52 0 103 10t96 26v361l-153 34l20 108h455l20 -108l-152 -34v-399zM581 -128h166v-42l-63 -341h-103v383z" />
    <glyph glyph-name="gcommaaccent" unicode="&#x123;" horiz-adv-x="1075" 
d="M824 978l-4 -10q43 -29 75 -87t32 -121v-25q0 -168 -109.5 -267.5t-290.5 -99.5q-65 0 -119 12q-54 -50 -87.5 -94.5t-33.5 -71.5q0 -26 18.5 -40t52.5 -14h224q238 0 356.5 -69t118.5 -217q0 -162 -138.5 -246.5t-393.5 -84.5q-222 0 -327.5 47t-105.5 151
q0 67 54.5 135t154.5 133q-72 14 -113 52t-41 100q0 59 47.5 124t125.5 124q-86 41 -129.5 111t-43.5 150v26q0 196 109 303.5t291 107.5q29 0 73.5 -6.5t79.5 -15.5h314l18 -107h-208zM411 0q-70 -52 -114.5 -109t-44.5 -106q0 -71 73.5 -96.5t259.5 -25.5q77 0 155.5 12.5
t139.5 38.5q17 24 27 57.5t10 67.5q0 91 -72.5 126t-250.5 35h-183zM747 764q0 105 -66 164t-158 59q-46 0 -87 -8.5t-69 -21.5q-21 -54 -30.5 -110t-9.5 -103v-38q0 -97 71 -157.5t153 -60.5q48 0 86.5 7.5t69.5 22.5q17 32 28.5 87.5t11.5 120.5v38zM616.977 1264.99
h-165.989v41.9971l62.9961 340.979h102.993v-382.977z" />
    <glyph glyph-name="Gcaron" unicode="&#x1e6;" horiz-adv-x="1300" 
d="M1092 105q-96 -59 -211 -93t-228 -34q-262 0 -406.5 135t-144.5 392v89q0 378 157.5 579.5t454.5 201.5q98 0 195 -15t168 -42l21 -270l-105 -22l-82 193q-38 11 -98 19t-122 8q-87 0 -165.5 -23.5t-134.5 -64.5q-46 -93 -72.5 -216.5t-26.5 -258.5v-133q0 -211 121 -327
t290 -116q52 0 103 10t96 26v361l-153 34l20 108h455l20 -108l-152 -34v-399zM352 1784l125 10l238 -192l231 192l95 -10v-32l-283 -292l-133 10l-273 282v32z" />
    <glyph glyph-name="Ddotaccent" unicode="&#x1e0a;" horiz-adv-x="1362" 
d="M231 1221l-153 34l20 98h540q302 0 455 -151.5t153 -436.5v-78q0 -318 -155 -502.5t-430 -184.5h-563l-20 98l153 34v1089zM421 1224v-1095h211q78 0 148 12.5t130 36.5q62 77 104 195t42 249v94q0 241 -115.5 374.5t-341.5 133.5h-178zM467 1598q0 28 8 53.5t21.5 44.5
t31 30t37.5 11q29 0 54 -7.5t44 -21t29.5 -31.5t10.5 -39q0 -28 -8 -53t-21.5 -44t-31 -30t-37.5 -11q-29 0 -54 8t-44 21.5t-29.5 31t-10.5 37.5z" />
    <glyph glyph-name="Gacute" unicode="&#x1f4;" horiz-adv-x="1300" 
d="M1092 105q-96 -59 -211 -93t-228 -34q-262 0 -406.5 135t-144.5 392v89q0 378 157.5 579.5t454.5 201.5q98 0 195 -15t168 -42l21 -270l-105 -22l-82 193q-38 11 -98 19t-122 8q-87 0 -165.5 -23.5t-134.5 -64.5q-46 -93 -72.5 -216.5t-26.5 -258.5v-133q0 -211 121 -327
t290 -116q52 0 103 10t96 26v361l-153 34l20 108h455l20 -108l-152 -34v-399zM553 1503l298 281l192 -10v-66l-375 -248l-115 11v32z" />
    <glyph glyph-name="Wdotaccent" unicode="&#x1e86;" horiz-adv-x="1998" 
d="M403 1254l-149 -29l335 -993h16l342 1121h191l334 -1121h16l304 993l-153 29l20 99h363l20 -99l-103 -27l-386 -1227h-191l-333 1107h-16l-337 -1107h-192l-422 1227l-106 27l20 99h407zM938 1598q0 28 8 53.5t21.5 44.5t31 30t37.5 11q29 0 54 -7.5t44 -21t29.5 -31.5
t10.5 -39q0 -28 -8 -53t-21.5 -44t-31 -30t-37.5 -11q-29 0 -54 8t-44 21.5t-29.5 31t-10.5 37.5z" />
    <glyph glyph-name="Ygrave" unicode="&#x1ef2;" horiz-adv-x="1122" 
d="M478 578l-416 648l-114 28l20 99h410l20 -99l-132 -28l321 -504h16l304 504l-125 28l20 99h352l20 -99l-111 -28l-395 -650v-444l152 -34l-20 -98h-455l-20 98l153 34v446zM775 1471l-115 -11l-375 248v66l192 10l298 -281v-32z" />
    <glyph glyph-name="Zcircumflex" unicode="&#x1e90;" horiz-adv-x="1130" 
d="M1023 1353v-124l-716 -1086l5 -14h557l82 193l103 -22l-24 -300h-948v125l715 1085l-5 14h-516l-82 -193l-104 22l25 300h908zM922 1470l-125 -10l-238 192l-231 -192l-95 10v32l283 292l133 -10l273 -282v-32z" />
    <glyph glyph-name="gacute" unicode="&#x1f5;" horiz-adv-x="1075" 
d="M824 978l-4 -10q43 -29 75 -87t32 -121v-25q0 -168 -109.5 -267.5t-290.5 -99.5q-65 0 -119 12q-54 -50 -87.5 -94.5t-33.5 -71.5q0 -26 18.5 -40t52.5 -14h224q238 0 356.5 -69t118.5 -217q0 -162 -138.5 -246.5t-393.5 -84.5q-222 0 -327.5 47t-105.5 151
q0 67 54.5 135t154.5 133q-72 14 -113 52t-41 100q0 59 47.5 124t125.5 124q-86 41 -129.5 111t-43.5 150v26q0 196 109 303.5t291 107.5q29 0 73.5 -6.5t79.5 -15.5h314l18 -107h-208zM411 0q-70 -52 -114.5 -109t-44.5 -106q0 -71 73.5 -96.5t259.5 -25.5q77 0 155.5 12.5
t139.5 38.5q17 24 27 57.5t10 67.5q0 91 -72.5 126t-250.5 35h-183zM747 764q0 105 -66 164t-158 59q-46 0 -87 -8.5t-69 -21.5q-21 -54 -30.5 -110t-9.5 -103v-38q0 -97 71 -157.5t153 -60.5q48 0 86.5 7.5t69.5 22.5q17 32 28.5 87.5t11.5 120.5v38zM472 1307l203 363
l182 -10v-66l-280 -329l-105 10v32z" />
    <glyph glyph-name="gcaron" unicode="&#x1e7;" horiz-adv-x="1075" 
d="M824 978l-4 -10q43 -29 75 -87t32 -121v-25q0 -168 -109.5 -267.5t-290.5 -99.5q-65 0 -119 12q-54 -50 -87.5 -94.5t-33.5 -71.5q0 -26 18.5 -40t52.5 -14h224q238 0 356.5 -69t118.5 -217q0 -162 -138.5 -246.5t-393.5 -84.5q-222 0 -327.5 47t-105.5 151
q0 67 54.5 135t154.5 133q-72 14 -113 52t-41 100q0 59 47.5 124t125.5 124q-86 41 -129.5 111t-43.5 150v26q0 196 109 303.5t291 107.5q29 0 73.5 -6.5t79.5 -15.5h314l18 -107h-208zM411 0q-70 -52 -114.5 -109t-44.5 -106q0 -71 73.5 -96.5t259.5 -25.5q77 0 155.5 12.5
t139.5 38.5q17 24 27 57.5t10 67.5q0 91 -72.5 126t-250.5 35h-183zM747 764q0 105 -66 164t-158 59q-46 0 -87 -8.5t-69 -21.5q-21 -54 -30.5 -110t-9.5 -103v-38q0 -97 71 -157.5t153 -60.5q48 0 86.5 7.5t69.5 22.5q17 32 28.5 87.5t11.5 120.5v38zM258 1660l125 10
l193 -252l186 252l95 -10v-32l-233 -373l-133 10l-233 363v32z" />
    <glyph glyph-name="jcaron" unicode="&#x1f0;" horiz-adv-x="569" 
d="M412 -47q0 -119 -21.5 -198t-61.5 -126t-97 -66.5t-127 -19.5q-45 0 -83 5.5t-66 12.5q-33 8 -60 19l36 131q42 -12 87 -21q38 -8 84 -14t89 -6q11 24 20 59q8 30 14 76t6 109v1039l-183 34l20 98l343 22v-1154zM-20 1660l125 10l193 -252l186 252l95 -10v-32l-233 -373
l-133 10l-233 363v32z" />
    <glyph glyph-name="rdotaccent" unicode="&#x1e59;" horiz-adv-x="885" 
d="M259 953l-153 34l20 98l235 22l58 -178q48 90 112.5 134t150.5 44q41 0 80.5 -11t68.5 -31l-25 -283h-112l-26 185q-19 8 -45 8q-51 0 -102 -36.5t-82 -80.5v-726l186 -34l-20 -98h-479l-20 98l153 34v821zM375 1401q0 28 8 53.5t21.5 44.5t31 30t37.5 11q29 0 54 -7.5
t44 -21t29.5 -31.5t10.5 -39q0 -28 -8 -53t-21.5 -44t-31 -30t-37.5 -11q-29 0 -54 8t-44 21.5t-29.5 31t-10.5 37.5z" />
    <glyph glyph-name="wring" unicode="&#x1e98;" horiz-adv-x="1733" 
d="M1747 987l-94 -18l-295 -969h-212l-258 828h-16l-251 -828h-212l-323 968l-96 19l20 98h371l20 -98l-131 -20l256 -808h16l268 926h183l273 -926h16l233 808l-134 20l20 98h326zM723 1436q0 59 17 103t45.5 73t66.5 43.5t80 14.5q38 0 72.5 -10t60 -30.5t40.5 -52.5
t15 -77q0 -62 -16 -106.5t-44.5 -73t-66.5 -42t-81 -13.5q-39 0 -73.5 10t-60 31t-40.5 53.5t-15 76.5zM828 1468q0 -30 8 -54.5t21 -41t30 -25.5t35 -9q17 0 33 2.5t27 6.5q13 4 25 10q2 11 4 28q2 14 3.5 35t1.5 48q0 30 -8 54.5t-21 41t-30 25.5t-35 9q-14 0 -27.5 -3
t-24.5 -7q-12 -4 -23 -9q-6 -10 -10 -26q-4 -14 -6.5 -35t-2.5 -50z" />
    <glyph glyph-name="wdotaccent" unicode="&#x1e87;" horiz-adv-x="1733" 
d="M1747 987l-94 -18l-295 -969h-212l-258 828h-16l-251 -828h-212l-323 968l-96 19l20 98h371l20 -98l-131 -20l256 -808h16l268 926h183l273 -926h16l233 808l-134 20l20 98h326zM800 1401q0 28 8 53.5t21.5 44.5t31 30t37.5 11q29 0 54 -7.5t44 -21t29.5 -31.5t10.5 -39
q0 -28 -8 -53t-21.5 -44t-31 -30t-37.5 -11q-29 0 -54 8t-44 21.5t-29.5 31t-10.5 37.5z" />
    <glyph glyph-name="yring" unicode="&#x1e99;" horiz-adv-x="1106" 
d="M777 1085h325l20 -98l-97 -19l-357 -966q-90 -249 -177.5 -354t-225.5 -105q-59 0 -119 15t-98 32l36 131q55 -20 129 -35.5t141 -15.5q38 26 74.5 75.5t65.5 129.5l-407 1093l-97 19l20 98h370l20 -98l-125 -19l295 -836h16l296 836l-125 19zM405 1436q0 59 17 103
t45.5 73t66.5 43.5t80 14.5q38 0 72.5 -10t60 -30.5t40.5 -52.5t15 -77q0 -62 -16 -106.5t-44.5 -73t-66.5 -42t-81 -13.5q-39 0 -73.5 10t-60 31t-40.5 53.5t-15 76.5zM510 1468q0 -30 8 -54.5t21 -41t30 -25.5t35 -9q17 0 33 2.5t27 6.5q13 4 25 10q2 11 4 28q2 14 3.5 35
t1.5 48q0 30 -8 54.5t-21 41t-30 25.5t-35 9q-14 0 -27.5 -3t-24.5 -7q-12 -4 -23 -9q-6 -10 -10 -26q-4 -14 -6.5 -35t-2.5 -50z" />
    <glyph glyph-name="zcircumflex" unicode="&#x1e91;" horiz-adv-x="967" 
d="M741 110l52 190l104 -11v-289h-805v95l593 868l-6 12h-400l-52 -190l-104 11v289h782v-83l-601 -880l6 -12h431zM829 1275l-125 -10l-193 252l-186 -252l-95 10v32l233 373l133 -10l233 -363v-32z" />
    <glyph glyph-name="dotbelowcomb" unicode="&#x323;" horiz-adv-x="0" 
d="M-488 -327q0 28 8 53.5t21.5 44.5t31 30t37.5 11q29 0 54 -7.5t44 -21t29.5 -31.5t10.5 -39q0 -28 -8 -53t-21.5 -44t-31 -30t-37.5 -11q-29 0 -54 8t-44 21.5t-29.5 31t-10.5 37.5z" />
    <glyph glyph-name="uni1E0C" unicode="&#x1e0c;" horiz-adv-x="1362" 
d="M231 1221l-153 34l20 98h540q302 0 455 -151.5t153 -436.5v-78q0 -318 -155 -502.5t-430 -184.5h-563l-20 98l153 34v1089zM421 1224v-1095h211q78 0 148 12.5t130 36.5q62 77 104 195t42 249v94q0 241 -115.5 374.5t-341.5 133.5h-178zM469 -327q0 28 8 53.5t21.5 44.5
t31 30t37.5 11q29 0 54 -7.5t44 -21t29.5 -31.5t10.5 -39q0 -28 -8 -53t-21.5 -44t-31 -30t-37.5 -11q-29 0 -54 8t-44 21.5t-29.5 31t-10.5 37.5z" />
    <glyph glyph-name="uni1E6C" unicode="&#x1e6c;" horiz-adv-x="1139" 
d="M475 1224h-300l-62 -170l-99 9l15 290h1082l14 -290l-98 -9l-63 170h-299v-1092l153 -34l-20 -98h-456l-20 98l153 34v1092zM456 -327q0 28 8 53.5t21.5 44.5t31 30t37.5 11q29 0 54 -7.5t44 -21t29.5 -31.5t10.5 -39q0 -28 -8 -53t-21.5 -44t-31 -30t-37.5 -11
q-29 0 -54 8t-44 21.5t-29.5 31t-10.5 37.5z" />
    <glyph glyph-name="uni1E6D" unicode="&#x1e6d;" horiz-adv-x="742" 
d="M659 1085l20 -99l-310 -32v-645q0 -106 31.5 -158.5t127.5 -52.5q32 0 71 10t81 29v-94q-46 -30 -105.5 -47.5t-119.5 -17.5q-140 0 -203 72t-63 220v684l-161 32l20 99h141l73 293l107 -20v-273h290zM348 -327q0 28 8 53.5t21.5 44.5t31 30t37.5 11q29 0 54 -7.5t44 -21
t29.5 -31.5t10.5 -39q0 -28 -8 -53t-21.5 -44t-31 -30t-37.5 -11q-29 0 -54 8t-44 21.5t-29.5 31t-10.5 37.5z" />
    <glyph glyph-name="uni1E62" unicode="&#x1e62;" horiz-adv-x="1066" 
d="M619 762q188 -110 274.5 -201.5t86.5 -215.5q0 -165 -128.5 -266t-343.5 -101q-120 0 -219.5 18.5t-158.5 44.5l-21 259l117 25l82 -194q37 -11 82.5 -17.5t102.5 -6.5q74 0 141.5 10t125.5 28q10 25 20 66.5t10 98.5q0 63 -59 131.5t-255 186.5q-254 150 -310.5 232
t-56.5 179q0 146 125.5 241t346.5 95q84 0 168.5 -12t163.5 -40l21 -270l-105 -22l-82 193q-41 11 -83.5 16.5t-88.5 5.5q-77 0 -144 -11t-113 -27q-9 -30 -14 -63.5t-5 -70.5q0 -71 59.5 -130.5t260.5 -181.5zM427 -327q0 28 8 53.5t21.5 44.5t31 30t37.5 11q29 0 54 -7.5
t44 -21t29.5 -31.5t10.5 -39q0 -28 -8 -53t-21.5 -44t-31 -30t-37.5 -11q-29 0 -54 8t-44 21.5t-29.5 31t-10.5 37.5z" />
    <glyph glyph-name="uni1E63" unicode="&#x1e63;" horiz-adv-x="970" 
d="M571 621q208 -106 263.5 -181.5t55.5 -168.5q0 -130 -114.5 -211.5t-303.5 -81.5q-102 0 -191 21t-145 49l-10 240l109 20l58 -187q39 -12 86 -17.5t95 -5.5q54 0 107.5 6.5t108.5 21.5q10 21 15 47.5t5 51.5q0 71 -64 127.5t-248 153.5q-166 87 -223 156t-57 158
q0 125 105 206t298 81q90 0 175 -18.5t146 -49.5l9 -241l-109 -20l-59 189q-40 11 -85 15.5t-83 4.5q-53 0 -103 -7.5t-92 -20.5q-9 -16 -15.5 -41.5t-6.5 -52.5q0 -54 45.5 -101.5t227.5 -142.5zM385 -327q0 28 8 53.5t21.5 44.5t31 30t37.5 11q29 0 54 -7.5t44 -21
t29.5 -31.5t10.5 -39q0 -28 -8 -53t-21.5 -44t-31 -30t-37.5 -11q-29 0 -54 8t-44 21.5t-29.5 31t-10.5 37.5z" />
    <glyph glyph-name="uni1E36" unicode="&#x1e36;" horiz-adv-x="1018" 
d="M227 1221l-153 34l20 98h455l20 -98l-152 -34v-1092h336l83 193l104 -22l-25 -300h-821l-20 98l153 34v1089zM394 -327q0 28 8 53.5t21.5 44.5t31 30t37.5 11q29 0 54 -7.5t44 -21t29.5 -31.5t10.5 -39q0 -28 -8 -53t-21.5 -44t-31 -30t-37.5 -11q-29 0 -54 8t-44 21.5
t-29.5 31t-10.5 37.5z" />
    <glyph glyph-name="uni1E37" unicode="&#x1e37;" horiz-adv-x="642" 
d="M246 1408l-153 34l20 98l313 22v-1430l153 -34l-20 -98h-446l-20 98l153 34v1276zM216 -327q0 28 8 53.5t21.5 44.5t31 30t37.5 11q29 0 54 -7.5t44 -21t29.5 -31.5t10.5 -39q0 -28 -8 -53t-21.5 -44t-31 -30t-37.5 -11q-29 0 -54 8t-44 21.5t-29.5 31t-10.5 37.5z" />
    <glyph glyph-name="uni1E46" unicode="&#x1e46;" horiz-adv-x="1532" 
d="M225 1221l-153 34l20 98h420l655 -1217h16v1085l-154 34l20 98h407l20 -98l-152 -34v-1221h-287l-656 1218h-16v-1086l152 -34l-20 -98h-405l-20 98l153 34v1089zM637 -327q0 28 8 53.5t21.5 44.5t31 30t37.5 11q29 0 54 -7.5t44 -21t29.5 -31.5t10.5 -39q0 -28 -8 -53
t-21.5 -44t-31 -30t-37.5 -11q-29 0 -54 8t-44 21.5t-29.5 31t-10.5 37.5z" />
    <glyph glyph-name="uni1E47" unicode="&#x1e47;" horiz-adv-x="1346" 
d="M106 98l153 34v821l-153 34l20 98l235 22l58 -178q74 84 167 131t196 47q179 0 264 -93.5t85 -287.5v-594l153 -34l-20 -98h-446l-20 98l153 34v550q0 153 -49.5 229t-178.5 76q-67 0 -140.5 -33t-143.5 -96v-726l153 -34l-20 -98h-446zM572 -327q0 28 8 53.5t21.5 44.5
t31 30t37.5 11q29 0 54 -7.5t44 -21t29.5 -31.5t10.5 -39q0 -28 -8 -53t-21.5 -44t-31 -30t-37.5 -11q-29 0 -54 8t-44 21.5t-29.5 31t-10.5 37.5z" />
    <glyph glyph-name="uni1E42" unicode="&#x1e42;" horiz-adv-x="1922" 
d="M225 1221l-153 34l20 98h427l436 -1042h16l418 1042h437l20 -98l-152 -34v-1089l152 -34l-20 -98h-455l-20 98l153 34v1078h-16l-492 -1210h-105l-510 1210h-16v-1078l152 -34l-20 -98h-405l-20 98l153 34v1089zM827 -327q0 28 8 53.5t21.5 44.5t31 30t37.5 11
q29 0 54 -7.5t44 -21t29.5 -31.5t10.5 -39q0 -28 -8 -53t-21.5 -44t-31 -30t-37.5 -11q-29 0 -54 8t-44 21.5t-29.5 31t-10.5 37.5z" />
    <glyph glyph-name="uni1E43" unicode="&#x1e43;" horiz-adv-x="2034" 
d="M104 98l153 34v821l-153 34l20 98l235 22l58 -178q72 86 167.5 132t195.5 46q131 0 208.5 -46.5t109.5 -131.5q92 96 185 137t189 41q178 0 263.5 -94.5t85.5 -286.5v-594l153 -34l-20 -98h-446l-20 98l153 34v550q0 155 -55.5 230t-186.5 75q-58 0 -128.5 -33
t-141.5 -96v-726l153 -34l-20 -98h-446l-20 98l153 34v550q0 156 -53.5 230.5t-188.5 74.5q-60 0 -132 -35.5t-138 -93.5v-726l153 -34l-20 -98h-446zM920 -327q0 28 8 53.5t21.5 44.5t31 30t37.5 11q29 0 54 -7.5t44 -21t29.5 -31.5t10.5 -39q0 -28 -8 -53t-21.5 -44
t-31 -30t-37.5 -11q-29 0 -54 8t-44 21.5t-29.5 31t-10.5 37.5z" />
    <glyph glyph-name="uni1E5A" unicode="&#x1e5a;" horiz-adv-x="1205" 
d="M225 1221l-153 34l20 98h492q208 0 318 -84.5t110 -258.5q0 -130 -59.5 -226.5t-162.5 -144.5l-6 -19l277 -488l146 -34l-20 -98h-249l-340 601h-183v-469l152 -34l-20 -98h-455l-20 98l153 34v1089zM415 1224v-494h123q62 0 125.5 9t125.5 30q11 45 20 98t9 102
q0 119 -76.5 187t-225.5 68h-101zM517 -327q0 28 8 53.5t21.5 44.5t31 30t37.5 11q29 0 54 -7.5t44 -21t29.5 -31.5t10.5 -39q0 -28 -8 -53t-21.5 -44t-31 -30t-37.5 -11q-29 0 -54 8t-44 21.5t-29.5 31t-10.5 37.5z" />
    <glyph glyph-name="uni1E5B" unicode="&#x1e5b;" horiz-adv-x="885" 
d="M259 953l-153 34l20 98l235 22l58 -178q48 90 112.5 134t150.5 44q41 0 80.5 -11t68.5 -31l-25 -283h-112l-26 185q-19 8 -45 8q-51 0 -102 -36.5t-82 -80.5v-726l186 -34l-20 -98h-479l-20 98l153 34v821zM240 -327q0 28 8 53.5t21.5 44.5t31 30t37.5 11q29 0 54 -7.5
t44 -21t29.5 -31.5t10.5 -39q0 -28 -8 -53t-21.5 -44t-31 -30t-37.5 -11q-29 0 -54 8t-44 21.5t-29.5 31t-10.5 37.5z" />
    <glyph glyph-name="uni1E0D" unicode="&#x1e0d;" horiz-adv-x="1186" 
d="M979 132l153 -34l-20 -98l-235 -22l-58 177q-73 -95 -159.5 -137t-179.5 -40q-179 0 -280.5 112.5t-101.5 322.5v93q0 281 126.5 441t351.5 160q42 0 96.5 -5.5t126.5 -18.5v325l-153 34l20 98l313 22v-1430zM278 434q0 -163 70 -249.5t187 -86.5q73 0 145.5 39.5
t118.5 87.5v735q-58 12 -122 19.5t-121 7.5q-65 0 -125 -18.5t-103 -48.5q-24 -78 -37 -171.5t-13 -195.5v-119zM429 -327q0 28 8 53.5t21.5 44.5t31 30t37.5 11q29 0 54 -7.5t44 -21t29.5 -31.5t10.5 -39q0 -28 -8 -53t-21.5 -44t-31 -30t-37.5 -11q-29 0 -54 8t-44 21.5
t-29.5 31t-10.5 37.5z" />
    <glyph glyph-name="uni1E5D" unicode="&#x1e5d;" horiz-adv-x="885" 
d="M259 953l-153 34l20 98l235 22l58 -178q48 90 112.5 134t150.5 44q41 0 80.5 -11t68.5 -31l-25 -283h-112l-26 185q-19 8 -45 8q-51 0 -102 -36.5t-82 -80.5v-726l186 -34l-20 -98h-479l-20 98l153 34v821zM240 -327q0 28 8 53.5t21.5 44.5t31 30t37.5 11q29 0 54 -7.5
t44 -21t29.5 -31.5t10.5 -39q0 -28 -8 -53t-21.5 -44t-31 -30t-37.5 -11q-29 0 -54 8t-44 21.5t-29.5 31t-10.5 37.5zM148 1473h710l-21 -120h-709z" />
    <glyph glyph-name="uni1E21" unicode="&#x1e21;" horiz-adv-x="1075" 
d="M824 978l-4 -10q43 -29 75 -87t32 -121v-25q0 -168 -109.5 -267.5t-290.5 -99.5q-65 0 -119 12q-54 -50 -87.5 -94.5t-33.5 -71.5q0 -26 18.5 -40t52.5 -14h224q238 0 356.5 -69t118.5 -217q0 -162 -138.5 -246.5t-393.5 -84.5q-222 0 -327.5 47t-105.5 151
q0 67 54.5 135t154.5 133q-72 14 -113 52t-41 100q0 59 47.5 124t125.5 124q-86 41 -129.5 111t-43.5 150v26q0 196 109 303.5t291 107.5q29 0 73.5 -6.5t79.5 -15.5h314l18 -107h-208zM411 0q-70 -52 -114.5 -109t-44.5 -106q0 -71 73.5 -96.5t259.5 -25.5q77 0 155.5 12.5
t139.5 38.5q17 24 27 57.5t10 67.5q0 91 -72.5 126t-250.5 35h-183zM747 764q0 105 -66 164t-158 59q-46 0 -87 -8.5t-69 -21.5q-21 -54 -30.5 -110t-9.5 -103v-38q0 -97 71 -157.5t153 -60.5q48 0 86.5 7.5t69.5 22.5q17 32 28.5 87.5t11.5 120.5v38zM218 1473h711
l-20 -120h-710z" />
    <glyph glyph-name="uni1E25" unicode="&#x1e25;" horiz-adv-x="1324" 
d="M83 98l153 34v1276l-153 34l20 98l313 22v-615l14 -6q62 79 146 122.5t185 43.5q178 0 262.5 -94t84.5 -287v-594l153 -34l-20 -98h-446l-20 98l153 34v560q0 159 -53.5 227t-172.5 68q-76 0 -153.5 -43t-132.5 -106v-706l153 -34l-20 -98h-446zM557 -327q0 28 8 53.5
t21.5 44.5t31 30t37.5 11q29 0 54 -7.5t44 -21t29.5 -31.5t10.5 -39q0 -28 -8 -53t-21.5 -44t-31 -30t-37.5 -11q-29 0 -54 8t-44 21.5t-29.5 31t-10.5 37.5z" />
    <glyph glyph-name="uni1E24" unicode="&#x1e24;" horiz-adv-x="1459" 
d="M225 1221l-153 34l20 98h455l20 -98l-152 -34v-443h624v443l-152 34l20 98h456l20 -98l-154 -34v-1089l154 -34l-20 -98h-456l-20 98l152 34v517h-624v-517l152 -34l-20 -98h-455l-20 98l153 34v1089zM611 -327q0 28 8 53.5t21.5 44.5t31 30t37.5 11q29 0 54 -7.5t44 -21
t29.5 -31.5t10.5 -39q0 -28 -8 -53t-21.5 -44t-31 -30t-37.5 -11q-29 0 -54 8t-44 21.5t-29.5 31t-10.5 37.5z" />
    <glyph glyph-name="uni1E93" unicode="&#x1e93;" horiz-adv-x="967" 
d="M741 110l52 190l104 -11v-289h-805v95l593 868l-6 12h-400l-52 -190l-104 11v289h782v-83l-601 -880l6 -12h431zM371 -327q0 28 8 53.5t21.5 44.5t31 30t37.5 11q29 0 54 -7.5t44 -21t29.5 -31.5t10.5 -39q0 -28 -8 -53t-21.5 -44t-31 -30t-37.5 -11q-29 0 -54 8
t-44 21.5t-29.5 31t-10.5 37.5z" />
    <glyph glyph-name="uni1E92" unicode="&#x1e92;" horiz-adv-x="1130" 
d="M1023 1353v-124l-716 -1086l5 -14h557l82 193l103 -22l-24 -300h-948v125l715 1085l-5 14h-516l-82 -193l-104 22l25 300h908zM445 -327q0 28 8 53.5t21.5 44.5t31 30t37.5 11q29 0 54 -7.5t44 -21t29.5 -31.5t10.5 -39q0 -28 -8 -53t-21.5 -44t-31 -30t-37.5 -11
q-29 0 -54 8t-44 21.5t-29.5 31t-10.5 37.5z" />
    <glyph glyph-name="uni1E8E" unicode="&#x1e8e;" horiz-adv-x="1122" 
d="M478 578l-416 648l-114 28l20 99h410l20 -99l-132 -28l321 -504h16l304 504l-125 28l20 99h352l20 -99l-111 -28l-395 -650v-444l152 -34l-20 -98h-455l-20 98l153 34v446zM485 1598q0 28 8 53.5t21.5 44.5t31 30t37.5 11q29 0 54 -7.5t44 -21t29.5 -31.5t10.5 -39
q0 -28 -8 -53t-21.5 -44t-31 -30t-37.5 -11q-29 0 -54 8t-44 21.5t-29.5 31t-10.5 37.5z" />
    <glyph glyph-name="uni1E8F" unicode="&#x1e8f;" horiz-adv-x="1106" 
d="M777 1085h325l20 -98l-97 -19l-357 -966q-90 -249 -177.5 -354t-225.5 -105q-59 0 -119 15t-98 32l36 131q55 -20 129 -35.5t141 -15.5q38 26 74.5 75.5t65.5 129.5l-407 1093l-97 19l20 98h370l20 -98l-125 -19l295 -836h16l296 836l-125 19zM482 1401q0 28 8 53.5
t21.5 44.5t31 30t37.5 11q29 0 54 -7.5t44 -21t29.5 -31.5t10.5 -39q0 -28 -8 -53t-21.5 -44t-31 -30t-37.5 -11q-29 0 -54 8t-44 21.5t-29.5 31t-10.5 37.5z" />
    <glyph glyph-name="uni1E61" unicode="&#x1e61;" horiz-adv-x="970" 
d="M571 621q208 -106 263.5 -181.5t55.5 -168.5q0 -130 -114.5 -211.5t-303.5 -81.5q-102 0 -191 21t-145 49l-10 240l109 20l58 -187q39 -12 86 -17.5t95 -5.5q54 0 107.5 6.5t108.5 21.5q10 21 15 47.5t5 51.5q0 71 -64 127.5t-248 153.5q-166 87 -223 156t-57 158
q0 125 105 206t298 81q90 0 175 -18.5t146 -49.5l9 -241l-109 -20l-59 189q-40 11 -85 15.5t-83 4.5q-53 0 -103 -7.5t-92 -20.5q-9 -16 -15.5 -41.5t-6.5 -52.5q0 -54 45.5 -101.5t227.5 -142.5zM417 1401q0 28 8 53.5t21.5 44.5t31 30t37.5 11q29 0 54 -7.5t44 -21
t29.5 -31.5t10.5 -39q0 -28 -8 -53t-21.5 -44t-31 -30t-37.5 -11q-29 0 -54 8t-44 21.5t-29.5 31t-10.5 37.5z" />
    <glyph glyph-name="uni1E60" unicode="&#x1e60;" horiz-adv-x="1066" 
d="M619 762q188 -110 274.5 -201.5t86.5 -215.5q0 -165 -128.5 -266t-343.5 -101q-120 0 -219.5 18.5t-158.5 44.5l-21 259l117 25l82 -194q37 -11 82.5 -17.5t102.5 -6.5q74 0 141.5 10t125.5 28q10 25 20 66.5t10 98.5q0 63 -59 131.5t-255 186.5q-254 150 -310.5 232
t-56.5 179q0 146 125.5 241t346.5 95q84 0 168.5 -12t163.5 -40l21 -270l-105 -22l-82 193q-41 11 -83.5 16.5t-88.5 5.5q-77 0 -144 -11t-113 -27q-9 -30 -14 -63.5t-5 -70.5q0 -71 59.5 -130.5t260.5 -181.5zM438 1598q0 28 8 53.5t21.5 44.5t31 30t37.5 11q29 0 54 -7.5
t44 -21t29.5 -31.5t10.5 -39q0 -28 -8 -53t-21.5 -44t-31 -30t-37.5 -11q-29 0 -54 8t-44 21.5t-29.5 31t-10.5 37.5z" />
    <glyph glyph-name="uni1E38" unicode="&#x1e38;" horiz-adv-x="1018" 
d="M227 1221l-153 34l20 98h455l20 -98l-152 -34v-1092h336l83 193l104 -22l-25 -300h-821l-20 98l153 34v1089zM394 -327q0 28 8 53.5t21.5 44.5t31 30t37.5 11q29 0 54 -7.5t44 -21t29.5 -31.5t10.5 -39q0 -28 -8 -53t-21.5 -44t-31 -30t-37.5 -11q-29 0 -54 8t-44 21.5
t-29.5 31t-10.5 37.5zM-40 1660h771l-20 -120h-770z" />
    <glyph glyph-name="uni1E39" unicode="&#x1e39;" horiz-adv-x="642" 
d="M246 1408l-153 34l20 98l313 22v-1430l153 -34l-20 -98h-446l-20 98l153 34v1276zM216 -327q0 28 8 53.5t21.5 44.5t31 30t37.5 11q29 0 54 -7.5t44 -21t29.5 -31.5t10.5 -39q0 -28 -8 -53t-21.5 -44t-31 -30t-37.5 -11q-29 0 -54 8t-44 21.5t-29.5 31t-10.5 37.5z
M-72 1870h771l-20 -120h-770z" />
    <glyph glyph-name="uni1E45" unicode="&#x1e45;" horiz-adv-x="1346" 
d="M106 98l153 34v821l-153 34l20 98l235 22l58 -178q74 84 167 131t196 47q179 0 264 -93.5t85 -287.5v-594l153 -34l-20 -98h-446l-20 98l153 34v550q0 153 -49.5 229t-178.5 76q-67 0 -140.5 -33t-143.5 -96v-726l153 -34l-20 -98h-446zM602 1401q0 28 8 53.5t21.5 44.5
t31 30t37.5 11q29 0 54 -7.5t44 -21t29.5 -31.5t10.5 -39q0 -28 -8 -53t-21.5 -44t-31 -30t-37.5 -11q-29 0 -54 8t-44 21.5t-29.5 31t-10.5 37.5z" />
    <glyph glyph-name="uni1E44" unicode="&#x1e44;" horiz-adv-x="1532" 
d="M225 1221l-153 34l20 98h420l655 -1217h16v1085l-154 34l20 98h407l20 -98l-152 -34v-1221h-287l-656 1218h-16v-1086l152 -34l-20 -98h-405l-20 98l153 34v1089zM675 1598q0 28 8 53.5t21.5 44.5t31 30t37.5 11q29 0 54 -7.5t44 -21t29.5 -31.5t10.5 -39q0 -28 -8 -53
t-21.5 -44t-31 -30t-37.5 -11q-29 0 -54 8t-44 21.5t-29.5 31t-10.5 37.5z" />
    <glyph glyph-name="uni1E5C" unicode="&#x1e5c;" horiz-adv-x="1205" 
d="M225 1221l-153 34l20 98h492q208 0 318 -84.5t110 -258.5q0 -130 -59.5 -226.5t-162.5 -144.5l-6 -19l277 -488l146 -34l-20 -98h-249l-340 601h-183v-469l152 -34l-20 -98h-455l-20 98l153 34v1089zM415 1224v-494h123q62 0 125.5 9t125.5 30q11 45 20 98t9 102
q0 119 -76.5 187t-225.5 68h-101zM517 -327q0 28 8 53.5t21.5 44.5t31 30t37.5 11q29 0 54 -7.5t44 -21t29.5 -31.5t10.5 -39q0 -28 -8 -53t-21.5 -44t-31 -30t-37.5 -11q-29 0 -54 8t-44 21.5t-29.5 31t-10.5 37.5zM161 1660h771l-20 -120h-770z" />
    <glyph glyph-name="uni1E20" unicode="&#x1e20;" horiz-adv-x="1300" 
d="M1092 105q-96 -59 -211 -93t-228 -34q-262 0 -406.5 135t-144.5 392v89q0 378 157.5 579.5t454.5 201.5q98 0 195 -15t168 -42l21 -270l-105 -22l-82 193q-38 11 -98 19t-122 8q-87 0 -165.5 -23.5t-134.5 -64.5q-46 -93 -72.5 -216.5t-26.5 -258.5v-133q0 -211 121 -327
t290 -116q52 0 103 10t96 26v361l-153 34l20 108h455l20 -108l-152 -34v-399zM335 1660h771l-20 -120h-770z" />
    <glyph glyph-name="uni1EA0" unicode="&#x1ea0;" horiz-adv-x="1218" 
d="M-8 98l108 29l440 1226h149l429 -1226l108 -29l-20 -98h-385l-20 98l128 29l-94 279h-491l-96 -279l128 -29l-20 -98h-344zM389 535h402l-194 569h-10zM494 -327q0 28 8 53.5t21.5 44.5t31 30t37.5 11q29 0 54 -7.5t44 -21t29.5 -31.5t10.5 -39q0 -28 -8 -53t-21.5 -44
t-31 -30t-37.5 -11q-29 0 -54 8t-44 21.5t-29.5 31t-10.5 37.5z" />
    <glyph glyph-name="uni1EA1" unicode="&#x1ea1;" horiz-adv-x="1150" 
d="M939 132l173 -34l-20 -98l-255 -22l-58 177q-78 -95 -167 -136t-193 -41q-140 0 -225.5 70t-85.5 189q0 183 162 276.5t489 93.5v95q0 150 -54.5 217.5t-190.5 67.5q-32 0 -73.5 -4t-76.5 -11l-60 -212l-98 10v283q60 21 148.5 37.5t178.5 16.5q205 0 305.5 -90.5
t100.5 -281.5v-603zM759 487q-150 0 -266 -19.5t-177 -52.5q-12 -28 -20 -64t-8 -76q0 -83 55 -130t144 -47q75 0 148 37.5t124 89.5v262zM461 -327q0 28 8 53.5t21.5 44.5t31 30t37.5 11q29 0 54 -7.5t44 -21t29.5 -31.5t10.5 -39q0 -28 -8 -53t-21.5 -44t-31 -30
t-37.5 -11q-29 0 -54 8t-44 21.5t-29.5 31t-10.5 37.5z" />
    <glyph glyph-name="uni1E97" unicode="&#x1e97;" horiz-adv-x="742" 
d="M659 1085l20 -99l-310 -32v-645q0 -106 31.5 -158.5t127.5 -52.5q32 0 71 10t81 29v-94q-46 -30 -105.5 -47.5t-119.5 -17.5q-140 0 -203 72t-63 220v684l-161 32l20 99h141l73 293l107 -20v-273h290zM-11 1581q0 25 7 48t19.5 40.5t28.5 27.5t34 10q26 0 49 -7t39.5 -19
t26 -28.5t9.5 -35.5q0 -25 -7 -47.5t-19 -40t-28 -27.5t-34 -10q-26 0 -49 7t-40 19.5t-26.5 28.5t-9.5 34zM449 1581q0 25 7 48t19 40.5t28 27.5t34 10q26 0 49 -7t40 -19t26.5 -28.5t9.5 -35.5q0 -25 -7 -47.5t-19.5 -40t-28.5 -27.5t-34 -10q-26 0 -49 7t-39.5 19.5
t-26 28.5t-9.5 34z" />
    <glyph glyph-name="uni1EB8" unicode="&#x1eb8;" horiz-adv-x="1191" 
d="M419 643v-514h481l83 193l104 -23l-24 -299h-967l-20 98l153 34v1089l-153 34l20 98h937l24 -300l-103 -22l-83 193h-452v-452h357l34 122l99 -20v-334l-99 -20l-34 123h-357zM488 -327q0 28 8 53.5t21.5 44.5t31 30t37.5 11q29 0 54 -7.5t44 -21t29.5 -31.5t10.5 -39
q0 -28 -8 -53t-21.5 -44t-31 -30t-37.5 -11q-29 0 -54 8t-44 21.5t-29.5 31t-10.5 37.5z" />
    <glyph glyph-name="uni1EB9" unicode="&#x1eb9;" horiz-adv-x="1034" 
d="M276 523v-76q0 -168 92.5 -258.5t220.5 -90.5q83 0 163 18t149 47v-96q-87 -46 -182.5 -67.5t-189.5 -21.5q-206 0 -319.5 112t-113.5 324v83q0 287 127.5 448.5t347.5 161.5q203 0 293 -103.5t90 -360.5v-120h-678zM336 927q-22 -56 -37.5 -136t-19.5 -148h485
q0 182 -52.5 263t-168.5 81q-59 0 -116 -18t-91 -42zM437 -327q0 28 8 53.5t21.5 44.5t31 30t37.5 11q29 0 54 -7.5t44 -21t29.5 -31.5t10.5 -39q0 -28 -8 -53t-21.5 -44t-31 -30t-37.5 -11q-29 0 -54 8t-44 21.5t-29.5 31t-10.5 37.5z" />
    <glyph glyph-name="uni1EB6" unicode="&#x1eb6;" horiz-adv-x="1218" 
d="M-8 98l108 29l440 1226h149l429 -1226l108 -29l-20 -98h-385l-20 98l128 29l-94 279h-491l-96 -279l128 -29l-20 -98h-344zM389 535h402l-194 569h-10zM494 -327q0 28 8 53.5t21.5 44.5t31 30t37.5 11q29 0 54 -7.5t44 -21t29.5 -31.5t10.5 -39q0 -28 -8 -53t-21.5 -44
t-31 -30t-37.5 -11q-29 0 -54 8t-44 21.5t-29.5 31t-10.5 37.5zM948 1749q0 -50 -23 -99.5t-66 -89t-105.5 -64t-141.5 -24.5t-141.5 24.5t-105.5 64t-66 89t-23 99.5l97 10q0 -14 12 -40.5t39.5 -52.5t73.5 -45t114 -19t114 19t73.5 45t39.5 52.5t12 40.5z" />
    <glyph glyph-name="uni1EC6" unicode="&#x1ec6;" horiz-adv-x="1191" 
d="M419 643v-514h481l83 193l104 -23l-24 -299h-967l-20 98l153 34v1089l-153 34l20 98h937l24 -300l-103 -22l-83 193h-452v-452h357l34 122l99 -20v-334l-99 -20l-34 123h-357zM488 -327q0 28 8 53.5t21.5 44.5t31 30t37.5 11q29 0 54 -7.5t44 -21t29.5 -31.5t10.5 -39
q0 -28 -8 -53t-21.5 -44t-31 -30t-37.5 -11q-29 0 -54 8t-44 21.5t-29.5 31t-10.5 37.5zM945 1470l-125 -10l-238 192l-231 -192l-95 10v32l283 292l133 -10l273 -282v-32z" />
    <glyph glyph-name="uni1EB7" unicode="&#x1eb7;" horiz-adv-x="1150" 
d="M939 132l173 -34l-20 -98l-255 -22l-58 177q-78 -95 -167 -136t-193 -41q-140 0 -225.5 70t-85.5 189q0 183 162 276.5t489 93.5v95q0 150 -54.5 217.5t-190.5 67.5q-32 0 -73.5 -4t-76.5 -11l-60 -212l-98 10v283q60 21 148.5 37.5t178.5 16.5q205 0 305.5 -90.5
t100.5 -281.5v-603zM759 487q-150 0 -266 -19.5t-177 -52.5q-12 -28 -20 -64t-8 -76q0 -83 55 -130t144 -47q75 0 148 37.5t124 89.5v262zM461 -327q0 28 8 53.5t21.5 44.5t31 30t37.5 11q29 0 54 -7.5t44 -21t29.5 -31.5t10.5 -39q0 -28 -8 -53t-21.5 -44t-31 -30
t-37.5 -11q-29 0 -54 8t-44 21.5t-29.5 31t-10.5 37.5zM853 1592q0 -54 -21.5 -107t-61.5 -95t-96.5 -68.5t-126.5 -26.5t-126.5 26.5t-96.5 68.5t-61.5 95t-21.5 107l97 10q0 -16 12 -45.5t37.5 -59t65 -51t94.5 -21.5t94.5 21.5t65 51t37.5 59t12 45.5z" />
    <glyph glyph-name="uni1ECA" unicode="&#x1eca;" horiz-adv-x="643" 
d="M225 1221l-153 34l20 98h455l20 -98l-152 -34v-1089l152 -34l-20 -98h-455l-20 98l153 34v1089zM197 -327q0 28 8 53.5t21.5 44.5t31 30t37.5 11q29 0 54 -7.5t44 -21t29.5 -31.5t10.5 -39q0 -28 -8 -53t-21.5 -44t-31 -30t-37.5 -11q-29 0 -54 8t-44 21.5t-29.5 31
t-10.5 37.5z" />
    <glyph glyph-name="uni1ECB" unicode="&#x1ecb;" horiz-adv-x="660" 
d="M259 953l-153 34l20 98l313 22v-975l153 -34l-20 -98h-446l-20 98l153 34v821zM212 1401q0 56 29.5 97.5t68.5 41.5q57 0 97.5 -29t40.5 -70q0 -56 -29.5 -97t-68.5 -41q-56 0 -97 29t-41 69zM227 -327q0 28 8 53.5t21.5 44.5t31 30t37.5 11q29 0 54 -7.5t44 -21
t29.5 -31.5t10.5 -39q0 -28 -8 -53t-21.5 -44t-31 -30t-37.5 -11q-29 0 -54 8t-44 21.5t-29.5 31t-10.5 37.5z" />
    <glyph glyph-name="uni1ECC" unicode="&#x1ecc;" horiz-adv-x="1345" 
d="M663 -22q-279 0 -420 137.5t-141 409.5v79q0 389 148 580t433 191q278 0 419 -136.5t141 -411.5v-78q0 -377 -144 -574t-436 -197zM1053 783q0 236 -104.5 349.5t-295.5 113.5q-89 0 -168 -27.5t-124 -60.5q-30 -92 -49.5 -206.5t-19.5 -248.5v-133q0 -221 112.5 -342
t288.5 -121q88 0 165.5 26.5t126.5 62.5q32 100 50 220t18 234v133zM575 -327q0 28 8 53.5t21.5 44.5t31 30t37.5 11q29 0 54 -7.5t44 -21t29.5 -31.5t10.5 -39q0 -28 -8 -53t-21.5 -44t-31 -30t-37.5 -11q-29 0 -54 8t-44 21.5t-29.5 31t-10.5 37.5z" />
    <glyph glyph-name="uni1ECD" unicode="&#x1ecd;" horiz-adv-x="1114" 
d="M547 -22q-218 0 -334.5 116.5t-116.5 324.5v93q0 276 126.5 435.5t334.5 159.5q218 0 339.5 -116.5t121.5 -334.5v-94q0 -265 -126 -424.5t-345 -159.5zM838 622q0 171 -78.5 266.5t-222.5 98.5q-55 0 -110 -17.5t-91 -42.5q-26 -59 -43 -153t-17 -202v-119
q0 -168 86.5 -261.5t214.5 -93.5q50 0 103 16t98 44q31 65 45.5 155t14.5 190v119zM448 -327q0 28 8 53.5t21.5 44.5t31 30t37.5 11q29 0 54 -7.5t44 -21t29.5 -31.5t10.5 -39q0 -28 -8 -53t-21.5 -44t-31 -30t-37.5 -11q-29 0 -54 8t-44 21.5t-29.5 31t-10.5 37.5z" />
    <glyph glyph-name="uni1ED8" unicode="&#x1ed8;" horiz-adv-x="1345" 
d="M663 -22q-279 0 -420 137.5t-141 409.5v79q0 389 148 580t433 191q278 0 419 -136.5t141 -411.5v-78q0 -377 -144 -574t-436 -197zM1053 783q0 236 -104.5 349.5t-295.5 113.5q-89 0 -168 -27.5t-124 -60.5q-30 -92 -49.5 -206.5t-19.5 -248.5v-133q0 -221 112.5 -342
t288.5 -121q88 0 165.5 26.5t126.5 62.5q32 100 50 220t18 234v133zM575 -327q0 28 8 53.5t21.5 44.5t31 30t37.5 11q29 0 54 -7.5t44 -21t29.5 -31.5t10.5 -39q0 -28 -8 -53t-21.5 -44t-31 -30t-37.5 -11q-29 0 -54 8t-44 21.5t-29.5 31t-10.5 37.5zM1020 1470l-125 -10
l-238 192l-231 -192l-95 10v32l283 292l133 -10l273 -282v-32z" />
    <glyph glyph-name="uni1EE4" unicode="&#x1ee4;" horiz-adv-x="1358" 
d="M360 546q0 -223 94 -331t259 -108q79 0 148 23t110 53q34 62 56 150t22 188v700l-153 34l20 98h406l20 -98l-152 -34v-677q0 -291 -127 -428.5t-390 -137.5q-249 0 -376 124.5t-127 388.5v730l-154 34l20 98h456l20 -98l-152 -34v-675zM590 -327q0 28 8 53.5t21.5 44.5
t31 30t37.5 11q29 0 54 -7.5t44 -21t29.5 -31.5t10.5 -39q0 -28 -8 -53t-21.5 -44t-31 -30t-37.5 -11q-29 0 -54 8t-44 21.5t-29.5 31t-10.5 37.5z" />
    <glyph glyph-name="uni1EE5" unicode="&#x1ee5;" horiz-adv-x="1262" 
d="M371 403q0 -156 55 -230.5t187 -74.5q72 0 143 34t127 93v728l-183 34l20 98l343 22v-975l153 -34l-20 -98l-235 -22l-58 178q-81 -95 -171.5 -136.5t-199.5 -41.5q-168 0 -254.5 95t-86.5 286v594l-153 34l20 98l313 22v-704zM534 -327q0 28 8 53.5t21.5 44.5t31 30
t37.5 11q29 0 54 -7.5t44 -21t29.5 -31.5t10.5 -39q0 -28 -8 -53t-21.5 -44t-31 -30t-37.5 -11q-29 0 -54 8t-44 21.5t-29.5 31t-10.5 37.5z" />
    <glyph glyph-name="uni1EAC" unicode="&#x1eac;" horiz-adv-x="1218" 
d="M-8 98l108 29l440 1226h149l429 -1226l108 -29l-20 -98h-385l-20 98l128 29l-94 279h-491l-96 -279l128 -29l-20 -98h-344zM389 535h402l-194 569h-10zM494 -327q0 28 8 53.5t21.5 44.5t31 30t37.5 11q29 0 54 -7.5t44 -21t29.5 -31.5t10.5 -39q0 -28 -8 -53t-21.5 -44
t-31 -30t-37.5 -11q-29 0 -54 8t-44 21.5t-29.5 31t-10.5 37.5zM970 1470l-125 -10l-238 192l-231 -192l-95 10v32l283 292l133 -10l273 -282v-32z" />
    <glyph glyph-name="uni01CD" unicode="&#x1cd;" horiz-adv-x="1218" 
d="M-8 98l108 29l440 1226h149l429 -1226l108 -29l-20 -98h-385l-20 98l128 29l-94 279h-491l-96 -279l128 -29l-20 -98h-344zM389 535h402l-194 569h-10zM271 1784l125 10l238 -192l231 192l95 -10v-32l-283 -292l-133 10l-273 282v32z" />
    <glyph glyph-name="uni01CE" unicode="&#x1ce;" horiz-adv-x="1150" 
d="M939 132l173 -34l-20 -98l-255 -22l-58 177q-78 -95 -167 -136t-193 -41q-140 0 -225.5 70t-85.5 189q0 183 162 276.5t489 93.5v95q0 150 -54.5 217.5t-190.5 67.5q-32 0 -73.5 -4t-76.5 -11l-60 -212l-98 10v283q60 21 148.5 37.5t178.5 16.5q205 0 305.5 -90.5
t100.5 -281.5v-603zM759 487q-150 0 -266 -19.5t-177 -52.5q-12 -28 -20 -64t-8 -76q0 -83 55 -130t144 -47q75 0 148 37.5t124 89.5v262zM256 1660l125 10l193 -252l186 252l95 -10v-32l-233 -373l-133 10l-233 363v32z" />
    <glyph glyph-name="uni01CF" unicode="&#x1cf;" horiz-adv-x="643" 
d="M225 1221l-153 34l20 98h455l20 -98l-152 -34v-1089l152 -34l-20 -98h-455l-20 98l153 34v1089zM-25 1784l125 10l238 -192l231 192l95 -10v-32l-283 -292l-133 10l-273 282v32z" />
    <glyph glyph-name="uni01D0" unicode="&#x1d0;" horiz-adv-x="660" 
d="M439 132l153 -34l-20 -98h-446l-20 98l153 34v821l-153 34l20 98l313 22v-975zM21 1660l125 10l193 -252l186 252l95 -10v-32l-233 -373l-133 10l-233 363v32z" />
    <glyph glyph-name="uni01D1" unicode="&#x1d1;" horiz-adv-x="1345" 
d="M663 -22q-279 0 -420 137.5t-141 409.5v79q0 389 148 580t433 191q278 0 419 -136.5t141 -411.5v-78q0 -377 -144 -574t-436 -197zM1053 783q0 236 -104.5 349.5t-295.5 113.5q-89 0 -168 -27.5t-124 -60.5q-30 -92 -49.5 -206.5t-19.5 -248.5v-133q0 -221 112.5 -342
t288.5 -121q88 0 165.5 26.5t126.5 62.5q32 100 50 220t18 234v133zM321 1784l125 10l238 -192l231 192l95 -10v-32l-283 -292l-133 10l-273 282v32z" />
    <glyph glyph-name="uni01D2" unicode="&#x1d2;" horiz-adv-x="1114" 
d="M547 -22q-218 0 -334.5 116.5t-116.5 324.5v93q0 276 126.5 435.5t334.5 159.5q218 0 339.5 -116.5t121.5 -334.5v-94q0 -265 -126 -424.5t-345 -159.5zM838 622q0 171 -78.5 266.5t-222.5 98.5q-55 0 -110 -17.5t-91 -42.5q-26 -59 -43 -153t-17 -202v-119
q0 -168 86.5 -261.5t214.5 -93.5q50 0 103 16t98 44q31 65 45.5 155t14.5 190v119zM272 1660l125 10l193 -252l186 252l95 -10v-32l-233 -373l-133 10l-233 363v32z" />
    <glyph glyph-name="uni01D3" unicode="&#x1d3;" horiz-adv-x="1358" 
d="M360 546q0 -223 94 -331t259 -108q79 0 148 23t110 53q34 62 56 150t22 188v700l-153 34l20 98h406l20 -98l-152 -34v-677q0 -291 -127 -428.5t-390 -137.5q-249 0 -376 124.5t-127 388.5v730l-154 34l20 98h456l20 -98l-152 -34v-675zM363 1784l125 10l238 -192l231 192
l95 -10v-32l-283 -292l-133 10l-273 282v32z" />
    <glyph glyph-name="uni01D4" unicode="&#x1d4;" horiz-adv-x="1262" 
d="M371 403q0 -156 55 -230.5t187 -74.5q72 0 143 34t127 93v728l-183 34l20 98l343 22v-975l153 -34l-20 -98l-235 -22l-58 178q-81 -95 -171.5 -136.5t-199.5 -41.5q-168 0 -254.5 95t-86.5 286v594l-153 34l20 98l313 22v-704zM313 1660l125 10l193 -252l186 252l95 -10
v-32l-233 -373l-133 10l-233 363v32z" />
    <glyph glyph-name="uni1EBC" unicode="&#x1ebc;" horiz-adv-x="1191" 
d="M419 643v-514h481l83 193l104 -23l-24 -299h-967l-20 98l153 34v1089l-153 34l20 98h937l24 -300l-103 -22l-83 193h-452v-452h357l34 122l99 -20v-334l-99 -20l-34 123h-357zM178 1520q0 113 58.5 171t161.5 58q54 0 109.5 -20.5t106 -45.5l93.5 -45.5t72 -20.5
q38 0 60.5 29.5t22.5 90.5l117 10v-47q0 -106 -53.5 -167.5t-154.5 -61.5q-49 0 -106.5 20.5t-113 45.5l-102.5 45.5t-75 20.5q-20 0 -36.5 -4t-27.5 -15t-17 -30t-6 -49l-109 -10v25z" />
    <glyph glyph-name="uni1EBD" unicode="&#x1ebd;" horiz-adv-x="1034" 
d="M276 523v-76q0 -168 92.5 -258.5t220.5 -90.5q83 0 163 18t149 47v-96q-87 -46 -182.5 -67.5t-189.5 -21.5q-206 0 -319.5 112t-113.5 324v83q0 287 127.5 448.5t347.5 161.5q203 0 293 -103.5t90 -360.5v-120h-678zM336 927q-22 -56 -37.5 -136t-19.5 -148h485
q0 182 -52.5 263t-168.5 81q-59 0 -116 -18t-91 -42zM171 1307q0 113 58.5 171t161.5 58q54 0 109.5 -20.5t106 -45.5l93.5 -45.5t72 -20.5q38 0 60.5 29.5t22.5 90.5l117 10v-47q0 -106 -53.5 -167.5t-154.5 -61.5q-49 0 -106.5 20.5t-113 45.5l-102.5 45.5t-75 20.5
q-20 0 -36.5 -4t-27.5 -15t-17 -30t-6 -49l-109 -10v25z" />
    <glyph glyph-name="uni1EF8" unicode="&#x1ef8;" horiz-adv-x="1122" 
d="M478 578l-416 648l-114 28l20 99h410l20 -99l-132 -28l321 -504h16l304 504l-125 28l20 99h352l20 -99l-111 -28l-395 -650v-444l152 -34l-20 -98h-455l-20 98l153 34v446zM184 1520q0 113 58.5 171t161.5 58q54 0 109.5 -20.5t106 -45.5l93.5 -45.5t72 -20.5
q38 0 60.5 29.5t22.5 90.5l117 10v-47q0 -106 -53.5 -167.5t-154.5 -61.5q-49 0 -106.5 20.5t-113 45.5l-102.5 45.5t-75 20.5q-20 0 -36.5 -4t-27.5 -15t-17 -30t-6 -49l-109 -10v25z" />
    <glyph glyph-name="uni1EF9" unicode="&#x1ef9;" horiz-adv-x="1106" 
d="M777 1085h325l20 -98l-97 -19l-357 -966q-90 -249 -177.5 -354t-225.5 -105q-59 0 -119 15t-98 32l36 131q55 -20 129 -35.5t141 -15.5q38 26 74.5 75.5t65.5 129.5l-407 1093l-97 19l20 98h370l20 -98l-125 -19l295 -836h16l296 836l-125 19zM187 1307q0 113 58.5 171
t161.5 58q54 0 109.5 -20.5t106 -45.5l93.5 -45.5t72 -20.5q38 0 60.5 29.5t22.5 90.5l117 10v-47q0 -106 -53.5 -167.5t-154.5 -61.5q-49 0 -106.5 20.5t-113 45.5l-102.5 45.5t-75 20.5q-20 0 -36.5 -4t-27.5 -15t-17 -30t-6 -49l-109 -10v25z" />
    <glyph glyph-name="dieresismacron" horiz-adv-x="706" 
d="M53 1384q0 25 7 48t19.5 40.5t28.5 27.5t34 10q26 0 49 -7t39.5 -19.5t26 -29t9.5 -34.5q0 -25 -7 -47.5t-19 -40t-28 -27.5t-34 -10q-26 0 -49 7t-40 19.5t-26.5 28.5t-9.5 34zM453 1384q0 25 7 48t19 40.5t28 27.5t34 10q26 0 49 -7t40 -19.5t26.5 -29t9.5 -34.5
q0 -25 -7 -47.5t-19.5 -40t-28.5 -27.5t-34 -10q-26 0 -49 7t-39.5 19.5t-26 28.5t-9.5 34zM11 1760h711l-20 -120h-710z" />
    <glyph glyph-name="dieresismacron.case" 
d="M-61 1581q0 25 7 48t19.5 40.5t28.5 27.5t34 10q26 0 49 -7t39.5 -19t26 -28.5t9.5 -35.5q0 -25 -7 -47.5t-19 -40t-28 -27.5t-34 -10q-26 0 -49 7t-40 19.5t-26.5 28.5t-9.5 34zM399 1581q0 25 7 48t19 40.5t28 27.5t34 10q26 0 49 -7t40 -19t26.5 -28.5t9.5 -35.5
q0 -25 -7 -47.5t-19.5 -40t-28.5 -27.5t-34 -10q-26 0 -49 7t-39.5 19.5t-26 28.5t-9.5 34zM-83 1912h771l-20 -120h-770z" />
    <glyph glyph-name="dieresisacute" unicode="&#xf6d7;" horiz-adv-x="706" 
d="M53 1384q0 25 7 48t19.5 40.5t28.5 27.5t34 10q26 0 49 -7t39.5 -19.5t26 -29t9.5 -34.5q0 -25 -7 -47.5t-19 -40t-28 -27.5t-34 -10q-26 0 -49 7t-40 19.5t-26.5 28.5t-9.5 34zM453 1384q0 25 7 48t19 40.5t28 27.5t34 10q26 0 49 -7t40 -19.5t26.5 -29t9.5 -34.5
q0 -25 -7 -47.5t-19.5 -40t-28.5 -27.5t-34 -10q-26 0 -49 7t-39.5 19.5t-26 28.5t-9.5 34zM290 1644l203 363l182 -10v-66l-280 -329l-105 10v32z" />
    <glyph glyph-name="dieresisacute.case" 
d="M-61 1581q0 25 7 48t19.5 40.5t28.5 27.5t34 10q26 0 49 -7t39.5 -19t26 -28.5t9.5 -35.5q0 -25 -7 -47.5t-19 -40t-28 -27.5t-34 -10q-26 0 -49 7t-40 19.5t-26.5 28.5t-9.5 34zM399 1581q0 25 7 48t19 40.5t28 27.5t34 10q26 0 49 -7t40 -19t26.5 -28.5t9.5 -35.5
q0 -25 -7 -47.5t-19.5 -40t-28.5 -27.5t-34 -10q-26 0 -49 7t-39.5 19.5t-26 28.5t-9.5 34zM193 1788l298 281l192 -10v-66l-375 -248l-115 11v32z" />
    <glyph glyph-name="dieresisgrave" unicode="&#xf6d8;" horiz-adv-x="706" 
d="M53 1384q0 25 7 48t19.5 40.5t28.5 27.5t34 10q26 0 49 -7t39.5 -19.5t26 -29t9.5 -34.5q0 -25 -7 -47.5t-19 -40t-28 -27.5t-34 -10q-26 0 -49 7t-40 19.5t-26.5 28.5t-9.5 34zM453 1384q0 25 7 48t19 40.5t28 27.5t34 10q26 0 49 -7t40 -19.5t26.5 -29t9.5 -34.5
q0 -25 -7 -47.5t-19.5 -40t-28.5 -27.5t-34 -10q-26 0 -49 7t-39.5 19.5t-26 28.5t-9.5 34zM441 1612l-118 -10l-290 329v66l175 10l233 -363v-32z" />
    <glyph glyph-name="dieresiscaron" horiz-adv-x="706" 
d="M60 1997l125 10l193 -252l186 252l95 -10v-32l-233 -373l-133 10l-233 363v32zM53 1384q0 25 7 48t19.5 40.5t28.5 27.5t34 10q26 0 49 -7t39.5 -19.5t26 -29t9.5 -34.5q0 -25 -7 -47.5t-19 -40t-28 -27.5t-34 -10q-26 0 -49 7t-40 19.5t-26.5 28.5t-9.5 34zM453 1384
q0 25 7 48t19 40.5t28 27.5t34 10q26 0 49 -7t40 -19.5t26.5 -29t9.5 -34.5q0 -25 -7 -47.5t-19.5 -40t-28.5 -27.5t-34 -10q-26 0 -49 7t-39.5 19.5t-26 28.5t-9.5 34z" />
    <glyph glyph-name="dieresiscaron.case" 
d="M-66 2069l125 10l238 -192l231 192l95 -10v-32l-283 -292l-133 10l-273 282v32zM-61 1581q0 25 7 48t19.5 40.5t28.5 27.5t34 10q26 0 49 -7t39.5 -19t26 -28.5t9.5 -35.5q0 -25 -7 -47.5t-19 -40t-28 -27.5t-34 -10q-26 0 -49 7t-40 19.5t-26.5 28.5t-9.5 34zM399 1581
q0 25 7 48t19 40.5t28 27.5t34 10q26 0 49 -7t40 -19t26.5 -28.5t9.5 -35.5q0 -25 -7 -47.5t-19.5 -40t-28.5 -27.5t-34 -10q-26 0 -49 7t-39.5 19.5t-26 28.5t-9.5 34z" />
    <glyph glyph-name="dieresisgrave.case" 
d="M-61 1581q0 25 7 48t19.5 40.5t28.5 27.5t34 10q26 0 49 -7t39.5 -19t26 -28.5t9.5 -35.5q0 -25 -7 -47.5t-19 -40t-28 -27.5t-34 -10q-26 0 -49 7t-40 19.5t-26.5 28.5t-9.5 34zM399 1581q0 25 7 48t19 40.5t28 27.5t34 10q26 0 49 -7t40 -19t26.5 -28.5t9.5 -35.5
q0 -25 -7 -47.5t-19.5 -40t-28.5 -27.5t-34 -10q-26 0 -49 7t-39.5 19.5t-26 28.5t-9.5 34zM366 1756l-115 -11l-375 248v66l192 10l298 -281v-32z" />
    <glyph glyph-name="uni01D5" unicode="&#x1d5;" horiz-adv-x="1358" 
d="M360 546q0 -223 94 -331t259 -108q79 0 148 23t110 53q34 62 56 150t22 188v700l-153 34l20 98h406l20 -98l-152 -34v-677q0 -291 -127 -428.5t-390 -137.5q-249 0 -376 124.5t-127 388.5v730l-154 34l20 98h456l20 -98l-152 -34v-675zM386 1581q0 25 7 48t19.5 40.5
t28.5 27.5t34 10q26 0 49 -7t39.5 -19t26 -28.5t9.5 -35.5q0 -25 -7 -47.5t-19 -40t-28 -27.5t-34 -10q-26 0 -49 7t-40 19.5t-26.5 28.5t-9.5 34zM846 1581q0 25 7 48t19 40.5t28 27.5t34 10q26 0 49 -7t40 -19t26.5 -28.5t9.5 -35.5q0 -25 -7 -47.5t-19.5 -40t-28.5 -27.5
t-34 -10q-26 0 -49 7t-39.5 19.5t-26 28.5t-9.5 34zM364 1912h771l-20 -120h-770z" />
    <glyph glyph-name="uni01D7" unicode="&#x1d7;" horiz-adv-x="1358" 
d="M360 546q0 -223 94 -331t259 -108q79 0 148 23t110 53q34 62 56 150t22 188v700l-153 34l20 98h406l20 -98l-152 -34v-677q0 -291 -127 -428.5t-390 -137.5q-249 0 -376 124.5t-127 388.5v730l-154 34l20 98h456l20 -98l-152 -34v-675zM393 1581q0 25 7 48t19.5 40.5
t28.5 27.5t34 10q26 0 49 -7t39.5 -19t26 -28.5t9.5 -35.5q0 -25 -7 -47.5t-19 -40t-28 -27.5t-34 -10q-26 0 -49 7t-40 19.5t-26.5 28.5t-9.5 34zM853 1581q0 25 7 48t19 40.5t28 27.5t34 10q26 0 49 -7t40 -19t26.5 -28.5t9.5 -35.5q0 -25 -7 -47.5t-19.5 -40t-28.5 -27.5
t-34 -10q-26 0 -49 7t-39.5 19.5t-26 28.5t-9.5 34zM647 1788l298 281l192 -10v-66l-375 -248l-115 11v32z" />
    <glyph glyph-name="uni01D8" unicode="&#x1d8;" horiz-adv-x="1262" 
d="M371 403q0 -156 55 -230.5t187 -74.5q72 0 143 34t127 93v728l-183 34l20 98l343 22v-975l153 -34l-20 -98l-235 -22l-58 178q-81 -95 -171.5 -136.5t-199.5 -41.5q-168 0 -254.5 95t-86.5 286v594l-153 34l20 98l313 22v-704zM302 1384q0 25 7 48t19.5 40.5t28.5 27.5
t34 10q26 0 49 -7t39.5 -19.5t26 -29t9.5 -34.5q0 -25 -7 -47.5t-19 -40t-28 -27.5t-34 -10q-26 0 -49 7t-40 19.5t-26.5 28.5t-9.5 34zM702 1384q0 25 7 48t19 40.5t28 27.5t34 10q26 0 49 -7t40 -19.5t26.5 -29t9.5 -34.5q0 -25 -7 -47.5t-19.5 -40t-28.5 -27.5t-34 -10
q-26 0 -49 7t-39.5 19.5t-26 28.5t-9.5 34zM539 1644l203 363l182 -10v-66l-280 -329l-105 10v32z" />
    <glyph glyph-name="uni01D9" unicode="&#x1d9;" horiz-adv-x="1358" 
d="M360 546q0 -223 94 -331t259 -108q79 0 148 23t110 53q34 62 56 150t22 188v700l-153 34l20 98h406l20 -98l-152 -34v-677q0 -291 -127 -428.5t-390 -137.5q-249 0 -376 124.5t-127 388.5v730l-154 34l20 98h456l20 -98l-152 -34v-675zM377 2069l125 10l238 -192l231 192
l95 -10v-32l-283 -292l-133 10l-273 282v32zM382 1581q0 25 7 48t19.5 40.5t28.5 27.5t34 10q26 0 49 -7t39.5 -19t26 -28.5t9.5 -35.5q0 -25 -7 -47.5t-19 -40t-28 -27.5t-34 -10q-26 0 -49 7t-40 19.5t-26.5 28.5t-9.5 34zM842 1581q0 25 7 48t19 40.5t28 27.5t34 10
q26 0 49 -7t40 -19t26.5 -28.5t9.5 -35.5q0 -25 -7 -47.5t-19.5 -40t-28.5 -27.5t-34 -10q-26 0 -49 7t-39.5 19.5t-26 28.5t-9.5 34z" />
    <glyph glyph-name="uni01DA" unicode="&#x1da;" horiz-adv-x="1262" 
d="M371 403q0 -156 55 -230.5t187 -74.5q72 0 143 34t127 93v728l-183 34l20 98l343 22v-975l153 -34l-20 -98l-235 -22l-58 178q-81 -95 -171.5 -136.5t-199.5 -41.5q-168 0 -254.5 95t-86.5 286v594l-153 34l20 98l313 22v-704zM298 1997l125 10l193 -252l186 252l95 -10
v-32l-233 -373l-133 10l-233 363v32zM291 1384q0 25 7 48t19.5 40.5t28.5 27.5t34 10q26 0 49 -7t39.5 -19.5t26 -29t9.5 -34.5q0 -25 -7 -47.5t-19 -40t-28 -27.5t-34 -10q-26 0 -49 7t-40 19.5t-26.5 28.5t-9.5 34zM691 1384q0 25 7 48t19 40.5t28 27.5t34 10q26 0 49 -7
t40 -19.5t26.5 -29t9.5 -34.5q0 -25 -7 -47.5t-19.5 -40t-28.5 -27.5t-34 -10q-26 0 -49 7t-39.5 19.5t-26 28.5t-9.5 34z" />
    <glyph glyph-name="uni01DB" unicode="&#x1db;" horiz-adv-x="1358" 
d="M360 546q0 -223 94 -331t259 -108q79 0 148 23t110 53q34 62 56 150t22 188v700l-153 34l20 98h406l20 -98l-152 -34v-677q0 -291 -127 -428.5t-390 -137.5q-249 0 -376 124.5t-127 388.5v730l-154 34l20 98h456l20 -98l-152 -34v-675zM375 1581q0 25 7 48t19.5 40.5
t28.5 27.5t34 10q26 0 49 -7t39.5 -19t26 -28.5t9.5 -35.5q0 -25 -7 -47.5t-19 -40t-28 -27.5t-34 -10q-26 0 -49 7t-40 19.5t-26.5 28.5t-9.5 34zM835 1581q0 25 7 48t19 40.5t28 27.5t34 10q26 0 49 -7t40 -19t26.5 -28.5t9.5 -35.5q0 -25 -7 -47.5t-19.5 -40t-28.5 -27.5
t-34 -10q-26 0 -49 7t-39.5 19.5t-26 28.5t-9.5 34zM802 1756l-115 -11l-375 248v66l192 10l298 -281v-32z" />
    <glyph glyph-name="uni01DC" unicode="&#x1dc;" horiz-adv-x="1262" 
d="M371 403q0 -156 55 -230.5t187 -74.5q72 0 143 34t127 93v728l-183 34l20 98l343 22v-975l153 -34l-20 -98l-235 -22l-58 178q-81 -95 -171.5 -136.5t-199.5 -41.5q-168 0 -254.5 95t-86.5 286v594l-153 34l20 98l313 22v-704zM300 1384q0 25 7 48t19.5 40.5t28.5 27.5
t34 10q26 0 49 -7t39.5 -19.5t26 -29t9.5 -34.5q0 -25 -7 -47.5t-19 -40t-28 -27.5t-34 -10q-26 0 -49 7t-40 19.5t-26.5 28.5t-9.5 34zM700 1384q0 25 7 48t19 40.5t28 27.5t34 10q26 0 49 -7t40 -19.5t26.5 -29t9.5 -34.5q0 -25 -7 -47.5t-19.5 -40t-28.5 -27.5t-34 -10
q-26 0 -49 7t-39.5 19.5t-26 28.5t-9.5 34zM688 1612l-118 -10l-290 329v66l175 10l233 -363v-32z" />
    <glyph glyph-name="uni0331" unicode="&#x331;" horiz-adv-x="0" 
d="M-854 -194h710l-20 -120h-710z" />
    <glyph glyph-name="uni1E48" unicode="&#x1e48;" horiz-adv-x="1532" 
d="M225 1221l-153 34l20 98h420l655 -1217h16v1085l-154 34l20 98h407l20 -98l-152 -34v-1221h-287l-656 1218h-16v-1086l152 -34l-20 -98h-405l-20 98l153 34v1089zM402 -194h710l-20 -120h-710z" />
    <glyph glyph-name="uni1E49" unicode="&#x1e49;" horiz-adv-x="1346" 
d="M106 98l153 34v821l-153 34l20 98l235 22l58 -178q74 84 167 131t196 47q179 0 264 -93.5t85 -287.5v-594l153 -34l-20 -98h-446l-20 98l153 34v550q0 153 -49.5 229t-178.5 76q-67 0 -140.5 -33t-143.5 -96v-726l153 -34l-20 -98h-446zM337 -194h710l-20 -120h-710z" />
    <glyph glyph-name="uni1E5E" unicode="&#x1e5e;" horiz-adv-x="1205" 
d="M225 1221l-153 34l20 98h492q208 0 318 -84.5t110 -258.5q0 -130 -59.5 -226.5t-162.5 -144.5l-6 -19l277 -488l146 -34l-20 -98h-249l-340 601h-183v-469l152 -34l-20 -98h-455l-20 98l153 34v1089zM415 1224v-494h123q62 0 125.5 9t125.5 30q11 45 20 98t9 102
q0 119 -76.5 187t-225.5 68h-101zM282 -194h710l-20 -120h-710z" />
    <glyph glyph-name="uni1E5F" unicode="&#x1e5f;" horiz-adv-x="885" 
d="M259 953l-153 34l20 98l235 22l58 -178q48 90 112.5 134t150.5 44q41 0 80.5 -11t68.5 -31l-25 -283h-112l-26 185q-19 8 -45 8q-51 0 -102 -36.5t-82 -80.5v-726l186 -34l-20 -98h-479l-20 98l153 34v821zM5 -194h710l-20 -120h-710z" />
    <glyph glyph-name="uni1E6E" unicode="&#x1e6e;" horiz-adv-x="1139" 
d="M475 1224h-300l-62 -170l-99 9l15 290h1082l14 -290l-98 -9l-63 170h-299v-1092l153 -34l-20 -98h-456l-20 98l153 34v1092zM223 -194h710l-20 -120h-710z" />
    <glyph glyph-name="uni1E6F" unicode="&#x1e6f;" horiz-adv-x="742" 
d="M659 1085l20 -99l-310 -32v-645q0 -106 31.5 -158.5t127.5 -52.5q32 0 71 10t81 29v-94q-46 -30 -105.5 -47.5t-119.5 -17.5q-140 0 -203 72t-63 220v684l-161 32l20 99h141l73 293l107 -20v-273h290zM113 -194h710l-20 -120h-710z" />
    <glyph glyph-name="uni1E3B" unicode="&#x1e3b;" horiz-adv-x="642" 
d="M246 1408l-153 34l20 98l313 22v-1430l153 -34l-20 -98h-446l-20 98l153 34v1276zM-19 -194h710l-20 -120h-710z" />
    <glyph glyph-name="uni1E3A" unicode="&#x1e3a;" horiz-adv-x="1018" 
d="M227 1221l-153 34l20 98h455l20 -98l-152 -34v-1092h336l83 193l104 -22l-25 -300h-821l-20 98l153 34v1089zM159 -194h710l-20 -120h-710z" />
    <glyph glyph-name="uni1E0E" unicode="&#x1e0e;" horiz-adv-x="1362" 
d="M231 1221l-153 34l20 98h540q302 0 455 -151.5t153 -436.5v-78q0 -318 -155 -502.5t-430 -184.5h-563l-20 98l153 34v1089zM421 1224v-1095h211q78 0 148 12.5t130 36.5q62 77 104 195t42 249v94q0 241 -115.5 374.5t-341.5 133.5h-178zM234 -194h710l-20 -120h-710z" />
    <glyph glyph-name="uni1E0F" unicode="&#x1e0f;" horiz-adv-x="1186" 
d="M979 132l153 -34l-20 -98l-235 -22l-58 177q-73 -95 -159.5 -137t-179.5 -40q-179 0 -280.5 112.5t-101.5 322.5v93q0 281 126.5 441t351.5 160q42 0 96.5 -5.5t126.5 -18.5v325l-153 34l20 98l313 22v-1430zM278 434q0 -163 70 -249.5t187 -86.5q73 0 145.5 39.5
t118.5 87.5v735q-58 12 -122 19.5t-121 7.5q-65 0 -125 -18.5t-103 -48.5q-24 -78 -37 -171.5t-13 -195.5v-119zM194 -194h710l-20 -120h-710z" />
    <glyph glyph-name="uni00B5" unicode="&#xb5;" horiz-adv-x="1254" 
d="M1055 132l153 -34l-20 -98q-19 -7 -39 -11q-17 -5 -39.5 -8t-45.5 -3q-38 0 -65.5 16.5t-47.5 42.5t-33.5 57.5t-22.5 61.5q-24 -29 -55 -60.5t-72 -57.5t-93 -43t-118 -17q-45 0 -79.5 8.5t-60.5 22t-44 29t-29 29.5l-10 -6l49 -496l-180 -22v1410l-153 34l20 98l313 22
v-704q0 -92 16.5 -151t47 -93t73.5 -47.5t95 -13.5q57 0 104.5 19.5t82.5 43.5q40 28 73 64v728l-183 34l20 98l343 22v-975z" />
    <glyph glyph-name="uni032E" unicode="&#x32e;" horiz-adv-x="0" 
d="M-196 -188q0 -54 -21.5 -107t-61.5 -95t-96.5 -68.5t-126.5 -26.5t-126.5 26.5t-96.5 68.5t-61.5 95t-21.5 107l97 10q0 -16 12 -45.5t37.5 -59t65 -51t94.5 -21.5t94.5 21.5t65 51t37.5 59t12 45.5z" />
    <glyph glyph-name="uni1E2A" unicode="&#x1e2a;" horiz-adv-x="1459" 
d="M225 1221l-153 34l20 98h455l20 -98l-152 -34v-443h624v443l-152 34l20 98h456l20 -98l-154 -34v-1089l154 -34l-20 -98h-456l-20 98l152 34v517h-624v-517l152 -34l-20 -98h-455l-20 98l153 34v1089zM1039 -188q0 -54 -21.5 -107t-61.5 -95t-96.5 -68.5t-126.5 -26.5
t-126.5 26.5t-96.5 68.5t-61.5 95t-21.5 107l97 10q0 -16 12 -45.5t37.5 -59t65 -51t94.5 -21.5t94.5 21.5t65 51t37.5 59t12 45.5z" />
    <glyph glyph-name="uni1E2B" unicode="&#x1e2b;" horiz-adv-x="1324" 
d="M83 98l153 34v1276l-153 34l20 98l313 22v-615l14 -6q62 79 146 122.5t185 43.5q178 0 262.5 -94t84.5 -287v-594l153 -34l-20 -98h-446l-20 98l153 34v560q0 159 -53.5 227t-172.5 68q-76 0 -153.5 -43t-132.5 -106v-706l153 -34l-20 -98h-446zM985 -188
q0 -54 -21.5 -107t-61.5 -95t-96.5 -68.5t-126.5 -26.5t-126.5 26.5t-96.5 68.5t-61.5 95t-21.5 107l97 10q0 -16 12 -45.5t37.5 -59t65 -51t94.5 -21.5t94.5 21.5t65 51t37.5 59t12 45.5z" />
    <glyph glyph-name="uni2126" unicode="&#x2126;" horiz-adv-x="1515" 
d="M871 88q86 76 155 175q29 42 57 93.5t49.5 111.5t35 128.5t13.5 143.5q0 133 -35 229t-95 157.5t-140 90.5t-170 29q-75 0 -133 -13t-98 -28q-47 -18 -81 -41q-26 -49 -45 -111q-17 -53 -30.5 -125.5t-13.5 -161.5q0 -80 14.5 -152t37.5 -135t53 -116.5t62 -96.5
q73 -102 167 -178l-30 -88h-571l-25 321l74 12l63 -153h248q-80 65 -142 150q-27 36 -52 80.5t-45 96.5t-32 111t-12 125q0 136 37.5 252t114.5 200.5t194 132t275 47.5q148 0 260.5 -45.5t188 -128.5t113.5 -199t38 -257q0 -66 -12 -125.5t-31.5 -111.5t-44 -97t-50.5 -81
q-61 -85 -138 -150h235l63 153l74 -12l-25 -321h-541z" />
    <glyph glyph-name="caron.alt" horiz-adv-x="266" 
d="M70 1540h166v-42l-63 -341h-103v383z" />
    <glyph glyph-name="lcaron" unicode="&#x13e;" horiz-adv-x="642" 
d="M246 1408l-153 34l20 98l313 22v-1430l153 -34l-20 -98h-446l-20 98l153 34v1276zM565 1539h166v-42l-63 -341h-103v383z" />
    <glyph glyph-name="dcaron" unicode="&#x10f;" horiz-adv-x="1186" 
d="M979 132l153 -34l-20 -98l-235 -22l-58 177q-73 -95 -159.5 -137t-179.5 -40q-179 0 -280.5 112.5t-101.5 322.5v93q0 281 126.5 441t351.5 160q42 0 96.5 -5.5t126.5 -18.5v325l-153 34l20 98l313 22v-1430zM278 434q0 -163 70 -249.5t187 -86.5q73 0 145.5 39.5
t118.5 87.5v735q-58 12 -122 19.5t-121 7.5q-65 0 -125 -18.5t-103 -48.5q-24 -78 -37 -171.5t-13 -195.5v-119zM1123 1540h166v-42l-63 -341h-103v383z" />
    <glyph glyph-name="tcaron" unicode="&#x165;" horiz-adv-x="742" 
d="M659 1085l20 -99l-310 -32v-645q0 -106 31.5 -158.5t127.5 -52.5q32 0 71 10t81 29v-94q-46 -30 -105.5 -47.5t-119.5 -17.5q-140 0 -203 72t-63 220v684l-161 32l20 99h141l73 293l107 -20v-273h290zM523 1540h166v-42l-63 -341h-103v383z" />
    <glyph glyph-name="Lcaron" unicode="&#x13d;" horiz-adv-x="1018" 
d="M227 1221l-153 34l20 98h455l20 -98l-152 -34v-1092h336l83 193l104 -22l-25 -300h-821l-20 98l153 34v1089zM663 1540h166v-42l-63 -341h-103v383z" />
    <glyph glyph-name="uni031B" unicode="&#x31b;" horiz-adv-x="0" 
d="M-283 1432q48 -60 67.5 -114t19.5 -99q0 -59 -22.5 -107.5t-75 -92t-139 -83t-213.5 -78.5v102q77 30 129 55t83.5 50.5t44.5 53.5t13 64q0 35 -10.5 65t-23.5 52q-15 26 -33 45v30z" />
    <glyph glyph-name="Ohorn" unicode="&#x1a0;" horiz-adv-x="1379" 
d="M1493 1589q48 -60 67.5 -114t19.5 -99q0 -59 -22.5 -107.5t-75 -92t-139.5 -83.5q-55 -25 -128 -50q28 -95 28 -216v-78q0 -377 -144 -574t-436 -197q-279 0 -420 137.5t-141 409.5v79q0 389 148 580t433 191q278 0 419 -137q45 -44 76 -102q46 19 81 36q52 25 83.5 50.5
t44.5 53.5t13 64q0 35 -10.5 65t-23.5 52q-15 26 -33 45v30zM1053 783q0 236 -104.5 349.5t-295.5 113.5q-89 0 -168 -27.5t-124 -60.5q-30 -92 -49.5 -206.5t-19.5 -248.5v-133q0 -221 112.5 -342t288.5 -121q88 0 165.5 26.5t126.5 62.5q32 100 50 220t18 234v133z" />
    </font>
</defs>
</svg>
